<?xml version="1.0" encoding="utf-8"?>
<!-- Generator: Adobe Illustrator 17.1.0, SVG Export Plug-In . SVG Version: 6.00 Build 0)  -->
<!DOCTYPE svg PUBLIC "-//W3C//DTD SVG 1.1//EN" "http://www.w3.org/Graphics/SVG/1.1/DTD/svg11.dtd">
<svg version="1.1" xmlns="http://www.w3.org/2000/svg" xmlns:xlink="http://www.w3.org/1999/xlink" x="0px" y="0px"
	 viewBox="0 0 561.5 560.3" enable-background="new 0 0 561.5 560.3" xml:space="preserve">
<g id="Ebene_3">
	<rect x="0" y="-1.2" fill="#C5E6F0" width="561.5" height="561.5"/>
</g>
<g id="Ebene_1">
</g>
<g id="Ebene_4">
	<g>
		<defs>
			<rect id="SVGID_1_" x="0" y="-1.2" width="561.5" height="561.5"/>
		</defs>
		<clipPath id="SVGID_2_">
			<use xlink:href="#SVGID_1_"  overflow="visible"/>
		</clipPath>
		
			<rect x="-3794.5" y="305.6" clip-path="url(#SVGID_2_)" fill="#827565" stroke="#000000" stroke-width="5.1836" stroke-miterlimit="10" width="4843.2" height="102.7"/>
		<rect x="-3794.5" y="309.1" clip-path="url(#SVGID_2_)" fill="#77695A" width="4843.2" height="35.4"/>
		<path clip-path="url(#SVGID_2_)" fill="#DDCEA6" stroke="#020304" stroke-width="3.4558" stroke-miterlimit="10" d="M351.5,117.7
			c-0.6-0.5,4.8,0.6,3.6,6.5c-1.6,7.4-7.4,31.2-11.1,33.4c-3.7,2.1-4.2,4.8-4.2,4.8s-7.1,26.7-9.2,29.3
			c-9.5,9.3,14.5,22.6,19.3,24.2s67.3,6.4,73.1,26.5c3.7,20.7,3.2,38.1,3.2,42.9c0,4.8,2.1,62.5,0.5,72.5
			c-1.6,10.1,0.5,50.8-1.6,56.7c-2.1,5.8-2.1,6.9-13.2,8.5c-11.1,1.6-19.1-5.3-20.1,22.2c-1.1,27.5,3.7,101.7-7.9,119.2
			c-3.7,12.7-3.7,16.9-5.3,25.9c-1.6,9-6.4,42.9-6.4,47.1c0,4.2,7.9,2.1,5.8,10.1c-2.1,7.9-1.1,15.9-9.5,19.6
			c-1.1,4.8-8.5,58.3-7.4,61.4c1.1,3.2,16.4,20.1,18,23.8c1.6,3.7,1.1,60.9,1.1,72.5c0,11.7,3.2,41.8-4.2,43.4
			c-8.5,0-175.3,0.5-175.3,0.5s-7.4-4.8-7.9-13.2c-0.5-8.5-4.2-87.4-0.5-95.9c3.7-8.5,15.4-22.8,14.3-33.9c-1.1-11.1-4.8-54-7.4-62
			c-2.6-7.9-4.8-15.9-4.2-21.7c0.5-5.8,6.9-2.6,7.4-4.2c0.5-1.6-9-68.3-9.5-71c-5.3-3.2-12.7-6.4-12.7-58.3
			c0-51.9,1.1-68.8,1.1-68.8s-3.7-6.9-6.9-16.9c-11.7-1.1-28.1,4.8-29.7-9c-1.6-13.8-1.6-112.3-2.1-124.4
			c-0.5-12.2-3.7-48.5,12.1-55.2c24.1-10.2,64.6-16.8,67.3-19.5c2.6-2.6,11-4.3,17.9-12.8c-3.7-7.9-14.6-27.7-17.3-34.6
			c-2.6-6.9-4.8-5.6-4.8-5.6s-5.3-2.1-7.9-9.5c-2.6-7.4-8.5-25.4-6.4-28.6c2.1-3.2,4.3-2.2,4.3-2.2l-0.7-21.4l6-39.5l113.2-1.1
			l25.3,21.4c0,0,2.9,24.2,2.4,24.5C353.2,105.6,351.5,117.7,351.5,117.7z"/>
		<path clip-path="url(#SVGID_2_)" fill="#827565" stroke="#020304" stroke-width="3.4558" stroke-miterlimit="10" d="M391.3,432.2
			c-32.3,34.9-63.5,28.1-77.3,32.3c-13.8,4.2-51.9,1.1-56.1,1.1c-4.2,0-25.9,2.1-43.4-1.1c-17.5-3.2-34.4-25.4-34.4-25.4
			s-0.8,77,0.6,89.1c0.8,7.3-0.8,35.4,14,39c21.1,5.2,56.2,11.4,88.2,1.7c19.7,2.7,79.2,20,100.9-8.5c8.1-16.1,5-11.2,6.2-24.2
			C391,523.1,391.3,432.2,391.3,432.2z"/>
		<path clip-path="url(#SVGID_2_)" fill="#E6B212" stroke="#020304" stroke-width="3.4558" stroke-miterlimit="10" d="M173.1,422.1
			c0,0,1.6-45.5,0.5-55.6c-1.1-10.1-3.2-58.3-3.7-60.4c-0.5-2.1-28.6-2.1-28.6-2.1s-0.8-38.9,1.2-51.5c2.5-15.8,13.5-20.4,31.5-25.2
			s45.7-11.2,45.7-11.2s43.8,79.6,62.5,80.9c26.7,1.9,66.7-82,66.7-82s35,6.5,42.4,8.6c7.3,2.2,29.4,8.5,30.9,18.7
			c1.5,10.2,5.4,60.3,5.4,60.3s-28.1,0-28.6,2.1c-0.5,2.1-2.6,50.3-3.7,60.4c-1.1,10.1,0.5,55.6,0.5,55.6s-0.4,5.5-2.5,8.5
			s-27.4,46.1-135.5,36.3c-35.4,0-56.7,0.7-66.2-9.2C182.2,446.5,178.9,431.9,173.1,422.1z"/>
		<path clip-path="url(#SVGID_2_)" fill="none" stroke="#020304" stroke-width="1.3921" stroke-miterlimit="10" d="M191.6,566.2
			c0,0,31.8,15.4,91.1,2.6c23.8,6.4,79.4,12.2,100.1-5.3"/>
		<path clip-path="url(#SVGID_2_)" fill="none" stroke="#020304" stroke-width="1.3921" stroke-miterlimit="10" d="M227.4,211.1
			c0,0,37.8,76,56.4,78c18.6,2,58.5-77.4,58.5-77.4"/>
		<path clip-path="url(#SVGID_2_)" fill="#020304" d="M169.9,306.2c0,0,3.8-25.4,7.6-32.4c-0.7,0-10.1,26.9-12.1,28.9c-2,2-2,2-2,2
			L169.9,306.2z"/>
		<path clip-path="url(#SVGID_2_)" fill="#020304" d="M397,305.6c0,0-3.8-25.4-7.6-32.4c0.7,0,10.1,26.9,12.1,28.9c2,2,2,2,2,2
			L397,305.6z"/>
		<path clip-path="url(#SVGID_2_)" fill="none" stroke="#020304" stroke-width="1.3921" stroke-miterlimit="10" d="M236.5,196.4
			c0,0,5,8.7,17.4,14.5c8.6,4,31.6,12.8,54.6-0.5c22.4-12.9,20.4-19.6,22.4-21.8"/>
		<path clip-path="url(#SVGID_2_)" fill="#020304" d="M269.9,103.4c0,0-1.2,2.1-5.1,2.3c-3.9,0.2-18.1,1.9-23.9,3.9
			c-5.8,2.1-9.3,5.1-9.3,5.1s5.1-7.7,17.2-10.2C260.9,102,265.5,101.5,269.9,103.4z"/>
		<path clip-path="url(#SVGID_2_)" fill="#020304" d="M293.3,102c0,0,1.2,2.1,5.1,2.3c4,0.2,18.1,1.6,24,3.6c5.8,2,9.4,5,9.4,5
			s-5.2-7.6-17.3-10C302.4,100.5,297.7,100.1,293.3,102z"/>
		<path clip-path="url(#SVGID_2_)" fill="#020304" d="M272.6,153.7c0,0,5.1,1.9,6.7,3c1.6,1.2,9.3-4.2,10.9-4.9
			c-0.7-0.7-7.4,2.3-8.8,2.3C280,154.1,272.6,153.7,272.6,153.7z"/>
		<path clip-path="url(#SVGID_2_)" fill="#020304" d="M258.3,181.7c0,0,15.6,1.5,18.7,2.3c3.1,0.8,11,0.3,14.6-1.3
			c3.6-1.5,14.8-3.6,14.8-3.6s-18.9,2.6-21.2,2.8C282.8,182.2,259.6,181.2,258.3,181.7z"/>
		<path clip-path="url(#SVGID_2_)" fill="#020304" d="M274.3,193.6c0,0,7.2,0.5,8,1.1c0.8,0.5,5.1-1.6,6.4-1.6
			C290.1,193.1,275.1,194.1,274.3,193.6z"/>
		<path clip-path="url(#SVGID_2_)" fill="none" stroke="#020304" stroke-width="1.3921" stroke-miterlimit="10" d="M219,162.2
			c0,0-5.9-10.3-8.2-17.5"/>
		<path clip-path="url(#SVGID_2_)" fill="none" stroke="#020304" stroke-width="1.3921" stroke-miterlimit="10" d="M343.5,142.8
			c0,0-3.6,16.1-4.6,18.8"/>
		<path clip-path="url(#SVGID_2_)" fill="none" stroke="#020304" stroke-width="1.3921" stroke-miterlimit="10" d="M351.9,109.8
			c0,0-2.5,10.1-3.2,11.4"/>
		<path clip-path="url(#SVGID_2_)" fill="#020304" d="M205.8,129.4c0,0,0.5,9.9,3.7,17L205.8,129.4z"/>
		<path clip-path="url(#SVGID_2_)" fill="#020304" d="M350.6,127.5c0,0-2.7,14.8-4.2,17.5c-0.5,0.2,0-8.6,1.2-12.1
			C348.8,129.4,350.6,127.5,350.6,127.5z"/>
		<path clip-path="url(#SVGID_2_)" fill="#020304" d="M284.7,225.5c0.3,0.5,1.5,4.5,1.9,7c0.4,2.5-1.1,2.2-1.9,5.6
			c-0.8,3.4-0.5,6.8-0.5,6.8s1.1-5.5,3.3-7.5c2.2-2,4.5-6.4,2.6-8.3C288.1,227.1,284.7,225.5,284.7,225.5z"/>
		<path clip-path="url(#SVGID_2_)" fill="#020304" d="M291,116.7c0,0-2.7,11.9-1.8,15.5c1,3.7,1.4,9.7,1.5,10.1
			c0.1,0.4,0-10.8-0.1-13.1C290.5,126.9,291,116.7,291,116.7z"/>
		<path clip-path="url(#SVGID_2_)" fill="#F4EAD5" d="M207.3,583.4c0,0,2.8,2.8,13.9,0c1.4,0-11.1,16.7-2.8,51.5
			C208.7,623.7,207.3,583.4,207.3,583.4z"/>
		<path clip-path="url(#SVGID_2_)" fill="#F4EAD5" d="M332,640.4c0,0,25.6,1.3,30.4-6.6c4.8-7.9,3.1-22.5,3.1-22.5
			s-8.4,17.2-18.5,21.2C336.8,636.4,332,640.4,332,640.4z"/>
		<path clip-path="url(#SVGID_2_)" fill="#77695A" d="M255.2,497.8c0,0,21.5,18.7,23.5,24.5c2,5.8,1.4,44.4,1.4,44.4
			s-21.7,7.6-51.1,2.6c-2.2-1.5,35.5,5.1,42.5-9.3c-0.8-8.2-22.6-2.3-22.6-2.3l18.7-12.8l-23-3.9c0,0,30.3-3.9,26.5-13.6
			C267.2,517.7,255.2,497.8,255.2,497.8z"/>
		<path clip-path="url(#SVGID_2_)" fill="#77695A" d="M261.4,493.1l34.6,6.7c0,0-12.6,18.7-12.3,24.9c0.3,6.2,10.7,26.1,10.7,26.1
			s-10.1,5.1-7.1,7.4c3,2.3,48.2,20.6,95.6-1.9c-1.6,3.1-0.8,7.8-5.1,8.9c-3.4,3.6-26.4,14.1-92.4,2.2
			C284,550.3,261.4,493.1,261.4,493.1z"/>
		<path clip-path="url(#SVGID_2_)" fill="none" stroke="#020304" stroke-width="1.3921" stroke-miterlimit="10" d="M256.2,493.6
			c0,0,22.8,24.9,23.8,27c1.1,2.1,9.5-22.8,14.3-27.5"/>
		<path clip-path="url(#SVGID_2_)" fill="none" stroke="#020304" stroke-width="1.3921" stroke-miterlimit="10" d="M280.1,520.6
			c0,0,3.7,45.5,3.2,51.9c-0.5,6.4-1.6,64.1-0.5,68.3c1.1,4.2-3.7,22.2,0,24.9c1.6,6.4,2.6,66.2,2.6,66.2"/>
		<path clip-path="url(#SVGID_2_)" fill="none" stroke="#020304" stroke-width="1.3921" stroke-miterlimit="10" d="M201.2,638.2"/>
		<path opacity="0.43" clip-path="url(#SVGID_2_)" fill="#957414" d="M202.8,665.8v5.1c0,0,25,14.8,69,0c-1.1-1.6-14.9-2.6-14.9-2.6
			S226.2,672.2,202.8,665.8z"/>
		<path clip-path="url(#SVGID_2_)" fill="none" stroke="#020304" stroke-width="1.3921" stroke-miterlimit="10" d="M202.8,664.1
			c0,0,23.8,10.6,52.4,4.8"/>
		<path opacity="0.43" clip-path="url(#SVGID_2_)" fill="#957414" d="M294.3,667.7v5.1c0,0,25,14.8,69,0c-1.1-1.6-14.9-2.6-14.9-2.6
			S317.8,674.1,294.3,667.7z"/>
		<path clip-path="url(#SVGID_2_)" fill="none" stroke="#020304" stroke-width="1.3921" stroke-miterlimit="10" d="M299.7,668.4
			c0,0,22.2,10.1,58.3,2.1"/>
		<path opacity="0.43" clip-path="url(#SVGID_2_)" fill="#957414" d="M209.7,734.8v5.1c0,0,25,14.8,69,0c-1.1-1.6-14.9-2.6-14.9-2.6
			S233.1,741.2,209.7,734.8z"/>
		<path opacity="0.43" clip-path="url(#SVGID_2_)" fill="#957414" d="M294.3,733.9v5.1c0,0,25,14.8,69,0c-1.1-1.6-14.9-2.6-14.9-2.6
			S317.8,740.3,294.3,733.9z"/>
		<path clip-path="url(#SVGID_2_)" fill="none" stroke="#020304" stroke-width="1.3921" stroke-miterlimit="10" d="M215.5,737.2
			c0,0,25.4,6.4,58.3-1.1"/>
		<path clip-path="url(#SVGID_2_)" fill="none" stroke="#020304" stroke-width="1.3921" stroke-miterlimit="10" d="M301.8,736.2
			c0,0,21.7,7.9,49.2,1.1"/>
		<path opacity="0.43" clip-path="url(#SVGID_2_)" fill="#957414" d="M194.3,766.7c0,0,0,88,6.9,93.5c6.9,5.5,14.3,4.4,14.3,4.4
			s155.5,2.4,156.6,0.1s-122.7-8.3-140.3-13.8s8.8-6.6,8.8-6.6s-28.7-21.5-30.8-34.7c-2.2-13.2,5.8-12.7,5.8-12.7L194.3,766.7z"/>
		<path clip-path="url(#SVGID_2_)" fill="#EFD07A" d="M332,766.7c0,0,32.3-10.2,33.8,12.8c1.6,23-5.7,41.5-5.7,41.5
			S364.6,777,332,766.7z"/>
		<path clip-path="url(#SVGID_2_)" fill="#56493A" stroke="#000000" stroke-width="2.5918" stroke-miterlimit="10" d="M365.7,93.7
			c-13.3-7.2-9.3-8.6-18.2-40.5c-4.4-15.9-15-20.8-24.6-21.8c4-8.7,1.2-18,1.2-17.6c0.1,13.8-9,10.6-9,11.8
			c-6.7-15.9,11.1-21.4,14-22.1c-18.5,0.3-22.5,13.6-22.5,19c-2.5-10.3-9.1-22.4-10-22.4c3.1,3.7,3.7,13.9,3.7,20.5
			c-12.9-5.7-28.6-7-41.9-2.1C190,43.6,223.3,85.9,185,79.1c1.7,1.9,7.2,32.9,41.1,21c27.2-9.6,24.3-5.7,49-2.8
			c18.4,2.2,33.5-3.1,42.9-11.4C338.1,115.8,367.2,95.9,365.7,93.7z"/>
		<g clip-path="url(#SVGID_2_)">
			<path fill="#56493A" stroke="#000000" stroke-width="2.5918" stroke-miterlimit="10" d="M227,175c-0.4-0.4-0.7-0.6-0.9-0.6
				C226.5,174.6,226.8,174.8,227,175z"/>
			<path fill="#56493A" stroke="#000000" stroke-width="2.5918" stroke-miterlimit="10" d="M305.1,163.1c-8.6-5.5-16.6-3.7-21.4-1.6
				c-4.8-2.1-12.8-3.9-21.4,1.6c-13.1,8.4-27.3,17.5-35.3,11.9c4.4,4.3,23,28.6,50.8,7.2c2.5-2.2,4.4-4.1,5.9-5.8
				c1.5,1.7,3.4,3.7,5.9,5.8c27.8,21.4,46.4-2.9,50.8-7.2C332.5,180.6,318.2,171.5,305.1,163.1z"/>
			<path fill="#56493A" stroke="#000000" stroke-width="2.5918" stroke-miterlimit="10" d="M340.4,175c0.3-0.2,0.6-0.4,0.9-0.6
				C341.1,174.4,340.9,174.6,340.4,175z"/>
		</g>
		<path clip-path="url(#SVGID_2_)" fill="#827565" stroke="#000000" stroke-width="1.7279" stroke-miterlimit="10" d="M266.2,113.3
			c0,0,0.8,0.9,2.7,1.8C268.1,114.2,267.3,113.5,266.2,113.3z"/>
		<path clip-path="url(#SVGID_2_)" fill="#827565" stroke="#000000" stroke-width="1.7279" stroke-miterlimit="10" d="M293.7,114.4
			c0.3-0.1,0.6-0.2,1-0.3C297.8,113,296.2,112.6,293.7,114.4z"/>
		<g clip-path="url(#SVGID_2_)">
			<path fill="#56493A" stroke="#000000" stroke-width="2.5918" stroke-miterlimit="10" d="M254.5,112c-4.1-0.2-9.7-0.8-15.2-0.6
				c0,0,0-0.1,0-0.1s-25.1,1-27.7,1.8l0.1,1.1c0.2,2.7,0.2,7.7,0.2,7.7s4-1.2,6.3,8.6c0,1.6,1.3,10.2,1.6,11.6
				c0.8,4.3,4.3,13.4,21.9,13.3c17.7-0.1,30.4-5.9,30.7-22.4C272.6,116.5,265.6,112.7,254.5,112z"/>
			<path fill="#56493A" stroke="#000000" stroke-width="2.5918" stroke-miterlimit="10" d="M319.7,110.9
				C319.7,110.9,319.7,111,319.7,110.9c-5.5-0.1-11.1,0.4-15.2,0.6c-11.1,0.6-18,4.5-17.8,21c0.3,16.5,13,22.3,30.7,22.4
				c17.7,0.1,21.1-8.9,21.9-13.3c0.3-1.4,1.6-10.1,1.6-11.6c2.3-9.8,6.3-8.6,6.3-8.6s0-5,0.2-7.7l0.1-1.1
				C344.8,112,319.7,110.9,319.7,110.9z"/>
			<path fill="#56493A" stroke="#000000" stroke-width="2.5918" stroke-miterlimit="10" d="M292.7,114.4c-5.3,1.8-7.9,2.4-16,2.4
				c-4.2,0-7-0.8-8.8-1.7c3.6,4.3,4.7,14.6,5.7,15.7c0.4-5.5,1.4-7.3,6.1-7.6c6.8-0.4,6.6,8.8,7,5.2
				C287.1,120.3,290.3,116.2,292.7,114.4z"/>
		</g>
		<path clip-path="url(#SVGID_2_)" fill="#56493A" d="M256,116.7c0,0,10.2,0,20.9,1.3c9.2,1.1,8.8,0.8,20.8-3.7
			c8.8,0.1-5.3,22-5.3,22s-1.9-7.4-4.8-10.5c-3.6-3.9-8.9-5-13.4-0.6c-3.1,6.1-2.5,10.7-4.4,11.8C267.9,138.1,256,116.7,256,116.7z"
			/>
	</g>
</g>
<g id="Ebene_5">
</g>
</svg>
