<?xml version="1.0" encoding="utf-8"?>
<!-- Generator: Adobe Illustrator 17.1.0, SVG Export Plug-In . SVG Version: 6.00 Build 0)  -->
<!DOCTYPE svg PUBLIC "-//W3C//DTD SVG 1.1//EN" "http://www.w3.org/Graphics/SVG/1.1/DTD/svg11.dtd">
<svg version="1.1" id="Ebene_1" xmlns="http://www.w3.org/2000/svg" xmlns:xlink="http://www.w3.org/1999/xlink" x="0px" y="0px"
	 viewBox="0 0 1756 1092.5" enable-background="new 0 0 1756 1092.5" xml:space="preserve">
<rect y="725.4" fill="#798D4D" width="1756" height="367"/>
<circle fill="#FFFFFF" stroke="#1D1D1B" stroke-width="2" stroke-miterlimit="10" cx="1449.3" cy="571.2" r="22.9"/>
<path fill="#E1E1E1" d="M1434,577.5c0-11.2,8.8-20.2,19.6-20.2c7.8,0,14.5,4.7,17.7,11.5c-1.2-11.1-10.7-19.8-22.1-19.8
	c-12.3,0-22.2,10-22.2,22.2c0,8.7,5,16.2,12.3,19.9C1436,587.6,1434,582.8,1434,577.5z"/>
<path fill="none" stroke="#B0D2E1" stroke-miterlimit="10" d="M1327.2,526.3c0,0-53.6-18-69.8-20.9"/>
<path fill="none" stroke="#B0D2E1" stroke-miterlimit="10" d="M1303,510.8c0,0,63,18.2,84.6,31"/>
<path fill="none" stroke="#B0D2E1" stroke-miterlimit="10" d="M1357.2,491.6c0,0,43.3,23.6,69.7,47.2"/>
<path fill="none" stroke="#B0D2E1" stroke-miterlimit="10" d="M1362.6,480.5c0,0,49.2,33.5,54.1,38.1"/>
<path fill="#FFFFFF" d="M286.5,477.3c0-19.1-19.7-35.1-46.1-39c1.6-4.9,2.4-10.1,2.4-15.4c0-33.5-33-60.6-73.8-60.6
	c-40.7,0-73.8,27.1-73.8,60.6c0,1.1,0,2.3,0.1,3.4c-6.6-2.7-13.9-4.2-21.6-4.2c-27.9,0-50.5,19.6-50.5,43.8
	c0,11.1,4.8,21.2,12.6,28.9l0,0c0,0,0.1,0.1,0.2,0.2c3.1,3,6.7,5.7,10.7,7.8c21.5,13,69.4,34.5,185.5,17.3
	C267.8,512.8,286.5,493.7,286.5,477.3z"/>
<path fill="#FFFFFF" d="M1602.8,177.3c0-19.1-19.7-35.1-46.1-39c1.6-4.9,2.4-10.1,2.4-15.4c0-33.5-33-60.6-73.8-60.6
	s-73.8,27.1-73.8,60.6c0,1.1,0,2.3,0.1,3.4c-6.6-2.7-13.9-4.2-21.6-4.2c-27.9,0-50.5,19.6-50.5,43.8c0,11.1,4.8,21.2,12.6,28.9l0,0
	c0,0,0.1,0.1,0.2,0.2c3.1,3,6.7,5.7,10.7,7.8c21.5,13,69.4,34.5,185.5,17.3C1584.1,212.7,1602.8,193.6,1602.8,177.3z"/>
<path fill="#FFFFFF" d="M1471.2,638.2c0-14.5,15.8-26.7,36.9-29.7c-1.3-3.8-1.9-7.7-1.9-11.8c0-25.5,26.4-46.1,59-46.1
	s59,20.7,59,46.1c0,0.9,0,1.7-0.1,2.6c5.2-2,11.1-3.2,17.3-3.2c22.3,0,40.4,14.9,40.4,33.3c0,8.4-3.8,16.1-10.1,22l0,0
	c0,0-0.1,0.1-0.2,0.2c-2.5,2.3-5.4,4.3-8.5,6c-17.2,9.9-55.5,26.2-148.3,13.2C1486.2,665.2,1471.2,650.6,1471.2,638.2z"/>
<g>
	<g>
		<polyline fill="#A0513C" stroke="#020202" stroke-width="0.747" stroke-miterlimit="10" points="367.4,958.3 415.8,919.1 
			337.6,851.2 		"/>
		<path fill="#56493A" stroke="#020202" stroke-width="0.5968" stroke-miterlimit="10" d="M276.9,989.1c0,0-29.3-98.9-25.1-98.4
			c4.2,0.5,111.5-30,111.5-30l-22,53.5l66.5,36.8L276.9,989.1z"/>
		<path fill="#56493A" stroke="#020202" stroke-width="0.9806" stroke-miterlimit="10" d="M317.4,901.3c0,0,8.5,15.2,8.3,17.8
			c-0.2,2.5,2.8,25.4,2.8,25.4l-24.1,5.4c0,0-7-44.6,2.1-48.6C315.7,897.3,316.7,900,317.4,901.3z"/>
		<path opacity="0.33" fill="#967E66" d="M315.3,919.1l-7.2-21.1c0,0,9.8,7.7,14.2,19.5C317.9,919.4,318.8,919.1,315.3,919.1z"/>
		<path opacity="0.33" fill="#967E66" d="M322.3,919.1c0,0-8.4,2.5-16,2.8c-0.7,0.6,12.7,22.1,12.7,22.1h6.3
			C325.3,944.1,324.1,924.8,322.3,919.1z"/>
		<polygon opacity="0.57" fill="#493D30" points="319.6,942.8 310.5,921.2 306.6,921.2 313.1,945.3 		"/>
		<path fill="#56493A" stroke="#020202" stroke-width="1.1405" stroke-miterlimit="10" d="M377.8,884.7c0,0-8.4,17.6-7.8,20.3
			s0.2,27.4,0.2,27.4l31,1.6c0,0,2.2-48.5-9.8-51.2C379.3,880.1,378.5,883.1,377.8,884.7z"/>
		<path opacity="0.33" fill="#967E66" d="M383.1,903.1l5.9-23.6c0,0-11.2,9.9-14.9,23.1C379.8,903.9,378.7,903.8,383.1,903.1z"/>
		<path opacity="0.33" fill="#967E66" d="M374.3,904.4c0,0,10.9,1.2,20.5,0.2c1,0.5-12.7,25.7-12.7,25.7l-7.9,1.1
			C374.2,931.4,372.8,910.8,374.3,904.4z"/>
		<polygon opacity="0.57" fill="#493D30" points="381.1,929 389.4,904.5 394.2,903.9 389.6,930.6 		"/>
		<path opacity="0.54" fill="#111010" d="M389,887.9l14.3-3.3l-2.1,36.6l-15.6,3.8C385.6,924.9,400.1,907.9,389,887.9z"/>
		<path fill="#56493A" stroke="#020202" stroke-width="0.9806" stroke-miterlimit="10" d="M330.3,894.9c0,0-7.9,15.9-7.3,17.1
			c0.6,1.2,2.7,7.6,2.8,9.2c0.1,1.5,2.1,18.6,2.1,18.6l38.4-10c0,0,0.4-21.3,0-23.4c-0.4-2.1-17-20.5-17-20.5L330.3,894.9z"/>
		<path opacity="0.33" fill="#967E66" d="M354.4,909.7l-7.2-21.1c0,0,9.8,7.7,14.2,19.5C357,910,357.9,909.7,354.4,909.7z"/>
		<path opacity="0.33" fill="#967E66" d="M361.4,909.7c0,0-8.4,2.5-16,2.8c-0.7,0.6,12.7,22.1,12.7,22.1h6.3
			C364.4,934.7,363.2,915.5,361.4,909.7z"/>
		<polygon opacity="0.57" fill="#493D30" points="360.8,934.5 351.6,912.8 347.8,912.8 354.3,937 		"/>
		<path opacity="0.33" fill="#967E66" d="M334,897.1l-5.4,14.7c0,0,7.8,3.6,16.8,0.8c0.9-4.4-4.9-18.4-4.9-18.4L334,897.1z"/>
		<polygon opacity="0.33" fill="#967E66" points="330.7,917.2 334,942.7 345.4,937 340.5,916.8 340.5,929.7 337,917.9 		"/>
		<path fill="#C36A4E" stroke="#020202" stroke-width="0.747" stroke-miterlimit="10" d="M460.9,846.6c-11.9-6.4-98-45.7-98-45.7
			l-6.1,63.7c0,0,13-0.9,48.3-8c19.3-3.9,10.4-7.5,21.7-5.4C429.9,849.5,460.9,846.6,460.9,846.6z M453.3,892.9
			c-0.4,6.4-1.6,9.3-4.9,8.7l-61.1-23.2c-2.7-2.4-4.1-4.4-4.6-8.2c-0.2-1.3-0.2-2.7-0.2-4.4l-0.9-23.8c0.1-6.9,1.6-8.3,4.9-7.8
			l64.3,29.5c3.6,3.2,3.9,5.7,3.8,12.5L453.3,892.9z"/>
		<g>
			<path fill="#C36A4E" stroke="#020202" stroke-width="0.747" stroke-miterlimit="10" d="M362.6,800.7
				c-14.4,1.5-184.7,26.5-184.7,26.5l30.1,62.3c0,0,38.2,33.2,147.1-5.7C358.8,835.2,362.6,800.7,362.6,800.7z M326.3,850.4
				c0.1,5.5-1.1,8.5-4.9,9.8l-75.1,16.6c-3.3-0.4-5.2-1.3-6.1-4c-0.3-0.9-0.5-2.1-0.7-3.5l-3.2-18.8c-0.6-5.6,1.1-7.7,5.1-9.1
				l79.3-13.9c4.5,0.6,5.1,3,5.7,8.7L326.3,850.4z"/>
			<path fill="#A0513C" stroke="#020202" stroke-width="0.747" stroke-miterlimit="10" d="M386.1,858.4c0,0-0.7-22.7,1.7-23.7
				c0,0-6.4-3.9-6.8,3.9c-0.3,5.1,0.9,20.7,0.9,20.7L386.1,858.4z"/>
			<path fill="#A0513C" stroke="#020202" stroke-width="0.747" stroke-miterlimit="10" d="M303.7,946.2c0,0,91.8-24.1,93.2-24.9
				c1.4-0.8,3.3-0.8,4.1-5.8c0.8-5,2.8-30.9,2.8-30.9s6.8-1.9,5.2,9.5c-1.7,12.1-3.3,26.2-4.7,27.8c-1.1,1.2-2.3,2.9-5.3,3.7
				c-3,0.8-87,23.5-89,23.4C308.2,949,304.6,949.6,303.7,946.2z"/>
			<path fill="#C36A4E" stroke="#020202" stroke-width="0.747" stroke-miterlimit="10" d="M466.3,846.3
				c-16.4,2.9-236.9,51.3-240.3,50.1c-3.4-1.3-52.2-70.7-54.3-71.5c0,0,16,109.4,21.9,122c6.3,13.5,49.2,98.1,49.2,98.1
				s100.2-29.5,201.6-68.2C454,933,467.1,861.4,466.3,846.3z M202.6,901.2c-0.3-2.1-1.8-19.5-1.8-19.5s8.8,12.8,9,14.7
				c0.2,1.9,3.1,23.3,3.1,23.3S202.9,903.3,202.6,901.2z M405.5,916.3c-0.5,4.8-2.2,7.7-6.6,9.3l-89,23.4c-3.7,0-5.7-0.5-6.4-2.9
				c-0.2-0.8-0.4-1.8-0.4-3v-28.4c0-5,2.1-7,6.7-8.7l93.4-21.5c5,0,5.4,2.1,5.4,7.1L405.5,916.3z"/>
			<path fill="#A0513C" stroke="#020202" stroke-width="0.747" stroke-miterlimit="10" d="M364,797.5
				c-176.3,22.7-192.3,27.4-192.3,27.4l54.3,72.3L467,846.3C467,846.3,414.9,820.2,364,797.5z M231.4,888
				c-0.7-0.6-48.8-60-47.6-60.4c7.6-2.5,178.9-26.6,178.9-26.6s86.5,39,91.1,42.4C447.4,845.9,233.1,889.5,231.4,888z"/>
			<path fill="#A0513C" stroke="#020202" stroke-width="0.747" stroke-miterlimit="10" d="M196.9,906.1c0,0-0.9-2.4-1.3-5.8
				c-0.4-3.5-4.2-30.9-3.5-31c0.7-0.2,9.3,14.1,9.3,14.1s0.5,17.5,1.5,19.2c0.9,1.6,9.9,16.8,9.9,16.8l2.2,16.2L196.9,906.1z"/>
			
				<line fill="#A0513C" stroke="#020202" stroke-width="0.5229" stroke-miterlimit="10" x1="231.2" y1="924.9" x2="239.9" y2="1012.1"/>
		</g>
		<path opacity="0.47" fill="#A59586" d="M292.7,868.9c0,0-1.8,3.3,0,5.1c1.8,1.7,3.8-1.5,1.6-1.4
			C291.9,872.7,292.7,868.9,292.7,868.9"/>
		<g>
			<path fill="#56493A" stroke="#020202" stroke-width="0.7431" stroke-miterlimit="10" d="M375.9,849.1c0,0-2.7,6.5,0,10.8
				c3.5-0.2,17.9-3.4,17.9-3.4s1.9-2.8-0.1-8.3C393.4,848.5,385.7,851,375.9,849.1z"/>
			<path fill="#E5CD5B" stroke="#020202" stroke-width="0.7431" stroke-miterlimit="10" d="M375.6,850.5c0,0-0.1-3.1,0.5-4.8
				s2.2-3.9,7.9-3.8c5.7,0,9.1,0.6,9.6,5c0.3,2.8,0.3,2.4,0,2.8c0,0-1-0.7-1-0.7l-0.7,0.8l-0.7-0.7l-0.7,1.1l-0.8-0.7l-0.6,0.8
				l-0.6-0.7l-0.7,1l-0.5-0.7l-0.7,0.8l-0.6-0.7l-0.6,0.8l-0.6-0.7l-0.7,0.8l-0.6-0.7l-0.6,0.7l-0.7-0.7l-0.6,0.8l-0.6-0.7l-0.6,0.5
				l-0.7-0.7l-0.7,0.8l-0.5-0.9l-0.7,0.8l-0.7-0.7C376.7,849.7,375.7,850.5,375.6,850.5z"/>
			<path fill="#C6AE47" d="M377.3,845.3c0,0-0.7,0.2-0.6,1.8c1,0.8,9.3,3.2,15.6,0C389.1,847.6,379.2,848,377.3,845.3z"/>
			<path fill="#EFE0A0" d="M382.1,842.8c0,0,8.1-0.3,9.5,1.9c0.7,1.7-1.6,0.6-2.7,0S384,842.5,382.1,842.8z"/>
			<path fill="#EFE0A0" d="M378,845.3c0,0-0.6,1.7,5.3,2.3c5.9,0.6,7.6-0.4,7.6-0.4s-5,0.8-8.4-0.3
				C379.2,845.9,378.5,844.3,378,845.3z"/>
			<path opacity="0.47" fill="#A59586" d="M377.1,852.6c0,0-1.8,3.1,0,4.8c1.8,1.6,3.8-1.4,1.6-1.3
				C376.3,856.2,377.1,852.6,377.1,852.6"/>
		</g>
		<g>
			<path fill="#56493A" stroke="#020202" stroke-width="0.7431" stroke-miterlimit="10" d="M413.6,841.5c0,0-2.7,6.5,0,10.8
				c3.5-0.2,17.9-3.4,17.9-3.4s1.9-2.8-0.1-8.3C431.2,840.9,423.4,843.3,413.6,841.5z"/>
			<path fill="#E5CD5B" stroke="#020202" stroke-width="0.7431" stroke-miterlimit="10" d="M413.3,842.9c0,0-0.1-3.1,0.5-4.8
				s2.2-3.9,7.9-3.8c5.7,0,9.1,0.6,9.6,5c0.3,2.8,0.3,2.4,0,2.8c0,0-1-0.7-1-0.7l-0.7,0.8l-0.7-0.7l-0.7,1.1l-0.8-0.7l-0.6,0.8
				L426,842l-0.7,1l-0.5-0.7L424,843l-0.6-0.7l-0.6,0.8l-0.6-0.7l-0.7,0.8l-0.6-0.7l-0.6,0.7l-0.7-0.7l-0.6,0.8l-0.6-0.7l-0.6,0.5
				l-0.7-0.7l-0.7,0.8l-0.5-0.9l-0.7,0.8l-0.7-0.7C414.4,842.1,413.4,842.9,413.3,842.9z"/>
			<path fill="#C6AE47" d="M415,837.7c0,0-0.7,0.2-0.6,1.8c1,0.8,9.3,3.2,15.6,0C426.8,840,416.9,840.4,415,837.7z"/>
			<path fill="#EFE0A0" d="M419.8,835.1c0,0,8.1-0.3,9.5,1.9c0.7,1.7-1.6,0.6-2.7,0S421.7,834.9,419.8,835.1z"/>
			<path fill="#EFE0A0" d="M415.7,837.7c0,0-0.6,1.7,5.3,2.3c5.9,0.6,7.6-0.4,7.6-0.4s-5,0.8-8.4-0.3S416.2,836.7,415.7,837.7z"/>
			<path opacity="0.47" fill="#A59586" d="M414.8,845c0,0-1.8,3.1,0,4.8s3.8-1.4,1.6-1.3C414,848.6,414.8,845,414.8,845"/>
		</g>
		<g>
			<path fill="#56493A" stroke="#020202" stroke-width="0.7666" stroke-miterlimit="10" d="M241.8,874.9c0,0-3.5,6.5,1.6,11.5
				c3.5-0.3,14.9-2.8,14.9-2.8s3.4-3.9,1.4-9.7C259.4,874.2,251.7,876.8,241.8,874.9z"/>
			<path fill="#E5CD5B" stroke="#020202" stroke-width="0.7666" stroke-miterlimit="10" d="M241.6,876.4c0,0-0.1-3.3,0.5-5.1
				c0.6-1.9,2.2-4.1,7.9-4.1s9.1,0.6,9.6,5.4c0.3,2.9,0.3,2.6,0,2.9c0,0-1-0.7-1-0.7l-0.7,0.8l-0.7-0.7l-0.7,1.2l-0.8-0.7l-0.6,0.8
				l-0.6-0.8l-0.7,1l-0.5-0.8l-0.7,0.8l-0.6-0.8l-0.6,0.8l-0.6-0.8l-0.7,0.8l-0.6-0.8l-0.6,0.7l-0.7-0.8l-0.6,0.8l-0.6-0.8l-0.6,0.5
				l-0.7-0.8l-0.7,0.8l-0.5-0.9l-0.7,0.8l-0.7-0.8C242.7,875.5,241.6,876.4,241.6,876.4z"/>
			<path fill="#C6AE47" d="M243.2,870.8c0,0-0.7,0.2-0.6,1.9c1,0.8,9.3,3.4,15.6,0C255,873.3,245.2,873.7,243.2,870.8z"/>
			<path fill="#EFE0A0" d="M248.1,868.1c0,0,8.1-0.3,9.5,2c0.7,1.8-1.6,0.7-2.7,0C253.9,869.5,249.9,867.9,248.1,868.1z"/>
			<path fill="#EFE0A0" d="M243.9,870.8c0,0-0.6,1.8,5.3,2.5c5.9,0.6,7.6-0.4,7.6-0.4s-5,0.8-8.4-0.3
				C245.1,871.5,244.5,869.8,243.9,870.8z"/>
			<path opacity="0.47" fill="#A59586" d="M243.1,878.6c0,0-1.8,3.3,0,5.1c1.8,1.7,3.8-1.5,1.6-1.4
				C242.3,882.4,243,878.6,243.1,878.6"/>
		</g>
		<g>
			<g>
				<path fill="#56493A" stroke="#020202" stroke-width="0.6519" stroke-miterlimit="10" d="M351.9,824.3c0,0,2.7-3.6,0.9-8.3
					c-0.2,0.2-7.1,2.4-15.8,0.8c0,0-3.1,5.3,1.4,9.4c0,0-1.5,11.4-1.6,12.2c-0.1,0.8-5.8,14.9-6.3,16.7s-0.9,14.1-0.9,14.1
					s27.8-4.6,29.7-5.4c-0.1-1.7-2.3-10.8-2.5-11.1s-6-14.4-6.2-15.1c-0.2-0.6-0.8-10.9-0.8-10.9S351.3,825.1,351.9,824.3z"/>
				<path fill="#E5CD5B" stroke="#020202" stroke-width="0.6519" stroke-miterlimit="10" d="M336.8,818c0,0-0.1-2.7,0.4-4.2
					c0.5-1.5,1.9-3.4,7-3.3s8,0.5,8.5,4.4c0.3,2.4,0.3,2.1,0,2.4c0,0-0.9-0.6-0.9-0.6l-0.6,0.7l-0.7-0.6l-0.6,1l-0.7-0.6l-0.6,0.7
					l-0.6-0.6l-0.6,0.8l-0.5-0.6l-0.7,0.7l-0.5-0.6l-0.6,0.7l-0.5-0.6l-0.6,0.7l-0.6-0.6l-0.5,0.6l-0.6-0.6l-0.6,0.7l-0.5-0.6
					l-0.5,0.4l-0.6-0.6l-0.6,0.7l-0.4-0.8l-0.7,0.7l-0.7-0.6C337.8,817.3,336.8,818,336.8,818z"/>
				<path fill="#C6AE47" d="M338.3,813.4c0,0-0.6,0.2-0.5,1.6c0.9,0.7,8.2,2.8,13.8,0C348.7,815.4,340,815.7,338.3,813.4z"/>
				<path fill="#EFE0A0" d="M342.5,811.2c0,0,7.2-0.3,8.4,1.6c0.7,1.5-1.5,0.5-2.4,0S344.2,811,342.5,811.2z"/>
				<path fill="#EFE0A0" d="M338.9,813.4c0,0-0.5,1.5,4.7,2c5.2,0.5,6.7-0.3,6.7-0.3s-4.4,0.7-7.4-0.2
					C340,814,339.4,812.6,338.9,813.4z"/>
				<path opacity="0.47" fill="#A59586" d="M338.1,819.8c0,0-1.6,2.7,0,4.1s3.3-1.2,1.4-1.1C337.4,822.9,338.1,819.8,338.1,819.8"/>
			</g>
			<polygon opacity="0.47" fill="#A59586" points="338.9,840.1 343.5,840.1 342.5,826.6 340.7,826.6 			"/>
			<path opacity="0.47" fill="#A59586" d="M338.9,840.6l-6.3,14c0,0,6.9,0.6,10.9-0.4c0.2-2.2,0-13.6,0-13.6H338.9z"/>
			<path opacity="0.47" fill="#A59586" d="M332.6,855.4v12.9l12.2-2.3l-1.3-10.5l-2.4,0l-1.4,4.1l-0.4-4.1
				C339.4,855.7,332.9,855.6,332.6,855.4z"/>
			<polygon opacity="0.57" fill="#493D30" points="341.7,826 340.4,839.5 337.8,839.5 339.7,826.9 			"/>
			<polygon opacity="0.47" fill="#A59586" points="353.8,863.1 352.2,854.2 349.4,847.8 354.6,854.2 356.3,862 			"/>
			<polygon opacity="0.57" fill="#493D30" points="345.2,840.6 349.9,853.7 355.4,853 349.6,841 			"/>
		</g>
		<g>
			<path fill="#56493A" stroke="#020202" stroke-width="0.747" stroke-miterlimit="10" d="M334.3,857.1c0,0-2.7,6.5,0,11
				c3.5-0.2,17.9-3.5,17.9-3.5s1.9-2.9-0.1-8.3C351.8,856.5,344.1,859,334.3,857.1z"/>
			<path fill="#E5CD5B" stroke="#020202" stroke-width="0.747" stroke-miterlimit="10" d="M334,858.6c0,0-0.1-3.1,0.5-4.9
				s2.2-3.9,7.9-3.8s9.1,0.6,9.6,5.1c0.3,2.8,0.3,2.5,0,2.8c0,0-1-0.7-1-0.7l-0.7,0.8l-0.7-0.7l-0.7,1.1l-0.8-0.7l-0.6,0.8l-0.6-0.7
				l-0.7,1l-0.5-0.7l-0.7,0.8l-0.6-0.7l-0.6,0.8l-0.6-0.7l-0.7,0.8l-0.6-0.7l-0.6,0.7l-0.7-0.7l-0.6,0.8l-0.6-0.7l-0.6,0.5l-0.7-0.7
				l-0.7,0.8l-0.5-0.9l-0.7,0.8l-0.7-0.7C335.1,857.7,334.1,858.5,334,858.6z"/>
			<path fill="#C6AE47" d="M335.7,853.2c0,0-0.7,0.2-0.6,1.8c1,0.8,9.3,3.2,15.6,0C347.5,855.6,337.6,856,335.7,853.2z"/>
			<path fill="#EFE0A0" d="M340.5,850.7c0,0,8.1-0.3,9.5,1.9c0.7,1.7-1.6,0.6-2.7,0S342.4,850.5,340.5,850.7z"/>
			<path fill="#EFE0A0" d="M336.4,853.2c0,0-0.6,1.8,5.3,2.3c5.9,0.6,7.6-0.4,7.6-0.4s-5,0.8-8.4-0.3
				C337.6,853.9,336.9,852.3,336.4,853.2z"/>
			<path opacity="0.47" fill="#A59586" d="M335.5,860.6c0,0-1.8,3.2,0,4.8c1.8,1.6,3.8-1.4,1.6-1.3
				C334.7,864.3,335.5,860.6,335.5,860.6"/>
		</g>
		<g>
			<g>
				<path fill="#56493A" stroke="#020202" stroke-width="0.6519" stroke-miterlimit="10" d="M321.6,830.4c0,0,2.7-3.6,0.9-8.3
					c-0.2,0.2-7.1,2.4-15.8,0.8c0,0-3.1,5.3,1.4,9.4c0,0-1.5,11.4-1.6,12.2c-0.1,0.8-5.8,14.9-6.3,16.7c-0.5,1.8-0.9,14.1-0.9,14.1
					s27.8-4.6,29.7-5.4c-0.1-1.7-2.3-10.8-2.5-11.1c-0.2-0.3-6-14.4-6.2-15.1c-0.2-0.6-0.8-10.9-0.8-10.9S321.1,831.2,321.6,830.4z"
					/>
				<path fill="#E5CD5B" stroke="#020202" stroke-width="0.6519" stroke-miterlimit="10" d="M306.5,824.1c0,0-0.1-2.7,0.4-4.2
					c0.5-1.5,1.9-3.4,7-3.3s8,0.5,8.5,4.4c0.3,2.4,0.3,2.1,0,2.4c0,0-0.9-0.6-0.9-0.6l-0.6,0.7l-0.7-0.6l-0.6,1l-0.7-0.6l-0.6,0.7
					l-0.6-0.6l-0.6,0.8l-0.5-0.6l-0.7,0.7l-0.5-0.6l-0.6,0.7l-0.5-0.6l-0.6,0.7l-0.6-0.6l-0.5,0.6l-0.6-0.6l-0.6,0.7l-0.5-0.6
					l-0.5,0.4l-0.6-0.6l-0.6,0.7l-0.4-0.8l-0.7,0.7l-0.7-0.6C307.5,823.3,306.6,824.1,306.5,824.1z"/>
				<path fill="#C6AE47" d="M308,819.5c0,0-0.6,0.2-0.5,1.6c0.9,0.7,8.2,2.8,13.8,0C318.4,821.5,309.7,821.8,308,819.5z"/>
				<path fill="#EFE0A0" d="M312.3,817.3c0,0,7.2-0.3,8.4,1.6c0.7,1.5-1.5,0.5-2.4,0C317.5,818.4,313.9,817.1,312.3,817.3z"/>
				<path fill="#EFE0A0" d="M308.6,819.5c0,0-0.5,1.5,4.7,2c5.2,0.5,6.7-0.3,6.7-0.3s-4.4,0.7-7.4-0.2
					C309.7,820.1,309.1,818.7,308.6,819.5z"/>
				<path opacity="0.47" fill="#A59586" d="M307.9,825.9c0,0-1.6,2.7,0,4.1c1.6,1.4,3.3-1.2,1.4-1.1
					C307.2,829,307.8,825.9,307.9,825.9"/>
			</g>
			<polygon opacity="0.47" fill="#A59586" points="308.6,846.2 313.2,846.2 312.3,832.7 310.5,832.7 			"/>
			<path opacity="0.47" fill="#A59586" d="M308.6,846.7l-6.3,14c0,0,6.9,0.6,10.9-0.4c0.2-2.2,0-13.6,0-13.6H308.6z"/>
			<path opacity="0.47" fill="#A59586" d="M302.3,861.5v12.9l12.2-2.3l-1.3-10.5l-2.4,0l-1.4,4.1l-0.4-4.1
				C309.1,861.8,302.7,861.7,302.3,861.5z"/>
			<polygon opacity="0.57" fill="#493D30" points="311.5,832.1 310.1,845.6 307.5,845.6 309.5,833 			"/>
			<polygon opacity="0.47" fill="#A59586" points="323.5,869.2 321.9,860.3 319.2,853.9 324.3,860.3 326.1,868.1 			"/>
			<polygon opacity="0.57" fill="#493D30" points="315,846.7 319.6,859.8 325.2,859.1 319.4,847.1 			"/>
		</g>
		<g>
			<path fill="#56493A" stroke="#020202" stroke-width="0.7666" stroke-miterlimit="10" d="M291.4,865.7c0,0-1.9,6.2,0.8,10.9
				c3.5-0.3,17.1-3,17.1-3s1.9-3-0.1-8.8C308.9,865,301.2,867.6,291.4,865.7z"/>
			<path fill="#E5CD5B" stroke="#020202" stroke-width="0.7666" stroke-miterlimit="10" d="M291.1,867.2c0,0-0.1-3.3,0.5-5.1
				c0.6-1.9,2.2-4.1,7.9-4.1c5.7,0.1,9.1,0.6,9.6,5.4c0.3,2.9,0.3,2.6,0,2.9c0,0-1-0.7-1-0.7l-0.7,0.8l-0.7-0.7l-0.7,1.2l-0.8-0.7
				l-0.6,0.8l-0.6-0.8l-0.7,1l-0.5-0.8l-0.7,0.8l-0.6-0.8l-0.6,0.8l-0.6-0.8l-0.7,0.8l-0.6-0.8l-0.6,0.7l-0.7-0.8l-0.6,0.8l-0.6-0.8
				l-0.6,0.5l-0.7-0.8l-0.7,0.8l-0.5-0.9L293,867l-0.7-0.8C292.2,866.3,291.2,867.1,291.1,867.2z"/>
			<path fill="#C6AE47" d="M292.8,861.6c0,0-0.7,0.2-0.6,1.9c1,0.8,9.3,3.4,15.6,0C304.6,864,294.7,864.4,292.8,861.6z"/>
			<path fill="#EFE0A0" d="M297.6,858.9c0,0,8.1-0.3,9.5,2c0.7,1.8-1.6,0.7-2.7,0S299.5,858.7,297.6,858.9z"/>
			<path fill="#EFE0A0" d="M293.5,861.6c0,0-0.6,1.8,5.3,2.5c5.9,0.6,7.6-0.4,7.6-0.4s-5,0.8-8.4-0.3S294,860.5,293.5,861.6z"/>
		</g>
		<polygon opacity="0.68" fill="#A0513C" points="238.1,930.6 246.6,1036.7 407.1,986 289.8,1012.1 307.2,1001.1 277.1,1001.8 		"/>
		<polygon opacity="0.68" fill="#A0513C" points="228.2,933.3 237.1,1025.4 203.5,958.3 217.3,965.5 215,958.3 223.4,960.3 		"/>
		<path fill="#7D8B52" d="M223,1029.7c0,0,1.4-32.9-21.9-35.4c0.7,0,22.5-5.4,26.3,20.2c0,0,1.3-13.3,0-20.7c0-0.4,7.3,9.9,5.9,23.5
			c0.3-0.8-2.9-19.2,14.2-20.5c-0.6,0.3-10.2,0.7-7.4,24.2c2.1-2.5,8.4-7.9,7.4-13.6c-0.3-0.8-0.3-0.8-0.3-0.8s5.5,10.4-0.7,19.8
			c1.4,1.6,5.5-16.5,28.4-8.3c-0.3-0.4-15.7,1.2-13.3,16.1c0,0.8,10.3,9.1,10.3,9.1l-55.4,4.1L223,1029.7z"/>
	</g>
	<g opacity="0.68">
		<g>
			<path fill="#722E20" d="M321.6,962.9l-2.2,24.5c5.7-2.5,9.2-13,8.7-20.4c-0.4-5.2-2.8-8.9-7.9-7.1c-9.4,3.3-14.4,11.7-13.4,22.2
				c0.3,3.5,1.1,3.8,1.2,4.3c-3.9,1.4-6.2,0.4-6.7-4.5c-0.9-9.2,8.9-21.9,18.6-25.4c9.6-3.4,14.2,1.9,14.7,9.2
				c0.6,8.8-5,20.6-15.1,24.2l-0.3,0.1l-1.8,19.9l-8,2.8l3.8-45.4L321.6,962.9z"/>
			<path fill="#722E20" d="M345.8,965.6l-0.5,4.6c1.9-2.8,4-5.8,6.7-6.8c2.6-0.9,4.1,1.2,4.2,3.8c0.1,2.4-1.1,5.5-3.9,6.5
				c-3.2,1.1-1.8-4-3.5-3.4c-1.7,0.6-2.7,2-4,4.1l-3.1,27l-8,2.8l3.8-35.7L345.8,965.6z"/>
			<path fill="#722E20" d="M395.5,946c0.7,18,1.3,20.5,1.3,25.1c0,0.9-0.1,1.8-0.2,2.6c1.5-1.6,2.9-3.3,4-4.7l2.4-0.8
				c-2.7,4.6-5.5,8-7.9,10.7c-1.9,4-5.2,6.4-8.2,7.4c-6.6,2.3-7.8-2.1-7.9-6.2c-0.1-4,2-7.2,4-7.9c1.9-0.7,3-0.1,3,1.8
				c0,1.6-1.2,3.5-2.7,4c-0.6,0.2-1.2,0.2-1.5-0.3c0,3.2,1.2,4.7,3.3,3.9c2.5-0.9,3.5-2.8,3.5-7.5c0-3.8-0.7-5.7-1.4-18.4
				c-2.8,6.2-6,10.5-9.5,13c-0.5,13-5.9,22.7-12.8,25.1c-5.2,1.8-9,0.2-9.4-7.3c-0.3-7.8,2.7-25.7,14.6-29.8
				c4.9-1.7,7.4,1.2,7.6,8.4c2.9-1.2,6-6.4,9.2-14.5L395.5,946z M372.9,970.7c-0.9-0.1-1.4-0.9-1.4-2.6c0-1.9,0.6-3.3,1.5-4.2
				c-0.2-2.9-0.8-3.8-2.3-3.3c-4.1,1.4-7,15.3-6.8,21.9c0.2,4.4,0.9,5.2,3,4.4C369.6,986,372.2,979,372.9,970.7z"/>
			<path fill="#722E20" d="M408.8,967.3c-0.2,0.9-0.3,1.7-0.3,2.5c0,1.4,0.4,2.3,1.9,1.8c0.4-0.1,1-0.4,1.5-0.7
				c-1.7,6.4-4.1,8-6.1,8.7c-3.9,1.4-5.6-1.3-5.6-5.6c0-1.2,0.1-2.4,0.4-3.7l3.8-22.2l-1.9,0.7l0.5-3l1.9-0.7l1.9-10.6l8.7-4.5
				c0,0-1,5.3-2.2,12.2l3.5-1.2l-0.5,3l-3.5,1.2L408.8,967.3z"/>
		</g>
	</g>
	<g>
		<path fill="#FFFFFF" d="M318.8,961l-2.2,24.5c5.6-2.5,9.2-13,8.6-20.4c-0.4-5.2-2.8-8.9-7.9-7.1c-9.4,3.3-14.4,11.7-13.3,22.2
			c0.3,3.5,1.1,3.8,1.2,4.3c-3.9,1.4-6.2,0.4-6.7-4.5c-0.9-9.2,8.8-21.9,18.5-25.4c9.5-3.4,14.2,1.9,14.7,9.2
			c0.6,8.8-4.9,20.6-15,24.2l-0.3,0.1l-1.8,19.9l-7.9,2.8l3.7-45.4L318.8,961z"/>
		<path fill="#FFFFFF" d="M342.9,963.7l-0.5,4.6c1.9-2.8,3.9-5.8,6.7-6.8c2.6-0.9,4.1,1.2,4.2,3.8c0.1,2.4-1.1,5.5-3.9,6.5
			c-3.2,1.1-1.8-4-3.5-3.4c-1.7,0.6-2.7,2-4,4.1l-3,27l-7.9,2.8l3.7-35.7L342.9,963.7z"/>
		<path fill="#FFFFFF" d="M392.4,944c0.7,18,1.3,20.5,1.3,25c0,0.9-0.1,1.8-0.2,2.6c1.5-1.6,2.9-3.3,4-4.7l2.4-0.8
			c-2.7,4.6-5.4,8-7.8,10.7c-1.9,4-5.2,6.4-8.2,7.4c-6.6,2.3-7.8-2.1-7.9-6.2c-0.1-4,2-7.2,3.9-7.9c1.9-0.7,2.9-0.1,3,1.8
			c0,1.6-1.2,3.5-2.7,4c-0.6,0.2-1.2,0.2-1.5-0.3c0.1,3.2,1.2,4.6,3.3,3.9c2.5-0.9,3.5-2.8,3.5-7.5c0-3.8-0.7-5.7-1.5-18.4
			c-2.7,6.2-5.9,10.5-9.4,13c-0.5,13-5.8,22.7-12.7,25.1c-5.2,1.8-9,0.2-9.3-7.3c-0.4-7.7,2.6-25.7,14.5-29.8
			c4.9-1.7,7.4,1.2,7.6,8.4c2.9-1.2,6-6.4,9.2-14.5L392.4,944z M369.9,968.7c-0.9-0.1-1.4-0.9-1.4-2.6c-0.1-1.9,0.5-3.3,1.5-4.2
			c-0.2-2.9-0.9-3.8-2.3-3.3c-4.1,1.4-7,15.3-6.7,21.9c0.2,4.4,0.9,5.2,3,4.4C366.7,984,369.3,977,369.9,968.7z"/>
		<path fill="#FFFFFF" d="M405.7,965.3c-0.2,0.9-0.3,1.7-0.3,2.5c0,1.4,0.4,2.3,1.9,1.8c0.4-0.1,1-0.4,1.5-0.7c-1.6,6.4-4.1,8-6,8.7
			c-3.9,1.4-5.6-1.3-5.6-5.6c0-1.2,0.1-2.4,0.3-3.7l3.7-22.2l-1.9,0.7l0.5-3l1.9-0.7l1.8-10.6l8.7-4.5c0,0-1,5.3-2.2,12.2l3.5-1.2
			l-0.5,3l-3.5,1.2L405.7,965.3z"/>
	</g>
</g>
<g>
	<g>
		<g>
			<g>
				<path fill="#798D4D" d="M2,720.4c0.3-5.4,11-5.4,6.2-16c0-0.3,6.3,2.1,3.4,12.3c-2.1,6.2,6.4,6.2,6.4,6.2s12.4-17.9-5.2-29.1
					c0.3,0.7,16.7,3.8,10.9,24.1c0,0,0.7-13.1,15.1-12.4c-0.7-0.3-11.4,3.8-11.4,17.4c-0.3-0.2-1.7,41.6-1.7,41.6H18H1"/>
				<path fill="#798D4D" d="M9.8,765.4H42l-0.1-42c0,0-5-3-9.1-13.7c-4.2-10.9,0.4-11.6,0.4-11.6s-10-1.5-4.8,18.5
					c0,4.5,0.8,2.9-2.5,4.8c-0.3-5.4-11-11.4-6.2-22.1c0-0.3-8.9,4.1-3.4,18.2c2.1,6.2-6.4,6.2-6.4,6.2s-7.8-22.2,7.7-26.5
					c-0.3,0.7-19.2,1.2-13.4,21.5c0,0,11.3-15.5-3.1-14.8c0.7-0.3,6.7,4.3-1,19.6v41.7L9.8,765.4z"/>
			</g>
			<path fill="#798D4D" d="M34.1,724.1l6.1-15.2c0,0,0.8,12.4,1.7,14.6"/>
			<path fill="#798D4D" d="M12.8,729.7l0.6-16.3c0,0,5,11.3,6.5,13.1"/>
		</g>
		<g>
			<g>
				<path fill="#798D4D" d="M42,722.4c0.3-5.4,11-5.4,6.2-16c0-0.3,6.3,2.1,3.4,12.3c-2.1,6.2,6.4,6.2,6.4,6.2s12.4-17.9-5.2-29.1
					c0.3,0.7,16.7,3.8,10.9,24.1c0,0,0.7-13.1,15.1-12.4c-0.7-0.3-11.4,3.8-11.4,17.4c-0.3-0.2-1.7,41.6-1.7,41.6H58H41"/>
				<path fill="#798D4D" d="M49.8,767.4H82l-0.1-42c0,0-5-3-9.1-13.7c-4.2-10.9,0.4-11.6,0.4-11.6s-10-1.5-4.8,18.5
					c0,4.5,0.8,2.9-2.5,4.8c-0.3-5.4-11-11.4-6.2-22.1c0-0.3-8.9,4.1-3.4,18.2c2.1,6.2-6.4,6.2-6.4,6.2s-7.8-22.2,7.7-26.5
					c-0.3,0.7-19.2,1.2-13.4,21.5c0,0,9.3-15.5-5.2-14.8c0.7-0.3,8.8,4.4,1,19.7v41.7L49.8,767.4z"/>
			</g>
			<path fill="#798D4D" d="M74.1,726.1l6.1-15.2c0,0,0.8,12.4,1.7,14.6"/>
			<path fill="#798D4D" d="M52.8,731.7l0.6-16.3c0,0,5,11.3,6.5,13.1"/>
		</g>
		<g>
			<g>
				<path fill="#798D4D" d="M71,717.4c0.3-5.4,11-5.4,6.2-16c0-0.3,6.3,2.1,3.4,12.3c-2.1,6.2,6.4,6.2,6.4,6.2s12.4-17.9-5.2-29.1
					c0.3,0.7,16.7,3.8,10.9,24.1c0,0,0.7-13.1,15.1-12.4c-0.7-0.3-11.4,3.8-11.4,17.4c-0.3-0.2-1.7,41.6-1.7,41.6H87H70"/>
				<path fill="#798D4D" d="M78.8,762.4H111l-0.1-42c0,0-5-3-9.1-13.7c-4.2-10.9,0.4-11.6,0.4-11.6s-10-1.5-4.8,18.5
					c0,4.5,0.8,2.9-2.5,4.8c-0.3-5.4-11-11.4-6.2-22.1c0-0.3-8.9,4.1-3.4,18.2c2.1,6.2-6.4,6.2-6.4,6.2s-7.8-22.2,7.7-26.5
					c-0.3,0.7-19.2,1.2-13.4,21.5c0,0,9.3-15.5-5.2-14.8c0.7-0.3,8.8,4.4,1,19.7v41.7L78.8,762.4z"/>
			</g>
			<path fill="#798D4D" d="M103.1,721.1l6.1-15.2c0,0,0.8,12.4,1.7,14.6"/>
			<path fill="#798D4D" d="M81.8,726.7l0.6-16.3c0,0,5,11.3,6.5,13.1"/>
		</g>
		<g>
			<g>
				<path fill="#798D4D" d="M111,725.4c0.3-5.4,11-5.4,6.2-16c0-0.3,6.3,2.1,3.4,12.3c-2.1,6.2,6.4,6.2,6.4,6.2s12.4-17.9-5.2-29.1
					c0.3,0.7,16.7,3.8,10.9,24.1c0,0,0.7-13.1,15.1-12.4c-0.7-0.3-11.4,3.8-11.4,17.4c-0.3-0.2-1.7,41.6-1.7,41.6H127h-17"/>
				<path fill="#798D4D" d="M118.8,770.4H151l-0.1-42c0,0-5-3-9.1-13.7c-4.2-10.9,0.4-11.6,0.4-11.6s-10-1.5-4.8,18.5
					c0,4.5,0.8,2.9-2.5,4.8c-0.3-5.4-11-11.4-6.2-22.1c0-0.3-8.9,4.1-3.4,18.2c2.1,6.2-6.4,6.2-6.4,6.2s-7.8-22.2,7.7-26.5
					c-0.3,0.7-19.2,1.2-13.4,21.5c0,0,9.3-15.5-5.2-14.8c0.7-0.3,8.8,4.4,1,19.7v41.7L118.8,770.4z"/>
			</g>
			<path fill="#798D4D" d="M143.1,729.1l6.1-15.2c0,0,0.8,12.4,1.7,14.6"/>
			<path fill="#798D4D" d="M121.8,734.7l0.6-16.3c0,0,5,11.3,6.5,13.1"/>
		</g>
		<g>
			<g>
				<path fill="#798D4D" d="M150,719.4c0.3-5.4,11-5.4,6.2-16c0-0.3,6.3,2.1,3.4,12.3c-2.1,6.2,6.4,6.2,6.4,6.2s12.4-17.9-5.2-29.1
					c0.3,0.7,16.7,3.8,10.9,24.1c0,0,0.7-13.1,15.1-12.4c-0.7-0.3-11.4,3.8-11.4,17.4c-0.3-0.2-1.7,41.6-1.7,41.6H166h-17"/>
				<path fill="#798D4D" d="M157.8,764.4H190l-0.1-42c0,0-5-3-9.1-13.7c-4.2-10.9,0.4-11.6,0.4-11.6s-10-1.5-4.8,18.5
					c0,4.5,0.8,2.9-2.5,4.8c-0.3-5.4-11-11.4-6.2-22.1c0-0.3-8.9,4.1-3.4,18.2c2.1,6.2-6.4,6.2-6.4,6.2s-7.8-22.2,7.7-26.5
					c-0.3,0.7-19.2,1.2-13.4,21.5c0,0,9.3-15.5-5.2-14.8c0.7-0.3,8.8,4.4,1,19.7v41.7L157.8,764.4z"/>
			</g>
			<path fill="#798D4D" d="M182.1,723.1l6.1-15.2c0,0,0.8,12.4,1.7,14.6"/>
			<path fill="#798D4D" d="M160.8,728.7l0.6-16.3c0,0,5,11.3,6.5,13.1"/>
		</g>
		<g>
			<g>
				<path fill="#798D4D" d="M190,722.4c0.3-5.4,11-5.4,6.2-16c0-0.3,6.3,2.1,3.4,12.3c-2.1,6.2,6.4,6.2,6.4,6.2s12.4-17.9-5.2-29.1
					c0.3,0.7,16.7,3.8,10.9,24.1c0,0,0.7-13.1,15.1-12.4c-0.7-0.3-11.4,3.8-11.4,17.4c-0.3-0.2-1.7,41.6-1.7,41.6H206h-17"/>
				<path fill="#798D4D" d="M197.8,767.4H230l-0.1-42c0,0-5-3-9.1-13.7c-4.2-10.9,0.4-11.6,0.4-11.6s-10-1.5-4.8,18.5
					c0,4.5,0.8,2.9-2.5,4.8c-0.3-5.4-11-11.4-6.2-22.1c0-0.3-8.9,4.1-3.4,18.2c2.1,6.2-6.4,6.2-6.4,6.2s-7.8-22.2,7.7-26.5
					c-0.3,0.7-19.2,1.2-13.4,21.5c0,0,9.3-15.5-5.2-14.8c0.7-0.3,8.8,4.4,1,19.7v41.7L197.8,767.4z"/>
			</g>
			<path fill="#798D4D" d="M222.1,726.1l6.1-15.2c0,0,0.8,12.4,1.7,14.6"/>
			<path fill="#798D4D" d="M200.8,731.7l0.6-16.3c0,0,5,11.3,6.5,13.1"/>
		</g>
		<g>
			<g>
				<path fill="#798D4D" d="M230,724.4c0.3-5.4,11-5.4,6.2-16c0-0.3,6.3,2.1,3.4,12.3c-2.1,6.2,6.4,6.2,6.4,6.2s12.4-17.9-5.2-29.1
					c0.3,0.7,16.7,3.8,10.9,24.1c0,0,0.7-13.1,15.1-12.4c-0.7-0.3-11.4,3.8-11.4,17.4c-0.3-0.2-1.7,41.6-1.7,41.6H246h-17"/>
				<path fill="#798D4D" d="M237.8,769.4H270l-0.1-42c0,0-5-3-9.1-13.7c-4.2-10.9,0.4-11.6,0.4-11.6s-10-1.5-4.8,18.5
					c0,4.5,0.8,2.9-2.5,4.8c-0.3-5.4-11-11.4-6.2-22.1c0-0.3-8.9,4.1-3.4,18.2c2.1,6.2-6.4,6.2-6.4,6.2s-7.8-22.2,7.7-26.5
					c-0.3,0.7-19.2,1.2-13.4,21.5c0,0,9.3-15.5-5.2-14.8c0.7-0.3,8.8,4.4,1,19.7v41.7L237.8,769.4z"/>
			</g>
			<path fill="#798D4D" d="M262.1,728.1l6.1-15.2c0,0,0.8,12.4,1.7,14.6"/>
			<path fill="#798D4D" d="M240.8,733.7l0.6-16.3c0,0,5,11.3,6.5,13.1"/>
		</g>
		<g>
			<g>
				<path fill="#798D4D" d="M259,719.4c0.3-5.4,11-5.4,6.2-16c0-0.3,6.3,2.1,3.4,12.3c-2.1,6.2,6.4,6.2,6.4,6.2s12.4-17.9-5.2-29.1
					c0.3,0.7,16.7,3.8,10.9,24.1c0,0,0.7-13.1,15.1-12.4c-0.7-0.3-11.4,3.8-11.4,17.4c-0.3-0.2-1.7,41.6-1.7,41.6H275h-17"/>
				<path fill="#798D4D" d="M266.8,764.4H299l-0.1-42c0,0-5-3-9.1-13.7c-4.2-10.9,0.4-11.6,0.4-11.6s-10-1.5-4.8,18.5
					c0,4.5,0.8,2.9-2.5,4.8c-0.3-5.4-11-11.4-6.2-22.1c0-0.3-8.9,4.1-3.4,18.2c2.1,6.2-6.4,6.2-6.4,6.2s-7.8-22.2,7.7-26.5
					c-0.3,0.7-19.2,1.2-13.4,21.5c0,0,9.3-15.5-5.2-14.8c0.7-0.3,8.8,4.4,1,19.7v41.7L266.8,764.4z"/>
			</g>
			<path fill="#798D4D" d="M291.1,723.1l6.1-15.2c0,0,0.8,12.4,1.7,14.6"/>
			<path fill="#798D4D" d="M269.8,728.7l0.6-16.3c0,0,5,11.3,6.5,13.1"/>
		</g>
		<g>
			<g>
				<path fill="#798D4D" d="M299,727.4c0.3-5.4,11-5.4,6.2-16c0-0.3,6.3,2.1,3.4,12.3c-2.1,6.2,6.4,6.2,6.4,6.2s12.4-17.9-5.2-29.1
					c0.3,0.7,16.7,3.8,10.9,24.1c0,0,0.7-13.1,15.1-12.4c-0.7-0.3-11.4,3.8-11.4,17.4c-0.3-0.2-1.7,41.6-1.7,41.6H315h-17"/>
				<path fill="#798D4D" d="M306.8,772.4H339l-0.1-42c0,0-5-3-9.1-13.7c-4.2-10.9,0.4-11.6,0.4-11.6s-10-1.5-4.8,18.5
					c0,4.5,0.8,2.9-2.5,4.8c-0.3-5.4-11-11.4-6.2-22.1c0-0.3-8.9,4.1-3.4,18.2c2.1,6.2-6.4,6.2-6.4,6.2s-7.8-22.2,7.7-26.5
					c-0.3,0.7-19.2,1.2-13.4,21.5c0,0,9.3-15.5-5.2-14.8c0.7-0.3,8.8,4.4,1,19.7v41.7L306.8,772.4z"/>
			</g>
			<path fill="#798D4D" d="M331.1,731.1l6.1-15.2c0,0,0.8,12.4,1.7,14.6"/>
			<path fill="#798D4D" d="M309.8,736.7l0.6-16.3c0,0,5,11.3,6.5,13.1"/>
		</g>
		<g>
			<g>
				<path fill="#798D4D" d="M338,721.4c0.3-5.4,11-5.4,6.2-16c0-0.3,6.3,2.1,3.4,12.3c-2.1,6.2,6.4,6.2,6.4,6.2s12.4-17.9-5.2-29.1
					c0.3,0.7,16.7,3.8,10.9,24.1c0,0,0.7-13.1,15.1-12.4c-0.7-0.3-11.4,3.8-11.4,17.4c-0.3-0.2-1.7,41.6-1.7,41.6H354h-17"/>
				<path fill="#798D4D" d="M345.8,766.4H378l-0.1-42c0,0-5-3-9.1-13.7c-4.2-10.9,0.4-11.6,0.4-11.6s-10-1.5-4.8,18.5
					c0,4.5,0.8,2.9-2.5,4.8c-0.3-5.4-11-11.4-6.2-22.1c0-0.3-8.9,4.1-3.4,18.2c2.1,6.2-6.4,6.2-6.4,6.2s-7.8-22.2,7.7-26.5
					c-0.3,0.7-19.2,1.2-13.4,21.5c0,0,9.3-15.5-5.2-14.8c0.7-0.3,8.8,4.4,1,19.7v41.7L345.8,766.4z"/>
			</g>
			<path fill="#798D4D" d="M370.1,725.1l6.1-15.2c0,0,0.8,12.4,1.7,14.6"/>
			<path fill="#798D4D" d="M348.8,730.7l0.6-16.3c0,0,5,11.3,6.5,13.1"/>
		</g>
		<g>
			<g>
				<path fill="#798D4D" d="M374,724.4c0.3-5.4,11-5.4,6.2-16c0-0.3,6.3,2.1,3.4,12.3c-2.1,6.2,6.4,6.2,6.4,6.2s12.4-17.9-5.2-29.1
					c0.3,0.7,16.7,3.8,10.9,24.1c0,0,0.7-13.1,15.1-12.4c-0.7-0.3-11.4,3.8-11.4,17.4c-0.3-0.2-1.7,41.6-1.7,41.6H390h-17"/>
				<path fill="#798D4D" d="M381.8,769.4H414l-0.1-42c0,0-5-3-9.1-13.7c-4.2-10.9,0.4-11.6,0.4-11.6s-10-1.5-4.8,18.5
					c0,4.5,0.8,2.9-2.5,4.8c-0.3-5.4-11-11.4-6.2-22.1c0-0.3-8.9,4.1-3.4,18.2c2.1,6.2-6.4,6.2-6.4,6.2s-7.8-22.2,7.7-26.5
					c-0.3,0.7-19.2,1.2-13.4,21.5c0,0,9.3-15.5-5.2-14.8c0.7-0.3,8.8,4.4,1,19.7v41.7L381.8,769.4z"/>
			</g>
			<path fill="#798D4D" d="M406.1,728.1l6.1-15.2c0,0,0.8,12.4,1.7,14.6"/>
			<path fill="#798D4D" d="M384.8,733.7l0.6-16.3c0,0,5,11.3,6.5,13.1"/>
		</g>
		<g>
			<g>
				<path fill="#798D4D" d="M414,726.4c0.3-5.4,11-5.4,6.2-16c0-0.3,6.3,2.1,3.4,12.3c-2.1,6.2,6.4,6.2,6.4,6.2s12.4-17.9-5.2-29.1
					c0.3,0.7,16.7,3.8,10.9,24.1c0,0,0.7-13.1,15.1-12.4c-0.7-0.3-11.4,3.8-11.4,17.4c-0.3-0.2-1.7,41.6-1.7,41.6H430h-17"/>
				<path fill="#798D4D" d="M421.8,771.4H454l-0.1-42c0,0-5-3-9.1-13.7c-4.2-10.9,0.4-11.6,0.4-11.6s-10-1.5-4.8,18.5
					c0,4.5,0.8,2.9-2.5,4.8c-0.3-5.4-11-11.4-6.2-22.1c0-0.3-8.9,4.1-3.4,18.2c2.1,6.2-6.4,6.2-6.4,6.2s-7.8-22.2,7.7-26.5
					c-0.3,0.7-19.2,1.2-13.4,21.5c0,0,9.3-15.5-5.2-14.8c0.7-0.3,8.8,4.4,1,19.7v41.7L421.8,771.4z"/>
			</g>
			<path fill="#798D4D" d="M446.1,730.1l6.1-15.2c0,0,0.8,12.4,1.7,14.6"/>
			<path fill="#798D4D" d="M424.8,735.7l0.6-16.3c0,0,5,11.3,6.5,13.1"/>
		</g>
		<g>
			<g>
				<path fill="#798D4D" d="M443,721.4c0.3-5.4,11-5.4,6.2-16c0-0.3,6.3,2.1,3.4,12.3c-2.1,6.2,6.4,6.2,6.4,6.2s12.4-17.9-5.2-29.1
					c0.3,0.7,16.7,3.8,10.9,24.1c0,0,0.7-13.1,15.1-12.4c-0.7-0.3-11.4,3.8-11.4,17.4c-0.3-0.2-1.7,41.6-1.7,41.6H459h-17"/>
				<path fill="#798D4D" d="M450.8,766.4H483l-0.1-42c0,0-5-3-9.1-13.7c-4.2-10.9,0.4-11.6,0.4-11.6s-10-1.5-4.8,18.5
					c0,4.5,0.8,2.9-2.5,4.8c-0.3-5.4-11-11.4-6.2-22.1c0-0.3-8.9,4.1-3.4,18.2c2.1,6.2-6.4,6.2-6.4,6.2s-7.8-22.2,7.7-26.5
					c-0.3,0.7-19.2,1.2-13.4,21.5c0,0,9.3-15.5-5.2-14.8c0.7-0.3,8.8,4.4,1,19.7v41.7L450.8,766.4z"/>
			</g>
			<path fill="#798D4D" d="M475.1,725.1l6.1-15.2c0,0,0.8,12.4,1.7,14.6"/>
			<path fill="#798D4D" d="M453.8,730.7l0.6-16.3c0,0,5,11.3,6.5,13.1"/>
		</g>
		<g>
			<g>
				<path fill="#798D4D" d="M483,729.4c0.3-5.4,11-5.4,6.2-16c0-0.3,6.3,2.1,3.4,12.3c-2.1,6.2,6.4,6.2,6.4,6.2s12.4-17.9-5.2-29.1
					c0.3,0.7,16.7,3.8,10.9,24.1c0,0,0.7-13.1,15.1-12.4c-0.7-0.3-11.4,3.8-11.4,17.4c-0.3-0.2-1.7,41.6-1.7,41.6H499h-17"/>
				<path fill="#798D4D" d="M490.8,774.4H523l-0.1-42c0,0-5-3-9.1-13.7c-4.2-10.9,0.4-11.6,0.4-11.6s-10-1.5-4.8,18.5
					c0,4.5,0.8,2.9-2.5,4.8c-0.3-5.4-11-11.4-6.2-22.1c0-0.3-8.9,4.1-3.4,18.2c2.1,6.2-6.4,6.2-6.4,6.2s-7.8-22.2,7.7-26.5
					c-0.3,0.7-19.2,1.2-13.4,21.5c0,0,9.3-15.5-5.2-14.8c0.7-0.3,8.8,4.4,1,19.7v41.7L490.8,774.4z"/>
			</g>
			<path fill="#798D4D" d="M515.1,733.1l6.1-15.2c0,0,0.8,12.4,1.7,14.6"/>
			<path fill="#798D4D" d="M493.8,738.7l0.6-16.3c0,0,5,11.3,6.5,13.1"/>
		</g>
		<g>
			<g>
				<path fill="#798D4D" d="M522,723.4c0.3-5.4,11-5.4,6.2-16c0-0.3,6.3,2.1,3.4,12.3c-2.1,6.2,6.4,6.2,6.4,6.2s12.4-17.9-5.2-29.1
					c0.3,0.7,16.7,3.8,10.9,24.1c0,0,0.7-13.1,15.1-12.4c-0.7-0.3-11.4,3.8-11.4,17.4c-0.3-0.2-1.7,41.6-1.7,41.6H538h-17"/>
				<path fill="#798D4D" d="M529.8,768.4H562l-0.1-42c0,0-5-3-9.1-13.7c-4.2-10.9,0.4-11.6,0.4-11.6s-10-1.5-4.8,18.5
					c0,4.5,0.8,2.9-2.5,4.8c-0.3-5.4-11-11.4-6.2-22.1c0-0.3-8.9,4.1-3.4,18.2c2.1,6.2-6.4,6.2-6.4,6.2s-7.8-22.2,7.7-26.5
					c-0.3,0.7-19.2,1.2-13.4,21.5c0,0,9.3-15.5-5.2-14.8c0.7-0.3,8.8,4.4,1,19.7v41.7L529.8,768.4z"/>
			</g>
			<path fill="#798D4D" d="M554.1,727.1l6.1-15.2c0,0,0.8,12.4,1.7,14.6"/>
			<path fill="#798D4D" d="M532.8,732.7l0.6-16.3c0,0,5,11.3,6.5,13.1"/>
		</g>
	</g>
	<g>
		<g>
			<g>
				<path fill="#798D4D" d="M559,720.4c0.3-5.4,11-5.4,6.2-16c0-0.3,6.3,2.1,3.4,12.3c-2.1,6.2,6.4,6.2,6.4,6.2s12.4-17.9-5.2-29.1
					c0.3,0.7,16.7,3.8,10.9,24.1c0,0,0.7-13.1,15.1-12.4c-0.7-0.3-11.4,3.8-11.4,17.4c-0.3-0.2-1.7,41.6-1.7,41.6H575h-17"/>
				<path fill="#798D4D" d="M566.8,765.4H599l-0.1-42c0,0-5-3-9.1-13.7c-4.2-10.9,0.4-11.6,0.4-11.6s-10-1.5-4.8,18.5
					c0,4.5,0.8,2.9-2.5,4.8c-0.3-5.4-11-11.4-6.2-22.1c0-0.3-8.9,4.1-3.4,18.2c2.1,6.2-6.4,6.2-6.4,6.2s-7.8-22.2,7.7-26.5
					c-0.3,0.7-19.2,1.2-13.4,21.5c0,0,9.3-15.5-5.2-14.8c0.7-0.3,8.8,4.4,1,19.7v41.7L566.8,765.4z"/>
			</g>
			<path fill="#798D4D" d="M591.1,724.1l6.1-15.2c0,0,0.8,12.4,1.7,14.6"/>
			<path fill="#798D4D" d="M569.8,729.7l0.6-16.3c0,0,5,11.3,6.5,13.1"/>
		</g>
		<g>
			<g>
				<path fill="#798D4D" d="M599,722.4c0.3-5.4,11-5.4,6.2-16c0-0.3,6.3,2.1,3.4,12.3c-2.1,6.2,6.4,6.2,6.4,6.2s12.4-17.9-5.2-29.1
					c0.3,0.7,16.7,3.8,10.9,24.1c0,0,0.7-13.1,15.1-12.4c-0.7-0.3-11.4,3.8-11.4,17.4c-0.3-0.2-1.7,41.6-1.7,41.6H615h-17"/>
				<path fill="#798D4D" d="M606.8,767.4H639l-0.1-42c0,0-5-3-9.1-13.7c-4.2-10.9,0.4-11.6,0.4-11.6s-10-1.5-4.8,18.5
					c0,4.5,0.8,2.9-2.5,4.8c-0.3-5.4-11-11.4-6.2-22.1c0-0.3-8.9,4.1-3.4,18.2c2.1,6.2-6.4,6.2-6.4,6.2s-7.8-22.2,7.7-26.5
					c-0.3,0.7-19.2,1.2-13.4,21.5c0,0,9.3-15.5-5.2-14.8c0.7-0.3,8.8,4.4,1,19.7v41.7L606.8,767.4z"/>
			</g>
			<path fill="#798D4D" d="M631.1,726.1l6.1-15.2c0,0,0.8,12.4,1.7,14.6"/>
			<path fill="#798D4D" d="M609.8,731.7l0.6-16.3c0,0,5,11.3,6.5,13.1"/>
		</g>
		<g>
			<g>
				<path fill="#798D4D" d="M628,717.4c0.3-5.4,11-5.4,6.2-16c0-0.3,6.3,2.1,3.4,12.3c-2.1,6.2,6.4,6.2,6.4,6.2s12.4-17.9-5.2-29.1
					c0.3,0.7,16.7,3.8,10.9,24.1c0,0,0.7-13.1,15.1-12.4c-0.7-0.3-11.4,3.8-11.4,17.4c-0.3-0.2-1.7,41.6-1.7,41.6H644h-17"/>
				<path fill="#798D4D" d="M635.8,762.4H668l-0.1-42c0,0-5-3-9.1-13.7c-4.2-10.9,0.4-11.6,0.4-11.6s-10-1.5-4.8,18.5
					c0,4.5,0.8,2.9-2.5,4.8c-0.3-5.4-11-11.4-6.2-22.1c0-0.3-8.9,4.1-3.4,18.2c2.1,6.2-6.4,6.2-6.4,6.2s-7.8-22.2,7.7-26.5
					c-0.3,0.7-19.2,1.2-13.4,21.5c0,0,9.3-15.5-5.2-14.8c0.7-0.3,8.8,4.4,1,19.7v41.7L635.8,762.4z"/>
			</g>
			<path fill="#798D4D" d="M660.1,721.1l6.1-15.2c0,0,0.8,12.4,1.7,14.6"/>
			<path fill="#798D4D" d="M638.8,726.7l0.6-16.3c0,0,5,11.3,6.5,13.1"/>
		</g>
		<g>
			<g>
				<path fill="#798D4D" d="M668,725.4c0.3-5.4,11-5.4,6.2-16c0-0.3,6.3,2.1,3.4,12.3c-2.1,6.2,6.4,6.2,6.4,6.2s12.4-17.9-5.2-29.1
					c0.3,0.7,16.7,3.8,10.9,24.1c0,0,0.7-13.1,15.1-12.4c-0.7-0.3-11.4,3.8-11.4,17.4c-0.3-0.2-1.7,41.6-1.7,41.6H684h-17"/>
				<path fill="#798D4D" d="M675.8,770.4H708l-0.1-42c0,0-5-3-9.1-13.7c-4.2-10.9,0.4-11.6,0.4-11.6s-10-1.5-4.8,18.5
					c0,4.5,0.8,2.9-2.5,4.8c-0.3-5.4-11-11.4-6.2-22.1c0-0.3-8.9,4.1-3.4,18.2c2.1,6.2-6.4,6.2-6.4,6.2s-7.8-22.2,7.7-26.5
					c-0.3,0.7-19.2,1.2-13.4,21.5c0,0,9.3-15.5-5.2-14.8c0.7-0.3,8.8,4.4,1,19.7v41.7L675.8,770.4z"/>
			</g>
			<path fill="#798D4D" d="M700.1,729.1l6.1-15.2c0,0,0.8,12.4,1.7,14.6"/>
			<path fill="#798D4D" d="M678.8,734.7l0.6-16.3c0,0,5,11.3,6.5,13.1"/>
		</g>
		<g>
			<g>
				<path fill="#798D4D" d="M707,719.4c0.3-5.4,11-5.4,6.2-16c0-0.3,6.3,2.1,3.4,12.3c-2.1,6.2,6.4,6.2,6.4,6.2s12.4-17.9-5.2-29.1
					c0.3,0.7,16.7,3.8,10.9,24.1c0,0,0.7-13.1,15.1-12.4c-0.7-0.3-11.4,3.8-11.4,17.4c-0.3-0.2-1.7,41.6-1.7,41.6H723h-17"/>
				<path fill="#798D4D" d="M714.8,764.4H747l-0.1-42c0,0-5-3-9.1-13.7c-4.2-10.9,0.4-11.6,0.4-11.6s-10-1.5-4.8,18.5
					c0,4.5,0.8,2.9-2.5,4.8c-0.3-5.4-11-11.4-6.2-22.1c0-0.3-8.9,4.1-3.4,18.2c2.1,6.2-6.4,6.2-6.4,6.2s-7.8-22.2,7.7-26.5
					c-0.3,0.7-19.2,1.2-13.4,21.5c0,0,9.3-15.5-5.2-14.8c0.7-0.3,8.8,4.4,1,19.7v41.7L714.8,764.4z"/>
			</g>
			<path fill="#798D4D" d="M739.1,723.1l6.1-15.2c0,0,0.8,12.4,1.7,14.6"/>
			<path fill="#798D4D" d="M717.8,728.7l0.6-16.3c0,0,5,11.3,6.5,13.1"/>
		</g>
		<g>
			<g>
				<path fill="#798D4D" d="M747,722.4c0.3-5.4,11-5.4,6.2-16c0-0.3,6.3,2.1,3.4,12.3c-2.1,6.2,6.4,6.2,6.4,6.2s12.4-17.9-5.2-29.1
					c0.3,0.7,16.7,3.8,10.9,24.1c0,0,0.7-13.1,15.1-12.4c-0.7-0.3-11.4,3.8-11.4,17.4c-0.3-0.2-1.7,41.6-1.7,41.6H763h-17"/>
				<path fill="#798D4D" d="M754.8,767.4H787l-0.1-42c0,0-5-3-9.1-13.7c-4.2-10.9,0.4-11.6,0.4-11.6s-10-1.5-4.8,18.5
					c0,4.5,0.8,2.9-2.5,4.8c-0.3-5.4-11-11.4-6.2-22.1c0-0.3-8.9,4.1-3.4,18.2c2.1,6.2-6.4,6.2-6.4,6.2s-7.8-22.2,7.7-26.5
					c-0.3,0.7-19.2,1.2-13.4,21.5c0,0,9.3-15.5-5.2-14.8c0.7-0.3,8.8,4.4,1,19.7v41.7L754.8,767.4z"/>
			</g>
			<path fill="#798D4D" d="M779.1,726.1l6.1-15.2c0,0,0.8,12.4,1.7,14.6"/>
			<path fill="#798D4D" d="M757.8,731.7l0.6-16.3c0,0,5,11.3,6.5,13.1"/>
		</g>
		<g>
			<g>
				<path fill="#798D4D" d="M787,724.4c0.3-5.4,11-5.4,6.2-16c0-0.3,6.3,2.1,3.4,12.3c-2.1,6.2,6.4,6.2,6.4,6.2s12.4-17.9-5.2-29.1
					c0.3,0.7,16.7,3.8,10.9,24.1c0,0,0.7-13.1,15.1-12.4c-0.7-0.3-11.4,3.8-11.4,17.4c-0.3-0.2-1.7,41.6-1.7,41.6H803h-17"/>
				<path fill="#798D4D" d="M794.8,769.4H827l-0.1-42c0,0-5-3-9.1-13.7c-4.2-10.9,0.4-11.6,0.4-11.6s-10-1.5-4.8,18.5
					c0,4.5,0.8,2.9-2.5,4.8c-0.3-5.4-11-11.4-6.2-22.1c0-0.3-8.9,4.1-3.4,18.2c2.1,6.2-6.4,6.2-6.4,6.2s-7.8-22.2,7.7-26.5
					c-0.3,0.7-19.2,1.2-13.4,21.5c0,0,9.3-15.5-5.2-14.8c0.7-0.3,8.8,4.4,1,19.7v41.7L794.8,769.4z"/>
			</g>
			<path fill="#798D4D" d="M819.1,728.1l6.1-15.2c0,0,0.8,12.4,1.7,14.6"/>
			<path fill="#798D4D" d="M797.8,733.7l0.6-16.3c0,0,5,11.3,6.5,13.1"/>
		</g>
		<g>
			<g>
				<path fill="#798D4D" d="M816,719.4c0.3-5.4,11-5.4,6.2-16c0-0.3,6.3,2.1,3.4,12.3c-2.1,6.2,6.4,6.2,6.4,6.2s12.4-17.9-5.2-29.1
					c0.3,0.7,16.7,3.8,10.9,24.1c0,0,0.7-13.1,15.1-12.4c-0.7-0.3-11.4,3.8-11.4,17.4c-0.3-0.2-1.7,41.6-1.7,41.6H832h-17"/>
				<path fill="#798D4D" d="M823.8,764.4H856l-0.1-42c0,0-5-3-9.1-13.7c-4.2-10.9,0.4-11.6,0.4-11.6s-10-1.5-4.8,18.5
					c0,4.5,0.8,2.9-2.5,4.8c-0.3-5.4-11-11.4-6.2-22.1c0-0.3-8.9,4.1-3.4,18.2c2.1,6.2-6.4,6.2-6.4,6.2s-7.8-22.2,7.7-26.5
					c-0.3,0.7-19.2,1.2-13.4,21.5c0,0,9.3-15.5-5.2-14.8c0.7-0.3,8.8,4.4,1,19.7v41.7L823.8,764.4z"/>
			</g>
			<path fill="#798D4D" d="M848.1,723.1l6.1-15.2c0,0,0.8,12.4,1.7,14.6"/>
			<path fill="#798D4D" d="M826.8,728.7l0.6-16.3c0,0,5,11.3,6.5,13.1"/>
		</g>
		<g>
			<g>
				<path fill="#798D4D" d="M856,727.4c0.3-5.4,11-5.4,6.2-16c0-0.3,6.3,2.1,3.4,12.3c-2.1,6.2,6.4,6.2,6.4,6.2s12.4-17.9-5.2-29.1
					c0.3,0.7,16.7,3.8,10.9,24.1c0,0,0.7-13.1,15.1-12.4c-0.7-0.3-11.4,3.8-11.4,17.4c-0.3-0.2-1.7,41.6-1.7,41.6H872h-17"/>
				<path fill="#798D4D" d="M863.8,772.4H896l-0.1-42c0,0-5-3-9.1-13.7c-4.2-10.9,0.4-11.6,0.4-11.6s-10-1.5-4.8,18.5
					c0,4.5,0.8,2.9-2.5,4.8c-0.3-5.4-11-11.4-6.2-22.1c0-0.3-8.9,4.1-3.4,18.2c2.1,6.2-6.4,6.2-6.4,6.2s-7.8-22.2,7.7-26.5
					c-0.3,0.7-19.2,1.2-13.4,21.5c0,0,9.3-15.5-5.2-14.8c0.7-0.3,8.8,4.4,1,19.7v41.7L863.8,772.4z"/>
			</g>
			<path fill="#798D4D" d="M888.1,731.1l6.1-15.2c0,0,0.8,12.4,1.7,14.6"/>
			<path fill="#798D4D" d="M866.8,736.7l0.6-16.3c0,0,5,11.3,6.5,13.1"/>
		</g>
		<g>
			<g>
				<path fill="#798D4D" d="M895,721.4c0.3-5.4,11-5.4,6.2-16c0-0.3,6.3,2.1,3.4,12.3c-2.1,6.2,6.4,6.2,6.4,6.2s12.4-17.9-5.2-29.1
					c0.3,0.7,16.7,3.8,10.9,24.1c0,0,0.7-13.1,15.1-12.4c-0.7-0.3-11.4,3.8-11.4,17.4c-0.3-0.2-1.7,41.6-1.7,41.6H911h-17"/>
				<path fill="#798D4D" d="M902.8,766.4H935l-0.1-42c0,0-5-3-9.1-13.7c-4.2-10.9,0.4-11.6,0.4-11.6s-10-1.5-4.8,18.5
					c0,4.5,0.8,2.9-2.5,4.8c-0.3-5.4-11-11.4-6.2-22.1c0-0.3-8.9,4.1-3.4,18.2c2.1,6.2-6.4,6.2-6.4,6.2s-7.8-22.2,7.7-26.5
					c-0.3,0.7-19.2,1.2-13.4,21.5c0,0,9.3-15.5-5.2-14.8c0.7-0.3,8.8,4.4,1,19.7v41.7L902.8,766.4z"/>
			</g>
			<path fill="#798D4D" d="M927.1,725.1l6.1-15.2c0,0,0.8,12.4,1.7,14.6"/>
			<path fill="#798D4D" d="M905.8,730.7l0.6-16.3c0,0,5,11.3,6.5,13.1"/>
		</g>
		<g>
			<g>
				<path fill="#798D4D" d="M931,724.4c0.3-5.4,11-5.4,6.2-16c0-0.3,6.3,2.1,3.4,12.3c-2.1,6.2,6.4,6.2,6.4,6.2s12.4-17.9-5.2-29.1
					c0.3,0.7,16.7,3.8,10.9,24.1c0,0,0.7-13.1,15.1-12.4c-0.7-0.3-11.4,3.8-11.4,17.4c-0.3-0.2-1.7,41.6-1.7,41.6H947h-17"/>
				<path fill="#798D4D" d="M938.8,769.4H971l-0.1-42c0,0-5-3-9.1-13.7c-4.2-10.9,0.4-11.6,0.4-11.6s-10-1.5-4.8,18.5
					c0,4.5,0.8,2.9-2.5,4.8c-0.3-5.4-11-11.4-6.2-22.1c0-0.3-8.9,4.1-3.4,18.2c2.1,6.2-6.4,6.2-6.4,6.2s-7.8-22.2,7.7-26.5
					c-0.3,0.7-19.2,1.2-13.4,21.5c0,0,9.3-15.5-5.2-14.8c0.7-0.3,8.8,4.4,1,19.7v41.7L938.8,769.4z"/>
			</g>
			<path fill="#798D4D" d="M963.1,728.1l6.1-15.2c0,0,0.8,12.4,1.7,14.6"/>
			<path fill="#798D4D" d="M941.8,733.7l0.6-16.3c0,0,5,11.3,6.5,13.1"/>
		</g>
		<g>
			<g>
				<path fill="#798D4D" d="M971,726.4c0.3-5.4,11-5.4,6.2-16c0-0.3,6.3,2.1,3.4,12.3c-2.1,6.2,6.4,6.2,6.4,6.2s12.4-17.9-5.2-29.1
					c0.3,0.7,16.7,3.8,10.9,24.1c0,0,0.7-13.1,15.1-12.4c-0.7-0.3-11.4,3.8-11.4,17.4c-0.3-0.2-1.7,41.6-1.7,41.6H987h-17"/>
				<path fill="#798D4D" d="M978.8,771.4h32.2l-0.1-42c0,0-5-3-9.1-13.7c-4.2-10.9,0.4-11.6,0.4-11.6s-10-1.5-4.8,18.5
					c0,4.5,0.8,2.9-2.5,4.8c-0.3-5.4-11-11.4-6.2-22.1c0-0.3-8.9,4.1-3.4,18.2c2.1,6.2-6.4,6.2-6.4,6.2s-7.8-22.2,7.7-26.5
					c-0.3,0.7-19.2,1.2-13.4,21.5c0,0,9.3-15.5-5.2-14.8c0.7-0.3,8.8,4.4,1,19.7v41.7L978.8,771.4z"/>
			</g>
			<path fill="#798D4D" d="M1003.1,730.1l6.1-15.2c0,0,0.8,12.4,1.7,14.6"/>
			<path fill="#798D4D" d="M981.8,735.7l0.6-16.3c0,0,5,11.3,6.5,13.1"/>
		</g>
		<g>
			<g>
				<path fill="#798D4D" d="M1000,721.4c0.3-5.4,11-5.4,6.2-16c0-0.3,6.3,2.1,3.4,12.3c-2.1,6.2,6.4,6.2,6.4,6.2s12.4-17.9-5.2-29.1
					c0.3,0.7,16.7,3.8,10.9,24.1c0,0,0.7-13.1,15.1-12.4c-0.7-0.3-11.4,3.8-11.4,17.4c-0.3-0.2-1.7,41.6-1.7,41.6h-7.7h-17"/>
				<path fill="#798D4D" d="M1007.8,766.4h32.2l-0.1-42c0,0-5-3-9.1-13.7c-4.2-10.9,0.4-11.6,0.4-11.6s-10-1.5-4.8,18.5
					c0,4.5,0.8,2.9-2.5,4.8c-0.3-5.4-11-11.4-6.2-22.1c0-0.3-8.9,4.1-3.4,18.2c2.1,6.2-6.4,6.2-6.4,6.2s-7.8-22.2,7.7-26.5
					c-0.3,0.7-19.2,1.2-13.4,21.5c0,0,9.3-15.5-5.2-14.8c0.7-0.3,8.8,4.4,1,19.7v41.7L1007.8,766.4z"/>
			</g>
			<path fill="#798D4D" d="M1032.1,725.1l6.1-15.2c0,0,0.8,12.4,1.7,14.6"/>
			<path fill="#798D4D" d="M1010.8,730.7l0.6-16.3c0,0,5,11.3,6.5,13.1"/>
		</g>
		<g>
			<g>
				<path fill="#798D4D" d="M1040,729.4c0.3-5.4,11-5.4,6.2-16c0-0.3,6.3,2.1,3.4,12.3c-2.1,6.2,6.4,6.2,6.4,6.2s12.4-17.9-5.2-29.1
					c0.3,0.7,16.7,3.8,10.9,24.1c0,0,0.7-13.1,15.1-12.4c-0.7-0.3-11.4,3.8-11.4,17.4c-0.3-0.2-1.7,41.6-1.7,41.6h-7.7h-17"/>
				<path fill="#798D4D" d="M1047.8,774.4h32.2l-0.1-42c0,0-5-3-9.1-13.7c-4.2-10.9,0.4-11.6,0.4-11.6s-10-1.5-4.8,18.5
					c0,4.5,0.8,2.9-2.5,4.8c-0.3-5.4-11-11.4-6.2-22.1c0-0.3-8.9,4.1-3.4,18.2c2.1,6.2-6.4,6.2-6.4,6.2s-7.8-22.2,7.7-26.5
					c-0.3,0.7-19.2,1.2-13.4,21.5c0,0,9.3-15.5-5.2-14.8c0.7-0.3,8.8,4.4,1,19.7v41.7L1047.8,774.4z"/>
			</g>
			<path fill="#798D4D" d="M1072.1,733.1l6.1-15.2c0,0,0.8,12.4,1.7,14.6"/>
			<path fill="#798D4D" d="M1050.8,738.7l0.6-16.3c0,0,5,11.3,6.5,13.1"/>
		</g>
		<g>
			<g>
				<path fill="#798D4D" d="M1079,723.4c0.3-5.4,11-5.4,6.2-16c0-0.3,6.3,2.1,3.4,12.3c-2.1,6.2,6.4,6.2,6.4,6.2s12.4-17.9-5.2-29.1
					c0.3,0.7,16.7,3.8,10.9,24.1c0,0,0.7-13.1,15.1-12.4c-0.7-0.3-11.4,3.8-11.4,17.4c-0.3-0.2-1.7,41.6-1.7,41.6h-7.7h-17"/>
				<path fill="#798D4D" d="M1086.8,768.4h32.2l-0.1-42c0,0-5-3-9.1-13.7c-4.2-10.9,0.4-11.6,0.4-11.6s-10-1.5-4.8,18.5
					c0,4.5,0.8,2.9-2.5,4.8c-0.3-5.4-11-11.4-6.2-22.1c0-0.3-8.9,4.1-3.4,18.2c2.1,6.2-6.4,6.2-6.4,6.2s-7.8-22.2,7.7-26.5
					c-0.3,0.7-19.2,1.2-13.4,21.5c0,0,9.3-15.5-5.2-14.8c0.7-0.3,8.8,4.4,1,19.7v41.7L1086.8,768.4z"/>
			</g>
			<path fill="#798D4D" d="M1111.1,727.1l6.1-15.2c0,0,0.8,12.4,1.7,14.6"/>
			<path fill="#798D4D" d="M1089.8,732.7l0.6-16.3c0,0,5,11.3,6.5,13.1"/>
		</g>
	</g>
</g>
<g>
	<g>
		<g>
			<g>
				<path fill="#798D4D" d="M744,716.4c0.3-5.4,11-5.4,6.2-16c0-0.3,6.4,2.1,3.5,12.3c-2.1,6.2,6.4,6.2,6.4,6.2s12.4-17.9-5.2-29.1
					c0.3,0.7,16.8,3.8,10.9,24.1c0,0,0.7-13.1,15.2-12.4c-0.7-0.3-11.4,3.8-11.4,17.4c-0.3-0.2-1.7,41.6-1.7,41.6h-7.8H743"/>
				<path fill="#798D4D" d="M751.8,761.4h32.3l-0.1-42c0,0-5-3-9.1-13.7c-4.2-10.9,0.4-11.6,0.4-11.6s-10-1.5-4.9,18.5
					c0,4.5,0.8,2.9-2.5,4.8c-0.3-5.4-11-11.4-6.2-22.1c0-0.3-8.9,4.1-3.5,18.2c2.1,6.2-6.4,6.2-6.4,6.2s-7.8-22.2,7.7-26.5
					c-0.3,0.7-19.3,1.2-13.4,21.5c0,0,9.3-15.5-5.2-14.8c0.7-0.3,9,4.4,1,19.7v41.7L751.8,761.4z"/>
			</g>
			<path fill="#798D4D" d="M776.2,720.1l6.1-15.2c0,0,0.8,12.4,1.7,14.6"/>
			<path fill="#798D4D" d="M754.9,725.7l0.6-16.3c0,0,5,11.3,6.5,13.1"/>
		</g>
		<g>
			<g>
				<path fill="#798D4D" d="M784,718.4c0.3-5.4,11.1-5.4,6.2-16c0-0.3,6.4,2.1,3.5,12.3c-2.1,6.2,6.4,6.2,6.4,6.2
					s12.4-17.9-5.2-29.1c0.3,0.7,16.8,3.8,10.9,24.1c0,0,0.7-13.1,15.2-12.4c-0.7-0.3-11.4,3.8-11.4,17.4
					c-0.3-0.2-1.7,41.6-1.7,41.6h-7.8H783"/>
				<path fill="#798D4D" d="M792,763.4h32.3l-0.1-42c0,0-5-3-9.1-13.7c-4.2-10.9,0.4-11.6,0.4-11.6s-10-1.5-4.9,18.5
					c0,4.5,0.8,2.9-2.5,4.8c-0.3-5.4-11-11.4-6.2-22.1c0-0.3-8.9,4.1-3.5,18.2c2.1,6.2-6.4,6.2-6.4,6.2s-7.8-22.2,7.7-26.5
					c-0.3,0.7-19.3,1.2-13.4,21.5c0,0,9.2-15.5-5.3-14.8c0.7-0.3,9,4.4,1,19.7v41.7L792,763.4z"/>
			</g>
			<path fill="#798D4D" d="M816.3,722.1l6.1-15.2c0,0,0.8,12.4,1.7,14.6"/>
			<path fill="#798D4D" d="M795,727.7l0.6-16.3c0,0,5,11.3,6.5,13.1"/>
		</g>
		<g>
			<g>
				<path fill="#798D4D" d="M813.1,713.4c0.3-5.4,11.1-5.4,6.2-16c0-0.3,6.4,2.1,3.5,12.3c-2.1,6.2,6.4,6.2,6.4,6.2
					s12.4-17.9-5.2-29.1c0.3,0.7,16.8,3.8,10.9,24.1c0,0,0.7-13.1,15.2-12.4c-0.7-0.3-11.4,3.8-11.4,17.4
					c-0.3-0.2-1.7,41.6-1.7,41.6h-7.8H812"/>
				<path fill="#798D4D" d="M821.1,758.4h32.3l-0.1-42c0,0-5-3-9.1-13.7c-4.2-10.9,0.4-11.6,0.4-11.6s-10-1.5-4.9,18.5
					c0,4.5,0.8,2.9-2.5,4.8c-0.3-5.4-11-11.4-6.2-22.1c0-0.3-8.9,4.1-3.5,18.2c2.1,6.2-6.4,6.2-6.4,6.2s-7.8-22.2,7.7-26.5
					c-0.3,0.7-19.3,1.2-13.4,21.5c0,0,9.2-15.5-5.3-14.8c0.7-0.3,8.9,4.4,0.9,19.7v41.7L821.1,758.4z"/>
			</g>
			<path fill="#798D4D" d="M845.4,717.1l6.1-15.2c0,0,0.8,12.4,1.7,14.6"/>
			<path fill="#798D4D" d="M824.1,722.7l0.6-16.3c0,0,5,11.3,6.5,13.1"/>
		</g>
		<g>
			<g>
				<path fill="#798D4D" d="M853.2,721.4c0.3-5.4,11.1-5.4,6.3-16c0-0.3,6.4,2.1,3.5,12.3c-2.1,6.2,6.4,6.2,6.4,6.2
					s12.4-17.9-5.2-29.1c0.3,0.7,16.8,3.8,10.9,24.1c0,0,0.7-13.1,15.2-12.4c-0.7-0.3-11.4,3.8-11.4,17.4
					c-0.3-0.2-1.7,41.6-1.7,41.6h-7.8H852"/>
				<path fill="#798D4D" d="M861.2,766.4h32.3l-0.1-42c0,0-5-3-9.1-13.7c-4.2-10.9,0.4-11.6,0.4-11.6s-10-1.5-4.9,18.5
					c0,4.5,0.8,2.9-2.5,4.8c-0.3-5.4-11-11.4-6.2-22.1c0-0.3-8.9,4.1-3.5,18.2c2.1,6.2-6.4,6.2-6.4,6.2s-7.8-22.2,7.7-26.5
					c-0.3,0.7-19.3,1.2-13.4,21.5c0,0,9.1-15.5-5.4-14.8c0.7-0.3,8.9,4.4,0.9,19.7v41.7L861.2,766.4z"/>
			</g>
			<path fill="#798D4D" d="M885.6,725.1l6.1-15.2c0,0,0.8,12.4,1.7,14.6"/>
			<path fill="#798D4D" d="M864.2,730.7l0.6-16.3c0,0,5,11.3,6.5,13.1"/>
		</g>
		<g>
			<g>
				<path fill="#798D4D" d="M892.2,715.4c0.3-5.4,11.1-5.4,6.3-16c0-0.3,6.4,2.1,3.5,12.3c-2.1,6.2,6.4,6.2,6.4,6.2
					s12.4-17.9-5.2-29.1c0.3,0.7,16.8,3.8,10.9,24.1c0,0,0.7-13.1,15.2-12.4c-0.7-0.3-11.4,3.8-11.4,17.4
					c-0.3-0.2-1.7,41.6-1.7,41.6h-7.8H891"/>
				<path fill="#798D4D" d="M900.3,760.4h32.3l-0.1-42c0,0-5-3-9.1-13.7c-4.2-10.9,0.4-11.6,0.4-11.6s-10-1.5-4.9,18.5
					c0,4.5,0.8,2.9-2.5,4.8c-0.3-5.4-11-11.4-6.2-22.1c0-0.3-8.9,4.1-3.5,18.2c2.1,6.2-6.4,6.2-6.4,6.2s-7.8-22.2,7.7-26.5
					c-0.3,0.7-19.3,1.2-13.4,21.5c0,0,9.1-15.5-5.4-14.8c0.7-0.3,8.8,4.4,0.8,19.7v41.7L900.3,760.4z"/>
			</g>
			<path fill="#798D4D" d="M924.7,719.1l6.1-15.2c0,0,0.8,12.4,1.7,14.6"/>
			<path fill="#798D4D" d="M903.3,724.7l0.6-16.3c0,0,5,11.3,6.5,13.1"/>
		</g>
		<g>
			<g>
				<path fill="#798D4D" d="M932.8,718.4c0.3-5.4,10.9-5.4,6.1-16c0-0.3,6.3,2.1,3.4,12.3c-2.1,6.2,6.4,6.2,6.4,6.2
					s12.4-17.9-5.2-29.1c0.3,0.7,16.8,3.8,10.9,24.1c0,0,0.7-13.1,15.2-12.4c-0.7-0.3-11.4,3.8-11.4,17.4
					c-0.3-0.2-1.7,41.6-1.7,41.6h-7.8H932"/>
				<path fill="#798D4D" d="M940.4,763.4h32.3l-0.1-42c0,0-5-3-9.1-13.7c-4.2-10.9,0.4-11.6,0.4-11.6s-10-1.5-4.9,18.5
					c0,4.5,0.8,2.9-2.5,4.8c-0.3-5.4-11-11.4-6.2-22.1c0-0.3-8.9,4.1-3.5,18.2c2.1,6.2-6.4,6.2-6.4,6.2s-7.8-22.2,7.7-26.5
					c-0.3,0.7-19.3,1.2-13.4,21.5c0,0,9.5-15.5-5-14.8c0.7-0.3,8.2,4.4,1.2,19.7v41.7L940.4,763.4z"/>
			</g>
			<path fill="#798D4D" d="M964.8,722.1l6.1-15.2c0,0,0.8,12.4,1.7,14.6"/>
			<path fill="#798D4D" d="M943.4,727.7l0.6-16.3c0,0,5,11.3,6.5,13.1"/>
		</g>
		<g>
			<g>
				<path fill="#798D4D" d="M972.8,720.4c0.3-5.4,11-5.4,6.1-16c0-0.3,6.3,2.1,3.4,12.3c-2.1,6.2,6.4,6.2,6.4,6.2
					s12.4-17.9-5.2-29.1c0.3,0.7,16.8,3.8,10.9,24.1c0,0,0.7-13.1,15.2-12.4c-0.7-0.3-11.4,3.8-11.4,17.4
					c-0.3-0.2-1.7,41.6-1.7,41.6h-7.8H972"/>
				<path fill="#798D4D" d="M980.5,765.4h32.3l-0.1-42c0,0-5-3-9.1-13.7c-4.2-10.9,0.4-11.6,0.4-11.6s-10-1.5-4.9,18.5
					c0,4.5,0.8,2.9-2.5,4.8c-0.3-5.4-11-11.4-6.2-22.1c0-0.3-8.9,4.1-3.5,18.2c2.1,6.2-6.4,6.2-6.4,6.2s-7.8-22.2,7.7-26.5
					c-0.3,0.7-19.3,1.2-13.4,21.5c0,0,9.5-15.5-5-14.8c0.7-0.3,8.2,4.4,1.2,19.7v41.7L980.5,765.4z"/>
			</g>
			<path fill="#798D4D" d="M1004.9,724.1l6.1-15.2c0,0,0.8,12.4,1.7,14.6"/>
			<path fill="#798D4D" d="M983.6,729.7l0.6-16.3c0,0,5,11.3,6.5,13.1"/>
		</g>
		<g>
			<g>
				<path fill="#798D4D" d="M1001.9,715.4c0.3-5.4,11-5.4,6.1-16c0-0.3,6.3,2.1,3.4,12.3c-2.1,6.2,6.4,6.2,6.4,6.2
					s12.4-17.9-5.2-29.1c0.3,0.7,16.8,3.8,10.9,24.1c0,0,0.7-13.1,15.2-12.4c-0.7-0.3-11.4,3.8-11.4,17.4
					c-0.3-0.2-1.7,41.6-1.7,41.6h-7.8H1001"/>
				<path fill="#798D4D" d="M1009.6,760.4h32.3l-0.1-42c0,0-5-3-9.1-13.7c-4.2-10.9,0.4-11.6,0.4-11.6s-10-1.5-4.9,18.5
					c0,4.5,0.8,2.9-2.5,4.8c-0.3-5.4-11-11.4-6.2-22.1c0-0.3-8.9,4.1-3.5,18.2c2.1,6.2-6.4,6.2-6.4,6.2s-7.8-22.2,7.7-26.5
					c-0.3,0.7-19.3,1.2-13.4,21.5c0,0,9.4-15.5-5.1-14.8c0.7-0.3,9.1,4.4,1.1,19.7v41.7L1009.6,760.4z"/>
			</g>
			<path fill="#798D4D" d="M1034,719.1l6.1-15.2c0,0,0.8,12.4,1.7,14.6"/>
			<path fill="#798D4D" d="M1012.6,724.7l0.6-16.3c0,0,5,11.3,6.5,13.1"/>
		</g>
		<g>
			<g>
				<path fill="#798D4D" d="M1041.9,723.4c0.3-5.4,11-5.4,6.2-16c0-0.3,6.4,2.1,3.4,12.3c-2.1,6.2,6.4,6.2,6.4,6.2
					s12.4-17.9-5.2-29.1c0.3,0.7,16.8,3.8,10.9,24.1c0,0,0.7-13.1,15.2-12.4c-0.7-0.3-11.4,3.8-11.4,17.4
					c-0.3-0.2-1.7,41.6-1.7,41.6h-7.8h-17"/>
				<path fill="#798D4D" d="M1049.8,768.4h32.3l-0.1-42c0,0-5-3-9.1-13.7c-4.2-10.9,0.4-11.6,0.4-11.6s-10-1.5-4.9,18.5
					c0,4.5,0.8,2.9-2.5,4.8c-0.3-5.4-11-11.4-6.2-22.1c0-0.3-8.9,4.1-3.5,18.2c2.1,6.2-6.4,6.2-6.4,6.2s-7.8-22.2,7.7-26.5
					c-0.3,0.7-19.3,1.2-13.4,21.5c0,0,9.3-15.5-5.2-14.8c0.7-0.3,9.1,4.4,1.1,19.7v41.7L1049.8,768.4z"/>
			</g>
			<path fill="#798D4D" d="M1074.1,727.1l6.1-15.2c0,0,0.8,12.4,1.7,14.6"/>
			<path fill="#798D4D" d="M1052.8,732.7l0.6-16.3c0,0,5,11.3,6.5,13.1"/>
		</g>
		<g>
			<g>
				<path fill="#798D4D" d="M1081,717.4c0.3-5.4,11-5.4,6.2-16c0-0.3,6.4,2.1,3.5,12.3c-2.1,6.2,6.4,6.2,6.4,6.2s12.4-17.9-5.2-29.1
					c0.3,0.7,16.8,3.8,10.9,24.1c0,0,0.7-13.1,15.2-12.4c-0.7-0.3-11.4,3.8-11.4,17.4c-0.3-0.2-1.7,41.6-1.7,41.6h-7.8H1080"/>
				<path fill="#798D4D" d="M1088.9,762.4h32.3l-0.1-42c0,0-5-3-9.1-13.7c-4.2-10.9,0.4-11.6,0.4-11.6s-10-1.5-4.9,18.5
					c0,4.5,0.8,2.9-2.5,4.8c-0.3-5.4-11-11.4-6.2-22.1c0-0.3-8.9,4.1-3.5,18.2c2.1,6.2-6.4,6.2-6.4,6.2s-7.8-22.2,7.7-26.5
					c-0.3,0.7-19.3,1.2-13.4,21.5c0,0,9.3-15.5-5.2-14.8c0.7-0.3,9,4.4,1,19.7v41.7L1088.9,762.4z"/>
			</g>
			<path fill="#798D4D" d="M1113.3,721.1l6.1-15.2c0,0,0.8,12.4,1.7,14.6"/>
			<path fill="#798D4D" d="M1091.9,726.7l0.6-16.3c0,0,5,11.3,6.5,13.1"/>
		</g>
		<g>
			<g>
				<path fill="#798D4D" d="M1117.1,720.4c0.3-5.4,11.1-5.4,6.2-16c0-0.3,6.4,2.1,3.5,12.3c-2.1,6.2,6.4,6.2,6.4,6.2
					s12.4-17.9-5.2-29.1c0.3,0.7,16.8,3.8,10.9,24.1c0,0,0.7-13.1,15.2-12.4c-0.7-0.3-11.4,3.8-11.4,17.4
					c-0.3-0.2-1.7,41.6-1.7,41.6h-7.8H1116"/>
				<path fill="#798D4D" d="M1125,765.4h32.3l-0.1-42c0,0-5-3-9.1-13.7c-4.2-10.9,0.4-11.6,0.4-11.6s-10-1.5-4.9,18.5
					c0,4.5,0.8,2.9-2.5,4.8c-0.3-5.4-11-11.4-6.2-22.1c0-0.3-8.9,4.1-3.5,18.2c2.1,6.2-6.4,6.2-6.4,6.2s-7.8-22.2,7.7-26.5
					c-0.3,0.7-19.3,1.2-13.4,21.5c0,0,9.2-15.5-5.3-14.8c0.7-0.3,9,4.4,1,19.7v41.7L1125,765.4z"/>
			</g>
			<path fill="#798D4D" d="M1149.4,724.1l6.1-15.2c0,0,0.8,12.4,1.7,14.6"/>
			<path fill="#798D4D" d="M1128,729.7l0.6-16.3c0,0,5,11.3,6.5,13.1"/>
		</g>
		<g>
			<g>
				<path fill="#798D4D" d="M1157.1,722.4c0.3-5.4,11.1-5.4,6.3-16c0-0.3,6.4,2.1,3.5,12.3c-2.1,6.2,6.4,6.2,6.4,6.2
					s12.4-17.9-5.2-29.1c0.3,0.7,16.8,3.8,10.9,24.1c0,0,0.7-13.1,15.2-12.4c-0.7-0.3-11.4,3.8-11.4,17.4
					c-0.3-0.2-1.7,41.6-1.7,41.6h-7.8H1156"/>
				<path fill="#798D4D" d="M1165.1,767.4h32.3l-0.1-42c0,0-5-3-9.1-13.7c-4.2-10.9,0.4-11.6,0.4-11.6s-10-1.5-4.9,18.5
					c0,4.5,0.8,2.9-2.5,4.8c-0.3-5.4-11-11.4-6.2-22.1c0-0.3-8.9,4.1-3.5,18.2c2.1,6.2-6.4,6.2-6.4,6.2s-7.8-22.2,7.7-26.5
					c-0.3,0.7-19.3,1.2-13.4,21.5c0,0,9.2-15.5-5.3-14.8c0.7-0.3,8.9,4.4,0.9,19.7v41.7L1165.1,767.4z"/>
			</g>
			<path fill="#798D4D" d="M1189.5,726.1l6.1-15.2c0,0,0.8,12.4,1.7,14.6"/>
			<path fill="#798D4D" d="M1168.1,731.7l0.6-16.3c0,0,5,11.3,6.5,13.1"/>
		</g>
		<g>
			<g>
				<path fill="#798D4D" d="M1186.2,717.4c0.3-5.4,11.1-5.4,6.3-16c0-0.3,6.4,2.1,3.5,12.3c-2.1,6.2,6.4,6.2,6.4,6.2
					s12.4-17.9-5.2-29.1c0.3,0.7,16.8,3.8,10.9,24.1c0,0,0.7-13.1,15.2-12.4c-0.7-0.3-11.4,3.8-11.4,17.4
					c-0.3-0.2-1.7,41.6-1.7,41.6h-7.8H1185"/>
				<path fill="#798D4D" d="M1194.2,762.4h32.3l-0.1-42c0,0-5-3-9.1-13.7c-4.2-10.9,0.4-11.6,0.4-11.6s-10-1.5-4.9,18.5
					c0,4.5,0.8,2.9-2.5,4.8c-0.3-5.4-11-11.4-6.2-22.1c0-0.3-8.9,4.1-3.5,18.2c2.1,6.2-6.4,6.2-6.4,6.2s-7.8-22.2,7.7-26.5
					c-0.3,0.7-19.3,1.2-13.4,21.5c0,0,9.1-15.5-5.4-14.8c0.7-0.3,8.9,4.4,0.9,19.7v41.7L1194.2,762.4z"/>
			</g>
			<path fill="#798D4D" d="M1218.6,721.1l6.1-15.2c0,0,0.8,12.4,1.7,14.6"/>
			<path fill="#798D4D" d="M1197.2,726.7l0.6-16.3c0,0,5,11.3,6.5,13.1"/>
		</g>
		<g>
			<g>
				<path fill="#798D4D" d="M1226.2,725.4c0.3-5.4,11.1-5.4,6.3-16c0-0.3,6.4,2.1,3.5,12.3c-2.1,6.2,6.4,6.2,6.4,6.2
					s12.4-17.9-5.2-29.1c0.3,0.7,16.8,3.8,10.9,24.1c0,0,0.7-13.1,15.2-12.4c-0.7-0.3-11.4,3.8-11.4,17.4
					c-0.3-0.2-1.7,41.6-1.7,41.6h-7.8H1225"/>
				<path fill="#798D4D" d="M1234.3,770.4h32.3l-0.1-42c0,0-5-3-9.1-13.7c-4.2-10.9,0.4-11.6,0.4-11.6s-10-1.5-4.9,18.5
					c0,4.5,0.8,2.9-2.5,4.8c-0.3-5.4-11-11.4-6.2-22.1c0-0.3-8.9,4.1-3.5,18.2c2.1,6.2-6.4,6.2-6.4,6.2s-7.8-22.2,7.7-26.5
					c-0.3,0.7-19.3,1.2-13.4,21.5c0,0,9.1-15.5-5.4-14.8c0.7-0.3,8.8,4.4,0.8,19.7v41.7L1234.3,770.4z"/>
			</g>
			<path fill="#798D4D" d="M1258.7,729.1l6.1-15.2c0,0,0.8,12.4,1.7,14.6"/>
			<path fill="#798D4D" d="M1237.3,734.7l0.6-16.3c0,0,5,11.3,6.5,13.1"/>
		</g>
		<g>
			<g>
				<path fill="#798D4D" d="M1265.8,719.4c0.3-5.4,10.9-5.4,6.1-16c0-0.3,6.3,2.1,3.4,12.3c-2.1,6.2,6.4,6.2,6.4,6.2
					s12.4-17.9-5.2-29.1c0.3,0.7,16.8,3.8,10.9,24.1c0,0,0.7-13.1,15.2-12.4c-0.7-0.3-11.4,3.8-11.4,17.4
					c-0.3-0.2-1.7,41.6-1.7,41.6h-7.8H1265"/>
				<path fill="#798D4D" d="M1273.4,764.4h32.3l-0.1-42c0,0-5-3-9.1-13.7c-4.2-10.9,0.4-11.6,0.4-11.6s-10-1.5-4.9,18.5
					c0,4.5,0.8,2.9-2.5,4.8c-0.3-5.4-11-11.4-6.2-22.1c0-0.3-8.9,4.1-3.5,18.2c2.1,6.2-6.4,6.2-6.4,6.2s-7.8-22.2,7.7-26.5
					c-0.3,0.7-19.3,1.2-13.4,21.5c0,0,9.5-15.5-5-14.8c0.7-0.3,8.2,4.4,1.2,19.7v41.7L1273.4,764.4z"/>
			</g>
			<path fill="#798D4D" d="M1297.8,723.1l6.1-15.2c0,0,0.8,12.4,1.7,14.6"/>
			<path fill="#798D4D" d="M1276.5,728.7l0.6-16.3c0,0,5,11.3,6.5,13.1"/>
		</g>
	</g>
	<g>
		<g>
			<g>
				<path fill="#798D4D" d="M1302.8,716.4c0.3-5.4,11-5.4,6.1-16c0-0.3,6.3,2.1,3.4,12.3c-2.1,6.2,6.4,6.2,6.4,6.2
					s12.4-17.9-5.2-29.1c0.3,0.7,16.8,3.8,10.9,24.1c0,0,0.7-13.1,15.2-12.4c-0.7-0.3-11.4,3.8-11.4,17.4
					c-0.3-0.2-1.7,41.6-1.7,41.6h-7.8H1302"/>
				<path fill="#798D4D" d="M1310.6,761.4h32.3l-0.1-42c0,0-5-3-9.1-13.7c-4.2-10.9,0.4-11.6,0.4-11.6s-10-1.5-4.9,18.5
					c0,4.5,0.8,2.9-2.5,4.8c-0.3-5.4-11-11.4-6.2-22.1c0-0.3-8.9,4.1-3.5,18.2c2.1,6.2-6.4,6.2-6.4,6.2s-7.8-22.2,7.7-26.5
					c-0.3,0.7-19.3,1.2-13.4,21.5c0,0,9.4-15.5-5.1-14.8c0.7-0.3,8.2,4.4,1.2,19.7v41.7L1310.6,761.4z"/>
			</g>
			<path fill="#798D4D" d="M1334.9,720.1l6.1-15.2c0,0,0.8,12.4,1.7,14.6"/>
			<path fill="#798D4D" d="M1313.6,725.7l0.6-16.3c0,0,5,11.3,6.5,13.1"/>
		</g>
		<g>
			<g>
				<path fill="#798D4D" d="M1342.9,718.4c0.3-5.4,11-5.4,6.2-16c0-0.3,6.3,2.1,3.4,12.3c-2.1,6.2,6.4,6.2,6.4,6.2
					s12.4-17.9-5.2-29.1c0.3,0.7,16.8,3.8,10.9,24.1c0,0,0.7-13.1,15.2-12.4c-0.7-0.3-11.4,3.8-11.4,17.4
					c-0.3-0.2-1.7,41.6-1.7,41.6h-7.8H1342"/>
				<path fill="#798D4D" d="M1350.7,763.4h32.3l-0.1-42c0,0-5-3-9.1-13.7c-4.2-10.9,0.4-11.6,0.4-11.6s-10-1.5-4.9,18.5
					c0,4.5,0.8,2.9-2.5,4.8c-0.3-5.4-11-11.4-6.2-22.1c0-0.3-8.9,4.1-3.5,18.2c2.1,6.2-6.4,6.2-6.4,6.2s-7.8-22.2,7.7-26.5
					c-0.3,0.7-19.3,1.2-13.4,21.5c0,0,9.4-15.5-5.1-14.8c0.7-0.3,9.1,4.4,1.1,19.7v41.7L1350.7,763.4z"/>
			</g>
			<path fill="#798D4D" d="M1375.1,722.1l6.1-15.2c0,0,0.8,12.4,1.7,14.6"/>
			<path fill="#798D4D" d="M1353.7,727.7l0.6-16.3c0,0,5,11.3,6.5,13.1"/>
		</g>
		<g>
			<g>
				<path fill="#798D4D" d="M1372,713.4c0.3-5.4,11-5.4,6.2-16c0-0.3,6.4,2.1,3.4,12.3c-2.1,6.2,6.4,6.2,6.4,6.2s12.4-17.9-5.2-29.1
					c0.3,0.7,16.8,3.8,10.9,24.1c0,0,0.7-13.1,15.2-12.4c-0.7-0.3-11.4,3.8-11.4,17.4c-0.3-0.2-1.7,41.6-1.7,41.6h-7.8h-17"/>
				<path fill="#798D4D" d="M1379.8,758.4h32.3l-0.1-42c0,0-5-3-9.1-13.7c-4.2-10.9,0.4-11.6,0.4-11.6s-10-1.5-4.9,18.5
					c0,4.5,0.8,2.9-2.5,4.8c-0.3-5.4-11-11.4-6.2-22.1c0-0.3-8.9,4.1-3.5,18.2c2.1,6.2-6.4,6.2-6.4,6.2s-7.8-22.2,7.7-26.5
					c-0.3,0.7-19.3,1.2-13.4,21.5c0,0,9.3-15.5-5.2-14.8c0.7-0.3,9.1,4.4,1.1,19.7v41.7L1379.8,758.4z"/>
			</g>
			<path fill="#798D4D" d="M1404.1,717.1l6.1-15.2c0,0,0.8,12.4,1.7,14.6"/>
			<path fill="#798D4D" d="M1382.8,722.7l0.6-16.3c0,0,5,11.3,6.5,13.1"/>
		</g>
		<g>
			<g>
				<path fill="#798D4D" d="M1412,721.4c0.3-5.4,11-5.4,6.2-16c0-0.3,6.4,2.1,3.5,12.3c-2.1,6.2,6.4,6.2,6.4,6.2s12.4-17.9-5.2-29.1
					c0.3,0.7,16.8,3.8,10.9,24.1c0,0,0.7-13.1,15.2-12.4c-0.7-0.3-11.4,3.8-11.4,17.4c-0.3-0.2-1.7,41.6-1.7,41.6h-7.8H1411"/>
				<path fill="#798D4D" d="M1419.9,766.4h32.3l-0.1-42c0,0-5-3-9.1-13.7c-4.2-10.9,0.4-11.6,0.4-11.6s-10-1.5-4.9,18.5
					c0,4.5,0.8,2.9-2.5,4.8c-0.3-5.4-11-11.4-6.2-22.1c0-0.3-8.9,4.1-3.5,18.2c2.1,6.2-6.4,6.2-6.4,6.2s-7.8-22.2,7.7-26.5
					c-0.3,0.7-19.3,1.2-13.4,21.5c0,0,9.3-15.5-5.2-14.8c0.7-0.3,9,4.4,1,19.7v41.7L1419.9,766.4z"/>
			</g>
			<path fill="#798D4D" d="M1444.3,725.1l6.1-15.2c0,0,0.8,12.4,1.7,14.6"/>
			<path fill="#798D4D" d="M1422.9,730.7l0.6-16.3c0,0,5,11.3,6.5,13.1"/>
		</g>
		<g>
			<g>
				<path fill="#798D4D" d="M1451.1,715.4c0.3-5.4,11.1-5.4,6.2-16c0-0.3,6.4,2.1,3.5,12.3c-2.1,6.2,6.4,6.2,6.4,6.2
					s12.4-17.9-5.2-29.1c0.3,0.7,16.8,3.8,10.9,24.1c0,0,0.7-13.1,15.2-12.4c-0.7-0.3-11.4,3.8-11.4,17.4
					c-0.3-0.2-1.7,41.6-1.7,41.6h-7.8H1450"/>
				<path fill="#798D4D" d="M1459,760.4h32.3l-0.1-42c0,0-5-3-9.1-13.7c-4.2-10.9,0.4-11.6,0.4-11.6s-10-1.5-4.9,18.5
					c0,4.5,0.8,2.9-2.5,4.8c-0.3-5.4-11-11.4-6.2-22.1c0-0.3-8.9,4.1-3.5,18.2c2.1,6.2-6.4,6.2-6.4,6.2s-7.8-22.2,7.7-26.5
					c-0.3,0.7-19.3,1.2-13.4,21.5c0,0,9.2-15.5-5.3-14.8c0.7-0.3,9,4.4,1,19.7v41.7L1459,760.4z"/>
			</g>
			<path fill="#798D4D" d="M1483.4,719.1l6.1-15.2c0,0,0.8,12.4,1.7,14.6"/>
			<path fill="#798D4D" d="M1462,724.7l0.6-16.3c0,0,5,11.3,6.5,13.1"/>
		</g>
		<g>
			<g>
				<path fill="#798D4D" d="M1491.1,718.4c0.3-5.4,11.1-5.4,6.3-16c0-0.3,6.4,2.1,3.5,12.3c-2.1,6.2,6.4,6.2,6.4,6.2
					s12.4-17.9-5.2-29.1c0.3,0.7,16.8,3.8,10.9,24.1c0,0,0.7-13.1,15.2-12.4c-0.7-0.3-11.4,3.8-11.4,17.4
					c-0.3-0.2-1.7,41.6-1.7,41.6h-7.8H1490"/>
				<path fill="#798D4D" d="M1499.1,763.4h32.3l-0.1-42c0,0-5-3-9.1-13.7c-4.2-10.9,0.4-11.6,0.4-11.6s-10-1.5-4.9,18.5
					c0,4.5,0.8,2.9-2.5,4.8c-0.3-5.4-11-11.4-6.2-22.1c0-0.3-8.9,4.1-3.5,18.2c2.1,6.2-6.4,6.2-6.4,6.2s-7.8-22.2,7.7-26.5
					c-0.3,0.7-19.3,1.2-13.4,21.5c0,0,9.2-15.5-5.3-14.8c0.7-0.3,8.9,4.4,0.9,19.7v41.7L1499.1,763.4z"/>
			</g>
			<path fill="#798D4D" d="M1523.5,722.1l6.1-15.2c0,0,0.8,12.4,1.7,14.6"/>
			<path fill="#798D4D" d="M1502.1,727.7l0.6-16.3c0,0,5,11.3,6.5,13.1"/>
		</g>
		<g>
			<g>
				<path fill="#798D4D" d="M1531.2,720.4c0.3-5.4,11.1-5.4,6.3-16c0-0.3,6.4,2.1,3.5,12.3c-2.1,6.2,6.4,6.2,6.4,6.2
					s12.4-17.9-5.2-29.1c0.3,0.7,16.8,3.8,10.9,24.1c0,0,0.7-13.1,15.2-12.4c-0.7-0.3-11.4,3.8-11.4,17.4
					c-0.3-0.2-1.7,41.6-1.7,41.6h-7.8H1530"/>
				<path fill="#798D4D" d="M1539.3,765.4h32.3l-0.1-42c0,0-5-3-9.1-13.7c-4.2-10.9,0.4-11.6,0.4-11.6s-10-1.5-4.9,18.5
					c0,4.5,0.8,2.9-2.5,4.8c-0.3-5.4-11-11.4-6.2-22.1c0-0.3-8.9,4.1-3.5,18.2c2.1,6.2-6.4,6.2-6.4,6.2s-7.8-22.2,7.7-26.5
					c-0.3,0.7-19.3,1.2-13.4,21.5c0,0,9.1-15.5-5.4-14.8c0.7-0.3,8.8,4.4,0.8,19.7v41.7L1539.3,765.4z"/>
			</g>
			<path fill="#798D4D" d="M1563.6,724.1l6.1-15.2c0,0,0.8,12.4,1.7,14.6"/>
			<path fill="#798D4D" d="M1542.3,729.7l0.6-16.3c0,0,5,11.3,6.5,13.1"/>
		</g>
		<g>
			<g>
				<path fill="#798D4D" d="M1560.7,715.4c0.3-5.4,10.9-5.4,6.1-16c0-0.3,6.3,2.1,3.4,12.3c-2.1,6.2,6.4,6.2,6.4,6.2
					s12.4-17.9-5.2-29.1c0.3,0.7,16.8,3.8,10.9,24.1c0,0,0.7-13.1,15.2-12.4c-0.7-0.3-11.4,3.8-11.4,17.4
					c-0.3-0.2-1.7,41.6-1.7,41.6h-7.8H1560"/>
				<path fill="#798D4D" d="M1568.3,760.4h32.3l-0.1-42c0,0-5-3-9.1-13.7c-4.2-10.9,0.4-11.6,0.4-11.6s-10-1.5-4.9,18.5
					c0,4.5,0.8,2.9-2.5,4.8c-0.3-5.4-11-11.4-6.2-22.1c0-0.3-8.9,4.1-3.5,18.2c2.1,6.2-6.4,6.2-6.4,6.2s-7.8-22.2,7.7-26.5
					c-0.3,0.7-19.3,1.2-13.4,21.5c0,0,9.6-15.5-4.9-14.8c0.7-0.3,8.3,4.4,1.3,19.7v41.7L1568.3,760.4z"/>
			</g>
			<path fill="#798D4D" d="M1592.7,719.1l6.1-15.2c0,0,0.8,12.4,1.7,14.6"/>
			<path fill="#798D4D" d="M1571.4,724.7l0.6-16.3c0,0,5,11.3,6.5,13.1"/>
		</g>
		<g>
			<g>
				<path fill="#798D4D" d="M1600.8,723.4c0.3-5.4,10.9-5.4,6.1-16c0-0.3,6.3,2.1,3.4,12.3c-2.1,6.2,6.4,6.2,6.4,6.2
					s12.4-17.9-5.2-29.1c0.3,0.7,16.8,3.8,10.9,24.1c0,0,0.7-13.1,15.2-12.4c-0.7-0.3-11.4,3.8-11.4,17.4
					c-0.3-0.2-1.7,41.6-1.7,41.6h-7.8H1600"/>
				<path fill="#798D4D" d="M1608.5,768.4h32.3l-0.1-42c0,0-5-3-9.1-13.7c-4.2-10.9,0.4-11.6,0.4-11.6s-10-1.5-4.9,18.5
					c0,4.5,0.8,2.9-2.5,4.8c-0.3-5.4-11-11.4-6.2-22.1c0-0.3-8.9,4.1-3.5,18.2c2.1,6.2-6.4,6.2-6.4,6.2s-7.8-22.2,7.7-26.5
					c-0.3,0.7-19.3,1.2-13.4,21.5c0,0,9.5-15.5-5-14.8c0.7-0.3,8.2,4.4,1.2,19.7v41.7L1608.5,768.4z"/>
			</g>
			<path fill="#798D4D" d="M1632.8,727.1l6.1-15.2c0,0,0.8,12.4,1.7,14.6"/>
			<path fill="#798D4D" d="M1611.5,732.7l0.6-16.3c0,0,5,11.3,6.5,13.1"/>
		</g>
		<g>
			<g>
				<path fill="#798D4D" d="M1639.9,717.4c0.3-5.4,11-5.4,6.1-16c0-0.3,6.3,2.1,3.4,12.3c-2.1,6.2,6.4,6.2,6.4,6.2
					s12.4-17.9-5.2-29.1c0.3,0.7,16.8,3.8,10.9,24.1c0,0,0.7-13.1,15.2-12.4c-0.7-0.3-11.4,3.8-11.4,17.4
					c-0.3-0.2-1.7,41.6-1.7,41.6h-7.8H1639"/>
				<path fill="#798D4D" d="M1647.6,762.4h32.3l-0.1-42c0,0-5-3-9.1-13.7c-4.2-10.9,0.4-11.6,0.4-11.6s-10-1.5-4.9,18.5
					c0,4.5,0.8,2.9-2.5,4.8c-0.3-5.4-11-11.4-6.2-22.1c0-0.3-8.9,4.1-3.5,18.2c2.1,6.2-6.4,6.2-6.4,6.2s-7.8-22.2,7.7-26.5
					c-0.3,0.7-19.3,1.2-13.4,21.5c0,0,9.4-15.5-5.1-14.8c0.7-0.3,9.2,4.4,1.2,19.7v41.7L1647.6,762.4z"/>
			</g>
			<path fill="#798D4D" d="M1672,721.1l6.1-15.2c0,0,0.8,12.4,1.7,14.6"/>
			<path fill="#798D4D" d="M1650.6,726.7l0.6-16.3c0,0,5,11.3,6.5,13.1"/>
		</g>
		<g>
			<g>
				<path fill="#798D4D" d="M1675.9,720.4c0.3-5.4,11-5.4,6.2-16c0-0.3,6.4,2.1,3.4,12.3c-2.1,6.2,6.4,6.2,6.4,6.2
					s12.4-17.9-5.2-29.1c0.3,0.7,16.8,3.8,10.9,24.1c0,0,0.7-13.1,15.2-12.4c-0.7-0.3-11.4,3.8-11.4,17.4
					c-0.3-0.2-1.7,41.6-1.7,41.6h-7.8H1675"/>
				<path fill="#798D4D" d="M1683.7,765.4h32.3l-0.1-42c0,0-5-3-9.1-13.7c-4.2-10.9,0.4-11.6,0.4-11.6s-10-1.5-4.9,18.5
					c0,4.5,0.8,2.9-2.5,4.8c-0.3-5.4-11-11.4-6.2-22.1c0-0.3-8.9,4.1-3.5,18.2c2.1,6.2-6.4,6.2-6.4,6.2s-7.8-22.2,7.7-26.5
					c-0.3,0.7-19.3,1.2-13.4,21.5c0,0,9.4-15.5-5.1-14.8c0.7-0.3,9.1,4.4,1.1,19.7v41.7L1683.7,765.4z"/>
			</g>
			<path fill="#798D4D" d="M1708.1,724.1l6.1-15.2c0,0,0.8,12.4,1.7,14.6"/>
			<path fill="#798D4D" d="M1686.7,729.7l0.6-16.3c0,0,5,11.3,6.5,13.1"/>
		</g>
		<g>
			<g>
				<path fill="#798D4D" d="M1716,722.4c0.3-5.4,11-5.4,6.2-16c0-0.3,6.4,2.1,3.5,12.3c-2.1,6.2,6.4,6.2,6.4,6.2s12.4-17.9-5.2-29.1
					c0.3,0.7,16.8,3.8,10.9,24.1c0,0,0.7-13.1,15.2-12.4c-0.7-0.3-11.4,3.8-11.4,17.4c-0.3-0.2-1.7,41.6-1.7,41.6h-7.8h-17"/>
				<path fill="#798D4D" d="M1723.8,767.4h32.3l-0.1-42c0,0-5-3-9.1-13.7c-4.2-10.9,0.4-11.6,0.4-11.6s-10-1.5-4.9,18.5
					c0,4.5,0.8,2.9-2.5,4.8c-0.3-5.4-11-11.4-6.2-22.1c0-0.3-8.9,4.1-3.5,18.2c2.1,6.2-6.4,6.2-6.4,6.2s-7.8-22.2,7.7-26.5
					c-0.3,0.7-19.3,1.2-13.4,21.5c0,0,9.3-15.5-5.2-14.8c0.7-0.3,9,4.4,1,19.7v41.7L1723.8,767.4z"/>
			</g>
			<path fill="#798D4D" d="M1748.2,726.1l6.1-15.2c0,0,0.8,12.4,1.7,14.6"/>
			<path fill="#798D4D" d="M1726.8,731.7l0.6-16.3c0,0,5,11.3,6.5,13.1"/>
		</g>
	</g>
</g>
<g>
	<polygon fill="#817565" stroke="#000000" stroke-width="1.4845" stroke-miterlimit="10" points="503.6,781 531.2,956 588.4,959.1 
		608.6,917.8 585.2,753.4 	"/>
	<polygon fill="#817565" stroke="#000000" stroke-width="1.4845" stroke-miterlimit="10" points="1169.5,772.5 1150.4,923.1 
		1168.4,961.3 1221.4,958.1 1249,753.4 	"/>
	<polygon fill="#77695A" stroke="#000000" stroke-width="1.4845" stroke-miterlimit="10" points="603.3,764 612.8,811.8 
		645.7,811.8 662.6,768.3 	"/>
	<polygon fill="#77695A" stroke="#000000" stroke-width="1.4845" stroke-miterlimit="10" points="1101.6,776.8 1119.6,813.9 
		1152.5,813.9 1155.7,759.8 	"/>
	<path fill="#817565" stroke="#000000" stroke-width="1.4845" stroke-miterlimit="10" d="M461.9,575.8l31.8,207.8
		c0,0,510,15.9,765.6-1.1c10.6-63.6,28.6-207.8,28.6-207.8L461.9,575.8z"/>
	<path fill="#817565" stroke="#000000" stroke-width="1.4845" stroke-miterlimit="10" d="M463.2,575.6l114.5-114.5
		c0,0,320.2-12.7,605.4,1.1c12.7,15.9,106,112.4,106,112.4S892.6,589.4,463.2,575.6z"/>
	<path fill="#817565" stroke="#000000" stroke-width="1.4845" stroke-miterlimit="10" d="M471.7,567.2c0,0,447.5,14.5,812.3,0.7"/>
	<path fill="#817565" stroke="#000000" stroke-width="1.4845" stroke-miterlimit="10" d="M573.3,466.1c0,0,291.9-10.6,614,0.6"/>
	<polyline fill="#77695A" stroke="#000000" stroke-width="1.4845" stroke-miterlimit="10" points="568.7,569 619.1,497.7 
		619.1,465.5 535.4,567.5 	"/>
	<polygon points="574.6,532.6 578.1,553.6 597.3,528.3 594.7,507.3 	"/>
	<polyline fill="#77695A" stroke="#000000" stroke-width="1.4845" stroke-miterlimit="10" points="1192,570.4 1140.6,498.7 
		1140.6,466.4 1224.3,568.5 	"/>
	<polygon points="1185,533.6 1181.6,554.5 1162.4,529.2 1165,508.3 	"/>
	<path fill="#74814D" stroke="#000000" stroke-width="1.4845" stroke-miterlimit="10" d="M1138,497.5
		c-222.2-6.5-424.7-3.2-518.9-0.9c0,0-48.6,70.4-48.6,72.4c323.1,10.5,619.2,1.4,619.2,1.4S1140.1,497.5,1138,497.5z"/>
	<polygon fill="#DFDFDF" stroke="#040505" stroke-width="1.4845" stroke-miterlimit="10" points="675.3,457.9 668.3,457.2 
		699.1,409.7 704.1,412.9 	"/>
	<polygon fill="#DFDFDF" stroke="#040505" stroke-width="1.4845" stroke-miterlimit="10" points="734.8,456.1 727.5,455.8 
		743.3,421.1 748.8,423.5 	"/>
	<line fill="#FFFFFF" stroke="#000000" stroke-width="1.4845" stroke-miterlimit="10" x1="793.8" y1="433.2" x2="790" y2="455.5"/>
	
		<rect x="849.2" y="426.4" transform="matrix(0.9997 2.540394e-02 -2.540394e-02 0.9997 11.4709 -21.5049)" fill="#DFDFDF" stroke="#040505" stroke-width="1.4845" stroke-miterlimit="10" width="5.9" height="28.7"/>
	<polygon fill="#DFDFDF" stroke="#040505" stroke-width="1.4845" stroke-miterlimit="10" points="968.5,455.7 962.7,420.7 
		968.5,419.7 974.5,456.1 	"/>
	<polygon fill="#DFDFDF" stroke="#040505" stroke-width="1.4845" stroke-miterlimit="10" points="1028.1,456.8 1015.8,425.3 
		1021.3,423.2 1034,457.2 	"/>
	<polygon fill="#DFDFDF" stroke="#040505" stroke-width="1.4845" stroke-miterlimit="10" points="1085.8,458.6 1069.3,429 
		1074.5,426.1 1091.7,457.9 	"/>
	<g>
		<circle cx="844.5" cy="679" r="10.9"/>
		<path d="M834.5,679.2l3.4-36.3c0,0,5.3-7.1,15.4-0.3c-0.1,15,1.4,37.2,1.4,37.2L834.5,679.2z"/>
	</g>
	<g>
		<circle cx="1026.2" cy="445.3" r="6.7"/>
		<path d="M1020.7,448l-7.5-21.1c0,0,4.5-6.5,11.8-5.3c3.9,8.4,7,21.4,7,21.4L1020.7,448z"/>
	</g>
	<g>
		<circle cx="1084.2" cy="447.5" r="6.7"/>
		<path d="M1079,450.8l-10-20c0,0,3.7-6.9,11.1-6.6c4.8,7.9,9.6,20.4,9.6,20.4L1079,450.8z"/>
	</g>
	<path d="M904.5,455.9h13.1c0.2-1.2,0.2-2.4-0.2-3.5c0.2-4,0.5-13.6-0.4-20.7c-6.7-3.3-12.9,1.5-12.9,1.5l0.7,18.9
		C904.4,453.2,904.3,454.6,904.5,455.9z"/>
	<path d="M784.8,455.3l13.1,0.3c0.4-1.1,0.3-0.2,0.2-1.4c0.9-3.9,3.1-13.3,3.5-20.4c-5.9-4.5-12.9-1-12.9-1l-2.8,18.7
		C785.2,452.7,784.8,454,784.8,455.3z"/>
	<circle cx="668.6" cy="595.4" r="9"/>
	<circle cx="766.2" cy="596.9" r="9"/>
	<circle cx="848.7" cy="598.4" r="9"/>
	<circle cx="920.4" cy="598.4" r="9"/>
	<circle cx="994.9" cy="596.9" r="9"/>
	<circle cx="1084.9" cy="595.4" r="9"/>
	<circle cx="1165" cy="594" r="9"/>
	<polygon fill="#DFDFDF" stroke="#000000" stroke-width="1.4845" stroke-miterlimit="10" points="640.2,669.9 634.8,667.5 
		669.7,588.2 675.1,590.7 	"/>
	<polygon fill="#DFDFDF" stroke="#000000" stroke-width="1.4845" stroke-miterlimit="10" points="757.9,664.2 752,663.2 
		764.5,589.1 770.4,590 	"/>
	<polygon fill="#DFDFDF" stroke="#000000" stroke-width="1.4845" stroke-miterlimit="10" points="849.3,670.7 843.3,670.6 
		845.7,591 851.3,591 	"/>
	<polygon fill="#DFDFDF" stroke="#000000" stroke-width="1.4845" stroke-miterlimit="10" points="923.1,683.7 917.1,591.4 923,591 
		929,683.3 	"/>
	<polygon fill="#DFDFDF" stroke="#000000" stroke-width="1.4845" stroke-miterlimit="10" points="1004.2,670 991,590 996.8,589.1 
		1010.1,669.1 	"/>
	<polygon fill="#DFDFDF" stroke="#000000" stroke-width="1.4845" stroke-miterlimit="10" points="1119.5,694.2 1079.4,589.9 
		1084.6,588 1125.1,692 	"/>
	<polygon fill="#DFDFDF" stroke="#000000" stroke-width="1.4845" stroke-miterlimit="10" points="1206.5,672.8 1159.5,588.5 
		1164.3,586.1 1211.7,669.9 	"/>
	<circle cx="638.1" cy="669.4" r="10.9"/>
	<path d="M628.5,666.4l15.9-33.3c0,0,7.9-5.8,15.2,3.9c-4.9,14.2-12.3,36.4-12.3,36.4L628.5,666.4z"/>
	<circle cx="1011.7" cy="677.2" r="10.9"/>
	<path d="M1002.2,680.2l-6.2-36c0,0,5-9.6,15.1-2.7c4.2,14.4,10.5,33.5,10.5,33.5L1002.2,680.2z"/>
	<path d="M834.5,681.3l3.4-36.3c0,0,7.4-8.3,17.5-1.5c-0.1,15-0.7,38.3-0.7,38.3L834.5,681.3z"/>
	<line fill="#FFFFFF" stroke="#040505" stroke-width="1.4845" stroke-miterlimit="10" x1="582.8" y1="936.9" x2="560" y2="803.3"/>
	
		<line fill="#FFFFFF" stroke="#040505" stroke-width="1.4845" stroke-miterlimit="10" x1="1177.7" y1="925" x2="1196.3" y2="818.1"/>
	<polygon fill="#77695A" points="588.8,787.9 557.7,786.5 588,956 607.4,917.5 	"/>
	<path fill="#77695A" d="M1151.7,922.4c0.3-2.5,18.8,37.2,18.8,37.2l29.2-172.7l-31,1.4L1151.7,922.4z"/>
	<path fill="#77695A" d="M499.4,780.4c0,0,494.7,19.8,757.1-0.2c0-13.8,27.5-198.8,27.5-198.8l-40.1,190.3
		c-2.7-0.2-631.2-15.6-713.3-22.2c1.8-1.3,88.8,17.2,145.5,20.9c-1.1,1.8-165.8-6.3-165.8-6.3l-47.2-182.7L499.4,780.4z"/>
	<polygon fill="#646E3F" points="618.4,569.5 610.4,569.2 655.7,496.5 662.1,496.4 	"/>
	<polygon fill="#646E3F" points="695,571.4 688.8,571.4 722.4,495.5 727.6,495.3 	"/>
	<polygon fill="#646E3F" points="782.2,572.7 776.3,572.7 788.9,494.8 794.2,494.8 	"/>
	<polygon fill="#646E3F" points="856.1,573.1 849.3,573 851.8,494.4 857.4,494.4 	"/>
	<polygon fill="#6E6052" points="656.1,495 657.9,481.3 664.6,479.8 662.4,494.9 	"/>
	<circle cx="659.2" cy="475.9" r="6.9"/>
	<polygon fill="#DFDFDF" stroke="#000000" stroke-width="1.4845" stroke-miterlimit="10" points="603,570.5 595,570.3 659.8,469.8 
		664.6,473.8 	"/>
	<polygon fill="#6E6052" points="722.7,493.9 723.3,479.8 728.6,478.6 727.7,493.9 	"/>
	<circle cx="723.5" cy="474.8" r="6.9"/>
	<polygon fill="#DFDFDF" stroke="#000000" stroke-width="1.4845" stroke-miterlimit="10" points="683,572 676.8,571.6 722.4,468.8 
		727.8,471.2 	"/>
	<polygon fill="#6E6052" points="789.1,493.2 788.5,478.4 792.9,475.9 794.2,493.2 	"/>
	<circle cx="786.4" cy="473.6" r="6.9"/>
	<polygon fill="#DFDFDF" stroke="#000000" stroke-width="1.4845" stroke-miterlimit="10" points="773.3,573.1 767.2,572.6 
		784.7,469.1 790.6,470.1 	"/>
	<polygon fill="#6E6052" points="857.4,492.8 856.7,476.4 852.5,477 852.5,492.8 	"/>
	<circle cx="851.1" cy="472.5" r="6.9"/>
	<polygon fill="#DFDFDF" stroke="#000000" stroke-width="1.4845" stroke-miterlimit="10" points="851.7,573.3 845.8,573.2 
		848.6,467.3 854.6,467.4 	"/>
	<polygon fill="#646E3F" points="909.8,573.3 916.5,573.2 913.9,494.5 908.3,494.5 	"/>
	<polygon fill="#6E6052" points="908.3,493 909,476.4 913.2,477 913.2,493 	"/>
	<circle cx="913.4" cy="472.5" r="6.9"/>
	<polygon fill="#DFDFDF" stroke="#000000" stroke-width="1.4845" stroke-miterlimit="10" points="916.5,573.8 910,467.5 916,467.1 
		922.2,573.5 	"/>
	<polygon fill="#646E3F" points="979.5,573 985.4,573 972.8,495.1 967.5,495.1 	"/>
	<polygon fill="#6E6052" points="972.6,493.5 973.1,478.7 968.7,476.3 967.5,493.5 	"/>
	<circle cx="975" cy="473.6" r="6.9"/>
	<polygon fill="#DFDFDF" stroke="#000000" stroke-width="1.4845" stroke-miterlimit="10" points="988.2,573.6 971.5,469.3 
		977.4,468.3 994.1,573.4 	"/>
	<polygon fill="#646E3F" points="1061.7,572 1067.9,572 1038.8,496.1 1033.6,495.9 	"/>
	<polygon fill="#6E6052" points="1038.5,494.5 1037.9,480.4 1032.6,479.2 1033.6,494.5 	"/>
	<circle cx="1038" cy="474.8" r="6.9"/>
	<polygon fill="#DFDFDF" stroke="#000000" stroke-width="1.4845" stroke-miterlimit="10" points="1072.9,572.7 1033.8,470.7 
		1039,469.8 1078.7,572.2 	"/>
	<polygon fill="#646E3F" points="1135.5,570.8 1143.5,570.5 1102.6,497.2 1096.1,497.1 	"/>
	<polygon fill="#6E6052" points="1102.2,495.7 1100.4,482 1093.7,480.5 1095.8,495.6 	"/>
	<circle cx="1099.3" cy="475.9" r="6.9"/>
	<polygon fill="#DFDFDF" stroke="#000000" stroke-width="1.4845" stroke-miterlimit="10" points="1150.1,571.8 1094.3,473.6 
		1098.7,470 1155.8,571.3 	"/>
	<circle cx="584.7" cy="594" r="9"/>
	<polygon fill="#DFDFDF" stroke="#000000" stroke-width="1.4845" stroke-miterlimit="10" points="553.2,648.5 548.1,645.4 
		585,586.1 590.1,589.2 	"/>
	<circle cx="550.4" cy="649.2" r="10.9"/>
	<path d="M541.3,644.9l20-30.8c0,0,8.8-4.5,14.8,6c-6.7,13.5-17,34.2-17,34.2L541.3,644.9z"/>
</g>
</svg>
