<?xml version="1.0" encoding="utf-8"?>
<!-- Generator: Adobe Illustrator 17.1.0, SVG Export Plug-In . SVG Version: 6.00 Build 0)  -->
<!DOCTYPE svg PUBLIC "-//W3C//DTD SVG 1.1//EN" "http://www.w3.org/Graphics/SVG/1.1/DTD/svg11.dtd">
<svg version="1.1" id="Ebene_1" xmlns="http://www.w3.org/2000/svg" xmlns:xlink="http://www.w3.org/1999/xlink" x="0px" y="0px"
	 viewBox="0 0 42 72.3" enable-background="new 0 0 42 72.3" xml:space="preserve">
<g>
	<g>
		<path fill="#798D4D" d="M2,27.5c0.3-5.4,11-5.2,6.2-15.9c0-0.3,6.3,2.1,3.4,12.3c-2.1,6.2,6.4,6.2,6.4,6.2s12.4-17.9-5.2-29.1
			c0.3,0.7,16.7,3.8,10.9,24.1c0,0,0.7-13.1,15.1-12.4c-0.7-0.3-11.4,3.6-11.4,17.2c-0.3-0.2-1.7,41.4-1.7,41.4H18H1"/>
		<path fill="#798D4D" d="M9.8,72.3H42l-0.1-41.8c0,0-5-2.9-9.1-13.5C28.5,6.1,33.1,5.5,33.1,5.5S23.1,4,28.3,24
			c0,4.5,0.8,2.9-2.5,4.8c-0.3-5.4-11-11.4-6.2-22c0-0.3-8.9,4.1-3.4,18.2c2.1,6.2-6.4,6.2-6.4,6.2S2,8.9,17.5,4.7
			C17.2,5.4-1.7,5.8,4.1,26.1c0,0,10.8-15.5-3.7-14.8C1.1,11,7.7,15.7,0,31v41.7L9.8,72.3z"/>
	</g>
	<path fill="#798D4D" d="M34.1,31.4l6.1-15.2c0,0,0.8,12.4,1.7,14.6"/>
	<path fill="#798D4D" d="M12.8,37l0.6-16.3c0,0,5,11.3,6.5,13.1"/>
</g>
</svg>
