<?xml version="1.0" encoding="utf-8"?>
<!-- Generator: Adobe Illustrator 17.1.0, SVG Export Plug-In . SVG Version: 6.00 Build 0)  -->
<!DOCTYPE svg PUBLIC "-//W3C//DTD SVG 1.1//EN" "http://www.w3.org/Graphics/SVG/1.1/DTD/svg11.dtd">
<svg version="1.1" id="Ebene_1" xmlns="http://www.w3.org/2000/svg" xmlns:xlink="http://www.w3.org/1999/xlink" x="0px" y="0px"
	 viewBox="0 0 1128 565" enable-background="new 0 0 1128 565" xml:space="preserve">
<rect y="281" fill="#9FB286" width="1128" height="15"/>
<g>
	<path fill="#9FB286" d="M570,46c31.7,0,62.5,6.2,91.5,18.5c28,11.8,53.1,28.8,74.7,50.4c21.6,21.6,38.5,46.7,50.4,74.7
		c12.2,29,18.5,59.7,18.5,91.5s-6.2,62.5-18.5,91.5c-11.8,28-28.8,53.1-50.4,74.7c-21.6,21.6-46.7,38.5-74.7,50.4
		c-29,12.2-59.7,18.5-91.5,18.5s-62.5-6.2-91.5-18.5c-28-11.8-53.1-28.8-74.7-50.4c-21.6-21.6-38.5-46.7-50.4-74.7
		c-12.2-29-18.5-59.7-18.5-91.5s6.2-62.5,18.5-91.5c11.8-28,28.8-53.1,50.4-74.7c21.6-21.6,46.7-38.5,74.7-50.4
		C507.5,52.2,538.3,46,570,46 M570,30c-138.6,0-251,112.4-251,251s112.4,251,251,251s251-112.4,251-251S708.6,30,570,30L570,30z"/>
</g>
<circle fill="#9FB286" cx="573" cy="291" r="26"/>
</svg>
