<?xml version="1.0" encoding="utf-8"?>
<!-- Generator: Adobe Illustrator 17.1.0, SVG Export Plug-In . SVG Version: 6.00 Build 0)  -->
<!DOCTYPE svg PUBLIC "-//W3C//DTD SVG 1.1//EN" "http://www.w3.org/Graphics/SVG/1.1/DTD/svg11.dtd">
<svg version="1.1" xmlns="http://www.w3.org/2000/svg" xmlns:xlink="http://www.w3.org/1999/xlink" x="0px" y="0px"
	 viewBox="0 0 361 307" enable-background="new 0 0 361 307" xml:space="preserve">
<g id="Ebene_2">
	<path opacity="0.56" fill="#EFE7C3" d="M124.8,144.7l-85.3,19.8l33.9-43L29.4,92.8l79.1-14.1L100,33.1l46.9,19.2l39.3-49.2
		l18.1,45.2l112.2-14.2c0,0-90,53.7-89.7,54c0.3,0.3,50.3,4.1,50.3,4.1l-44.7,27.2l89.6,56l-116.3-24.2c0,0,4.2,34.6,4.8,35.4
		s-41.2-34.2-41.2-34.2l-60,15.8L124.8,144.7z"/>
	<path opacity="0.7" fill="#FFFFFF" d="M134.7,130.6L78,143.8l22.6-28.6L71.3,96l52.6-9.4l-5.7-30.3l31.2,12.8l26.2-32.7l12.1,30.1
		l74.7-9.4c0,0-59.9,35.7-59.7,35.9c0.2,0.2,33.5,2.7,33.5,2.7l-29.8,18.1L266,151l-77.4-16.1c0,0,2.8,23,3.2,23.6
		c0.3,0.5-27.4-22.8-27.4-22.8l-39.9,10.5L134.7,130.6z"/>
</g>
<g id="Ebene_1">
	<path fill="#F2DED6" d="M135,300.2c0-67.1-15.7-225.9,27.6-225.9c39.1,0,28.2,158.8,28.2,225.9"/>
	<path fill="#FFF8F5" d="M143.9,133.2c0-16.1-3.9-47.9,17.8-47.9c19.2,0,18,31.8,18,47.9"/>
	<path fill="#FFFFFF" d="M148.1,133.2c0-6,3.5-17.9,13.2-17.9c10.7,0,13.4,11.9,13.4,17.9"/>
	<path fill="none" stroke="#E2C6BC" stroke-width="2.3137" stroke-miterlimit="10" d="M143.6,228c0,0,18.9-8.2,34.3,1.8"/>
	<line fill="none" stroke="#E2C6BC" stroke-width="2.3137" stroke-miterlimit="10" x1="146.3" y1="233.7" x2="174.7" y2="235.3"/>
	<path fill="none" stroke="#E2C6BC" stroke-width="2.3137" stroke-miterlimit="10" d="M143.6,239.4c0.7,0,25.9,3.2,36.1,0"/>
</g>
</svg>
