<?xml version="1.0" encoding="utf-8"?>
<!-- Generator: Adobe Illustrator 17.1.0, SVG Export Plug-In . SVG Version: 6.00 Build 0)  -->
<!DOCTYPE svg PUBLIC "-//W3C//DTD SVG 1.1//EN" "http://www.w3.org/Graphics/SVG/1.1/DTD/svg11.dtd">
<svg version="1.1" xmlns="http://www.w3.org/2000/svg" xmlns:xlink="http://www.w3.org/1999/xlink" x="0px" y="0px"
	 viewBox="0 0 409.5 838.5" enable-background="new 0 0 409.5 838.5" xml:space="preserve">
<g id="Ebene_3">
	<g>
		<path fill="#616D3C" d="M28,759.9c0,24.9,20.1,45,45,45h268c24.9,0,45-20.1,45-45v-682c0-24.9-20.1-45-45-45H73
			c-24.9,0-45,20.1-45,45V759.9z"/>
	</g>
</g>
<g id="Ebene_2">
	<g>
		<circle fill="#7D8B52" cx="205.9" cy="72.2" r="5.1"/>
		<path fill="#7D8B52" d="M185.4,100.5h40.9c3,0,5.4-2.4,5.4-5.4s-2.4-5.4-5.4-5.4h-40.9c-3,0-5.4,2.4-5.4,5.4
			S182.5,100.5,185.4,100.5z"/>
		<rect x="192.1" y="737.7" fill="#7D8B52" width="27.5" height="27.5"/>
		<rect x="46.3" y="126.4" fill="#7D8B52" width="320.5" height="571.3"/>
	</g>
</g>
</svg>
