<?xml version="1.0" encoding="utf-8"?>
<!-- Generator: Adobe Illustrator 17.1.0, SVG Export Plug-In . SVG Version: 6.00 Build 0)  -->
<!DOCTYPE svg PUBLIC "-//W3C//DTD SVG 1.1//EN" "http://www.w3.org/Graphics/SVG/1.1/DTD/svg11.dtd">
<svg version="1.1" id="Ebene_1" xmlns="http://www.w3.org/2000/svg" xmlns:xlink="http://www.w3.org/1999/xlink" x="0px" y="0px"
	 viewBox="0 0 1071.8 1683.8" enable-background="new 0 0 1071.8 1683.8" xml:space="preserve">
<ellipse transform="matrix(0.9812 -0.193 0.193 0.9812 -105.2123 38.3737)" fill="#E5E5E4" cx="144.4" cy="559.3" rx="89.4" ry="85.9"/>
<g>
	
		<path fill="#FFFFFF" stroke="#E5E5E4" stroke-width="55" stroke-linecap="round" stroke-linejoin="round" stroke-miterlimit="10" d="
		M975.6,611.8h-94.7c0-1.6-0.1-3.2-0.1-4.7c1.1,0,1.7,0,1.7,0s-1.1-13.5-2.5-30.5c0.1-10.2,0.2-35.6-5.1-65.1
		c-6.5-22.3-57-32.7-89.2-37.8c-14.8-2.9-27.9-5.3-27.9-5.3s-0.1,0.2-0.3,0.5c-2.5-1.1-6.3-3-10.4-5.5c0.1-0.2,0.2-0.3,0.2-0.3
		l-0.8,0c-12.9-8-28.5-21.4-18-31.8c1.9-2.4,6.4-17.1,9.9-29.4c2.6-2.6,4.5-4.8,5.8-6c-1.4,1-3,1.7-4.7,2.1
		c2.1-7.5,3.6-13.2,3.6-13.2s0.8-4.2,6.7-7.5s15.1-41.1,17.6-52.8c1.8-8.3-4.8-10.6-5.6-10.5c0.2-1.8,2.6-19,3.3-19.4
		c0.2-0.1,0-2.8-0.3-6.6c12.3-3.3,20.5-10.2,19.4-11.7c-21-11.4-14.8-13.6-28.8-64.2c-7-25.2-23.8-33-38.9-34.5
		c6.3-13.7,1.9-28.5,2-27.9c0.1,21.8-14.3,16.7-14.2,18.6c-10.6-25.1,17.5-33.9,22.2-35.1c-29.3,0.5-35.6,21.5-35.7,30.1
		c-3.9-16.3-14.4-35.5-15.9-35.5c4.9,5.9,5.8,21.9,5.9,32.5c-20.4-9.1-45.3-11.1-66.3-3.4c-44,16.2-61.5,36.8-70.8,55
		c-4.1,0.3-7.3,0.6-8.2,0.9l0.2,1.8c0.3,4.2,0.3,12.1,0.3,12.1s0.6-0.2,1.4,0c-7.2,18.9-10.2,31.5-39.2,26.4
		c2.1,2.3,7.7,31.8,34.4,36.9l1,30.2c0,0-3.5-1.5-6.9,3.5c-3.4,5,5.9,33.5,10.1,45.3c4.2,11.7,12.6,15.1,12.6,15.1s0.9-0.5,2.3,0.4
		c0.1,0.2,0.2,0.3,0.2,0.3l-0.1-0.3c1.4,0.9,3.2,3.2,5.2,8.4c3.4,8.8,15.4,31.1,23,45.9l-0.4,0c0,0,0.6,1,1.7,2.5
		c1.2,2.4,2.3,4.5,3.1,6.3c-6,7.4-12.8,11.5-18.3,14.4l-0.8,0c0,0,0.1,0.1,0.2,0.3c-4.2,2.2-7.6,3.6-9.3,5.4
		c-3,3-36.7,9.2-69.7,18.5c-2,0.5-3.9,1-5.8,1.5c-10.4,2.8-19.4,5.5-26.7,9.1c-1.5,0.6-3,1.2-4.4,1.8c-4.5,1.9-8,5.3-10.8,9.7
		c-2.9,3.6-5.1,7.8-6.6,12.9H107.2c-6.6,0-12,5.4-12,12v462.8c0,4.8,3.9,8.6,8.6,8.6h392c0.5,1.9,1.2,3.7,1.9,5.4
		c3.9,10.6,8.6,13,12.6,15.4c0.8,4.2,15.9,109.9,15.1,112.4c0,0,0,0.1-0.1,0.1c-0.9-0.8-1.4-1.3-1.4-1.3c-20.5,2.2-9.8,25-4.7,42.5
		c5,17.5,10.6,85.5,11.7,98.1s-16.1,41.6-22.6,53.7c-6.6,12.1,0.3,141.7,0.8,151.8c0.5,10.1,12.6,21,12.6,21s266.7-0.8,277.6-0.8
		c7.3,0,7.1-2.6,6.8-8.2c3.2-12,1.9-34.9,1.3-50.8c0-6.5-0.1-13.5-0.2-20.8c0.1-30.2,0.5-99-1.7-104c-2.5-5.9-26.8-32.7-28.5-37.7
		c-1.7-5,10.1-89.7,11.7-97.3c13.4-5.9,11.7-18.4,15.1-31c2.1-7.8-2-9.5-5.4-11.2c-1.1-0.9-2.2-1.7-3.1-2.2
		c-0.5-0.6-0.8-1.4-0.8-2.5c0-6.7,7.5-60.4,10.1-74.6c2.5-14.3,2.5-21,8.4-41.1c3.4-5.1,5.9-13.2,7.7-23.3c1.2-3.3,1.3-5.3,1.3-8.3
		c6.4-46.5,2.2-123.6,3.5-157.1c1.7-43.6,14.3-32.7,31.9-35.2c17.6-2.5,17.6-4.2,21-13.4c0.6-1.6,1-5.1,1.2-9.6h96V611.8z"/>
	
		<path fill="#FFFFFF" stroke="#E5E5E4" stroke-width="55" stroke-linecap="round" stroke-linejoin="round" stroke-miterlimit="10" d="
		M744.4,395.9c0.5-0.3,0.9-0.6,1.4-1C745.5,394.9,745.1,395.3,744.4,395.9z"/>
</g>
<g display="none">
	
		<path display="inline" fill="none" stroke="#DDDDDD" stroke-width="70" stroke-linecap="round" stroke-linejoin="round" stroke-miterlimit="10" d="
		M1209.5,533.9H898.6c0-1.6-0.1-3.2-0.1-4.7c1.1,0,1.7,0,1.7,0s-1.1-13.5-2.5-30.5c0.1-10.2,0.2-35.6-5.1-65.1
		c-6.5-22.3-57-32.7-89.2-37.8c-14.8-2.9-27.9-5.3-27.9-5.3s-0.1,0.2-0.3,0.5c-2.5-1.1-6.3-3-10.4-5.5c0.1-0.2,0.2-0.3,0.2-0.3
		l-0.8,0c-12.9-8-28.5-21.4-18-31.8c1.3-1.6,3.7-8.6,6.2-16.7c4.6-4.1,7.8-7.9,9.6-9.6c-2.2,1.5-4.7,2.4-7.5,2.6
		c3.4-11.5,6.4-22.7,6.4-22.7s0.8-4.2,6.7-7.5c5.9-3.4,15.1-41.1,17.6-52.8c1.8-8.3-4.8-10.6-5.6-10.5c0.2-1.8,2.6-19,3.3-19.4
		c0.2-0.1,0-2.8-0.3-6.6c12.3-3.3,20.5-10.2,19.4-11.7c-21-11.4-14.8-13.6-28.8-64.2c-7-25.2-23.8-33-38.9-34.5
		c6.3-13.7,1.9-28.5,2-27.9c0.1,21.8-14.3,16.7-14.2,18.6c-10.6-25.1,17.5-33.9,22.2-35.1c-29.3,0.5-35.6,21.5-35.7,30.1
		c-3.9-16.3-14.4-35.5-15.9-35.5c4.9,5.9,5.8,21.9,5.9,32.5c-20.4-9.1-45.3-11.1-66.3-3.4c-108.5,39.9-55.8,106.9-116.4,96.2
		c2.1,2.3,7.7,31.8,34.4,36.9l1,30.2c0,0-3.5-1.5-6.9,3.5c-3.4,5,5.9,33.5,10.1,45.3c4.2,11.7,12.6,15.1,12.6,15.1s0.9-0.5,2.3,0.4
		c0.1,0.2,0.2,0.3,0.2,0.3l-0.1-0.3c1.4,0.9,3.2,3.2,5.2,8.4c3.4,8.8,15.4,31.1,23,45.9l-0.4,0c0,0,0.6,1,1.7,2.5
		c1.2,2.4,2.3,4.5,3.1,6.3c-6,7.4-12.8,11.5-18.3,14.4l-0.8,0c0,0,0.1,0.1,0.2,0.3c-4.2,2.2-7.6,3.6-9.3,5.4
		c-3,3-36.7,9.2-69.7,18.5c-2,0.5-3.9,1-5.8,1.5c-10.4,2.8-19.4,5.5-26.7,9.1c-1.5,0.6-3,1.2-4.4,1.8c-4.5,1.9-8,5.3-10.8,9.7
		c-4,5-6.7,11.2-8,19.3c-3.2,19.9-1.9,81.6-1.9,81.6s0.7,0,1.8,0c0,0.8,0,1.7,0,2.5H122.4v162.6H451c0.2,3.9,0.4,6.9,0.6,8.8
		c2.5,21.5,27.8,12.8,46.2,14.2c0.7,1.2,1.3,2.3,1.9,3.6c4.7,14,9.7,23.3,9.7,23.3s0,0.2,0,0.6c-0.9-1.1-1.4-1.7-1.4-1.7
		s-0.6,59.6-0.3,102c0,2.7,0,5.4,0,8.2c0,23.4,1,40.5,2.5,53.2c0.7,8,2.1,16.5,5.1,23.7c3.9,10.6,8.6,13,12.6,15.4
		c0.8,4.2,15.9,109.9,15.1,112.4c0,0,0,0.1-0.1,0.1c-0.9-0.8-1.4-1.3-1.4-1.3c-20.5,2.2-9.8,25-4.7,42.5s10.6,85.5,11.7,98.1
		c1.2,12.7-16.1,41.6-22.6,53.7c-6.6,12.1,0.3,141.7,0.8,151.8c0.5,10.1,12.6,21,12.6,21s266.7-0.8,277.6-0.8c7.3,0,7.1-2.6,6.8-8.2
		c3.2-12,1.9-34.9,1.3-50.8c0-6.5-0.1-13.5-0.2-20.8c0.1-30.2,0.5-99-1.7-104c-2.5-5.9-26.8-32.7-28.5-37.7
		c-1.7-5,10.1-89.7,11.7-97.3c13.4-5.9,11.7-18.4,15.1-31c2.1-7.8-2-9.5-5.4-11.2c-1.1-0.9-2.2-1.7-3.1-2.2
		c-0.5-0.6-0.8-1.4-0.8-2.5c0-6.7,7.5-60.4,10.1-74.6c2.5-14.3,2.5-21,8.4-41.1c3.4-5.1,5.9-13.2,7.7-23.3c1.2-3.3,1.3-5.3,1.3-8.3
		c6.4-46.5,2.2-123.6,3.5-157.1c1.7-43.6,14.3-32.7,31.9-35.2c17.6-2.5,17.6-4.2,21-13.4c0.6-1.6,1-5.1,1.2-9.6h312.2V533.9z"/>
	
		<path display="inline" fill="none" stroke="#DDDDDD" stroke-width="70" stroke-linecap="round" stroke-linejoin="round" stroke-miterlimit="10" d="
		M762.2,327.1c0.5-0.3,0.9-0.6,1.4-1C763.3,326.1,762.8,326.5,762.2,327.1z"/>
</g>
<rect x="344.8" y="615.3" fill="#827565" stroke="#000000" stroke-width="8.2087" stroke-miterlimit="10" width="632" height="162.6"/>
<rect x="350.3" y="620.8" fill="#77695A" width="612.6" height="56"/>
<path fill="#DDCEA6" stroke="#020304" stroke-width="5.4725" stroke-miterlimit="10" d="M763.3,317.7c-0.9-0.8,7.6,1,5.6,10.3
	c-2.5,11.7-11.7,49.5-17.6,52.8c-5.9,3.4-6.7,7.5-6.7,7.5s-11.3,42.3-14.6,46.5c-15,14.7,23,35.7,30.6,38.2
	c7.5,2.5,106.5,10.1,115.7,41.9c5.9,32.7,5,60.4,5,67.9c0,7.5,3.4,99,0.8,114.9c-2.5,15.9,0.8,80.5-2.5,89.7
	c-3.4,9.2-3.4,10.9-21,13.4c-17.6,2.5-30.2-8.4-31.9,35.2c-1.7,43.6,5.9,161-12.6,188.7c-5.9,20.1-5.9,26.8-8.4,41.1
	c-2.5,14.3-10.1,67.9-10.1,74.6c0,6.7,12.6,3.4,9.2,15.9c-3.4,12.6-1.7,25.2-15.1,31c-1.7,7.5-13.4,92.2-11.7,97.3
	c1.7,5,26,31.9,28.5,37.7c2.5,5.9,1.7,96.4,1.7,114.9c0,18.4,5,66.3-6.7,68.8c-13.4,0-277.6,0.8-277.6,0.8s-11.7-7.5-12.6-21
	c-0.8-13.4-6.7-138.4-0.8-151.8c5.9-13.4,24.3-36.1,22.6-53.7c-1.7-17.6-7.5-85.5-11.7-98.1c-4.2-12.6-7.5-25.2-6.7-34.4
	c0.8-9.2,10.9-4.2,11.7-6.7c0.8-2.5-14.3-108.2-15.1-112.4c-8.4-5-20.1-10.1-20.1-92.2c0-82.2,1.7-109,1.7-109s-5.9-10.9-10.9-26.8
	c-18.4-1.7-44.4,7.5-47-14.3c-2.5-21.8-2.5-177.8-3.4-197.1c-0.8-19.3-5.9-76.8,19.2-87.4c38.2-16.2,102.4-26.7,106.5-30.9
	c4.2-4.2,17.4-6.8,28.3-20.2c-5.9-12.6-23.2-43.9-27.4-54.8c-4.2-10.9-7.6-8.8-7.6-8.8s-8.4-3.4-12.6-15.1
	c-4.2-11.7-13.4-40.3-10.1-45.3c3.4-5,6.9-3.5,6.9-3.5l-1.2-33.9l9.4-62.6l179.3-1.7l40.1,33.9c0,0,4.6,38.3,3.8,38.8
	C765.9,298.6,763.3,317.7,763.3,317.7z"/>
<path fill="#E6B212" stroke="#020304" stroke-width="5.4725" stroke-miterlimit="10" d="M525.1,1140.3c0,0,32.7,36.1,129.1,5.9
	c12.6,4.2,93.9,31.9,140-4.2c0,0,11.6,4.6,9.5,14.8c-2,10.1-5.5,28.4-15.1,31c-2,12.3-11.7,97.3-11.7,97.3l28.5,37.7
	c1.1,11.3,4.7,151.7,2.3,164.8c-2.4,13.1,3.5,18.8-7.3,18.8c-10.9,0-277.6,0.8-277.6,0.8s-12-10.9-12.6-21
	c-0.5-10.1-7.4-139.7-0.8-151.8c6.6-12.1,23.8-41,22.6-53.7c-1.2-12.7-6.7-80.7-11.7-98.1C515.4,1165.3,504.7,1142.4,525.1,1140.3z"
	/>
<path fill="#827565" stroke="#020304" stroke-width="5.4725" stroke-miterlimit="10" d="M826.2,815.7
	c-51.2,55.3-100.6,44.4-122.4,51.2c-21.8,6.7-82.2,1.7-88.9,1.7c-6.7,0-41.1,3.4-68.8-1.7c-27.7-5-54.5-40.3-54.5-40.3
	s-1.3,122,0.9,141.1c1.3,11.6-1.3,56,22.1,61.8c33.4,8.2,88.9,18,139.7,2.6c31.1,4.2,125.4,31.7,159.7-13.4
	c12.8-25.5,7.9-17.7,9.8-38.3C825.8,959.8,826.2,815.7,826.2,815.7z"/>
<path fill="#E6B212" stroke="#020304" stroke-width="5.4725" stroke-miterlimit="10" d="M480.7,799.8c0,0,2.5-72.1,0.8-88.1
	c-1.7-15.9-5-92.2-5.9-95.6c-0.8-3.4-45.3-3.4-45.3-3.4s-1.3-61.7,1.9-81.6c4-25,21.4-32.3,49.9-39.9c28.5-7.5,72.4-17.8,72.4-17.8
	s69.3,126,99,128.1c42.2,2.9,105.7-129.8,105.7-129.8s55.5,10.3,67.1,13.7c11.6,3.4,46.5,13.4,48.9,29.6c2.4,16.2,8.6,95.4,8.6,95.4
	s-44.4,0-45.3,3.4c-0.8,3.4-4.2,79.7-5.9,95.6c-1.7,15.9,0.8,88,0.8,88s-0.6,8.7-3.9,13.4c-3.3,4.7-43.4,72.9-214.7,57.5
	c-56.1,0-89.8,1.1-104.8-14.5C495.1,838.3,489.9,815.3,480.7,799.8z"/>
<path fill="none" stroke="#020304" stroke-width="2.2044" stroke-miterlimit="10" d="M510.1,1027.9c0,0,50.3,24.3,144.2,4.2
	c37.7,10.1,125.8,19.3,158.5-8.4"/>
<path fill="none" stroke="#020304" stroke-width="2.2044" stroke-miterlimit="10" d="M566.7,465.6c0,0,59.8,120.3,89.3,123.5
	c29.5,3.2,92.6-122.5,92.6-122.5"/>
<path fill="#957414" d="M633.5,857c0,0-19.2-9.6-36.2-25.6c-17.1-16-22.4-30.9-22.4-30.9s7.5,25.6,16,33c8.5,7.5,40.5,22.4,48,26.6
	c7.5,4.3,5.3,10.7,5.3,10.7L633.5,857z"/>
<path fill="#957414" d="M682.7,866.4c0,0,12.8-14.9,23.4-20.3c10.7-5.3,22.4-22.4,33-35.2c10.7-12.8,29.8-26.6,29.8-26.6
	s-34.1,34.1-44.8,51.2C713.6,852.6,695.5,855.8,682.7,866.4z"/>
<path fill="#020304" d="M475.7,616.1c0,0,6.1-40.3,12-51.3c-1.1,0-16,42.6-19.2,45.8c-3.2,3.2-3.2,3.2-3.2,3.2L475.7,616.1z"/>
<path fill="#020304" d="M835.2,615.3c0,0-6.1-40.3-12-51.3c1.1,0,16,42.6,19.2,45.8c3.2,3.2,3.2,3.2,3.2,3.2L835.2,615.3z"/>
<path fill="none" stroke="#020304" stroke-width="2.2044" stroke-miterlimit="10" d="M581.1,442.3c0,0,7.9,13.8,27.6,23
	c13.6,6.3,50,20.2,86.4-0.7c35.5-20.5,32.4-31,35.5-34.6"/>
<path fill="#020304" d="M638.3,369.7c0,0,8.1,2.9,10.7,4.8c2.6,1.8,14.7-6.6,17.3-7.7c-1.1-1.1-11.8,3.7-14,3.7
	C650,370.4,638.3,369.7,638.3,369.7z"/>
<path fill="#020304" d="M610.5,430.1c0,0,29.7,6.5,34.6,7.7c4.9,1.2,17.4,0.4,23.1-2c5.7-2.4,23.5-5.7,23.5-5.7s-29.9,4-33.6,4.5
	C654.4,434.9,612.6,429.3,610.5,430.1z"/>
<path fill="#020304" d="M640.9,449.9c0,0,11.4,0.8,12.7,1.7c1.3,0.8,8-2.5,10.2-2.5C665.9,449.1,642.2,450.8,640.9,449.9z"/>
<path fill="none" stroke="#020304" stroke-width="2.2044" stroke-miterlimit="10" d="M553.4,388.2c0,0-9.4-16.4-13-27.8"/>
<path fill="none" stroke="#020304" stroke-width="2.2044" stroke-miterlimit="10" d="M750.5,357.5c0,0-5.7,25.5-7.3,29.7"/>
<path fill="none" stroke="#020304" stroke-width="2.2044" stroke-miterlimit="10" d="M763.9,305.2c0,0-4,16-5,18"/>
<path fill="#020304" d="M532.5,336.3c0,0,0.8,15.6,5.9,27L532.5,336.3z"/>
<path fill="#020304" d="M761.7,333.1c0,0-4.3,23.5-6.6,27.8c-0.8,0.4,0-13.7,2-19.2C759,336.3,761.7,333.1,761.7,333.1z"/>
<path fill="#020304" d="M657.5,488.4c0.4,0.9,2.4,7.1,3,11c0.6,3.9-1.7,3.5-3,8.9c-1.3,5.4-0.9,10.8-0.9,10.8s1.7-8.6,5.2-11.9
	c3.5-3.2,7.1-10.1,4.1-13.2C662.9,491,657.5,488.4,657.5,488.4z"/>
<path fill="#020304" d="M667.4,316.1c0,0-4.3,18.8-2.8,24.6c1.5,5.8,2.2,15.3,2.4,16c0.2,0.6,0-17.1-0.2-20.7
	C666.6,332.3,667.4,316.1,667.4,316.1z"/>
<path fill="#F4EAD5" d="M534.9,1055.1c0,0,4.4,4.4,22,0c2.2,0-17.6,26.5-4.4,81.6C537.1,1119.1,534.9,1055.1,534.9,1055.1z"/>
<path fill="#F4EAD5" d="M732.3,1145.4c0,0,40.5,2.1,48.2-10.5c7.7-12.6,4.9-35.6,4.9-35.6s-13.3,27.2-29.3,33.5
	C740,1139.1,732.3,1145.4,732.3,1145.4z"/>
<path fill="#EFD07A" d="M496.4,746.2c-0.2-2.1-7.7,39.1-1.4,57.9c6.3,18.8,25.8,21.6,31.4,20.9C532,824.3,502.7,802,496.4,746.2z"/>
<path fill="#EFD07A" d="M852,507.7c8.8,13,12,60.4,12,60.4s-17.3-42.9-30.7-51.4c-12.9-8.3-44.8-30.1-44.8-30.1
	S843.2,494.8,852,507.7z"/>
<path fill="#77695A" d="M610.7,919.6c0,0,34,29.6,37.2,38.8s2.2,70.2,2.2,70.2s-34.3,12.1-80.9,4.2c-3.5-2.3,56.3,8.1,67.4-14.7
	c-1.2-12.9-35.7-3.7-35.7-3.7l29.6-20.3L594,988c0,0,48.1-6.2,41.9-21.6C629.8,951.1,610.7,919.6,610.7,919.6z"/>
<path fill="#77695A" d="M620.5,912.2l54.8,10.6c0,0-19.9,29.6-19.5,39.4c0.4,9.9,16.9,41.3,16.9,41.3s-16,8-11.3,11.7
	c4.7,3.7,76.3,32.7,151.4-3.1c-2.5,4.9-1.3,12.3-8.1,14.2c-5.4,5.7-41.7,22.4-146.2,3.5C656.2,1002.8,620.5,912.2,620.5,912.2z"/>
<path fill="none" stroke="#020304" stroke-width="2.2044" stroke-miterlimit="10" d="M612.4,913c0,0,36.1,39.4,37.7,42.8
	c1.7,3.4,15.1-36.1,22.6-43.6"/>
<path fill="none" stroke="#020304" stroke-width="2.2044" stroke-miterlimit="10" d="M650.1,955.8c0,0,5.9,72.1,5,82.2
	c-0.8,10.1-2.5,101.5-0.8,108.2c1.7,6.7-5.9,35.2,0,39.4c2.5,10.1,4.2,104.8,4.2,104.8"/>
<path fill="none" stroke="#020304" stroke-width="2.2044" stroke-miterlimit="10" d="M525.1,1142"/>
<path opacity="0.43" fill="#957414" d="M527.7,1185.7v8.1c0,0,39.5,23.5,109.2,0c-1.7-2.6-23.6-4.1-23.6-4.1
	S564.8,1195.8,527.7,1185.7z"/>
<path fill="none" stroke="#020304" stroke-width="2.2044" stroke-miterlimit="10" d="M527.7,1183c0,0,37.7,16.8,83,7.5"/>
<path opacity="0.43" fill="#957414" d="M672.6,1188.7v8.1c0,0,39.5,23.5,109.2,0c-1.7-2.6-23.6-4.1-23.6-4.1
	S709.8,1198.8,672.6,1188.7z"/>
<path fill="none" stroke="#020304" stroke-width="2.2044" stroke-miterlimit="10" d="M681.1,1189.7c0,0,35.2,15.9,92.2,3.4"/>
<path opacity="0.43" fill="#957414" d="M538.6,1295v8.1c0,0,39.5,23.5,109.2,0c-1.7-2.6-23.6-4.1-23.6-4.1S575.8,1305.1,538.6,1295z
	"/>
<path opacity="0.43" fill="#957414" d="M672.6,1293.5v8.1c0,0,39.5,23.5,109.2,0c-1.7-2.6-23.6-4.1-23.6-4.1
	S709.8,1303.6,672.6,1293.5z"/>
<path fill="none" stroke="#020304" stroke-width="2.2044" stroke-miterlimit="10" d="M547.8,1298.8c0,0,40.3,10.1,92.2-1.7"/>
<path fill="none" stroke="#020304" stroke-width="2.2044" stroke-miterlimit="10" d="M684.5,1297.1c0,0,34.4,12.6,78,1.7"/>
<path opacity="0.43" fill="#957414" d="M514.2,1345.5c0,0,0,139.4,10.9,148.1c10.9,8.7,22.6,7,22.6,7s246.2,3.8,247.9,0.1
	c1.7-3.6-194.3-13.2-222.2-21.9c-27.9-8.7,13.9-10.5,13.9-10.5s-45.4-34-48.9-54.9c-3.4-20.9,9.2-20,9.2-20L514.2,1345.5z"/>
<path fill="#957414" d="M500.7,837.1"/>
<path fill="#EFD07A" d="M732.3,1345.5c0,0,51.1-16.2,53.5,20.3c2.5,36.5-9,65.7-9,65.7S783.9,1361.7,732.3,1345.5z"/>
<path fill="#56493A" stroke="#000000" stroke-width="4.1044" stroke-miterlimit="10" d="M785.7,279.7c-21-11.4-14.8-13.6-28.8-64.2
	c-7-25.2-23.8-33-38.9-34.5c6.3-13.7,1.9-28.5,2-27.9c0.1,21.8-14.3,16.7-14.2,18.6c-10.6-25.1,17.5-33.9,22.2-35.1
	c-29.3,0.5-35.6,21.5-35.7,30.1c-3.9-16.3-14.4-35.5-15.9-35.5c4.9,5.9,5.8,21.9,5.9,32.5c-20.4-9.1-45.3-11.1-66.3-3.4
	c-108.5,39.9-55.8,106.9-116.4,96.2c2.7,3,11.4,52.2,65.1,33.3c43.1-15.1,38.5-9,77.6-4.5c29.2,3.4,53.1-4.9,67.9-18.1
	C741.9,314.8,788.1,283.2,785.7,279.7z"/>
<g>
	<circle fill="#B7A784" cx="602" cy="333.1" r="35.4"/>
	<g>
		<circle fill="#FFFFFF" stroke="#000000" stroke-width="4.1044" stroke-miterlimit="10" cx="602" cy="339.7" r="32"/>
		<circle fill="#4AACE2" stroke="#428AB7" stroke-width="3" stroke-miterlimit="10" cx="602" cy="339.7" r="15.3"/>
		<circle cx="602" cy="339.7" r="8"/>
		<circle opacity="0.56" fill="#FFFFFF" cx="608.2" cy="331.7" r="5.2"/>
	</g>
	<path fill="#9B865C" d="M565.5,335.3c0,0-1.3-38.1,44.6-34.9C609.7,299.8,571.1,296.7,565.5,335.3z"/>
</g>
<path fill="#020304" d="M625.2,294.4c0,0-2.1,3.1-8.4,2.9c-6.3-0.2-28.8,0.4-38.3,2.9c-9.5,2.5-15.4,6.8-15.4,6.8
	s9.1-11.4,28.6-13.7C611.1,290.9,618.5,290.8,625.2,294.4z"/>
<path fill="#827565" stroke="#000000" stroke-width="2.7362" stroke-miterlimit="10" d="M628.2,310.4c0,0,1.2,1.5,4.2,2.9
	C631.2,311.9,629.8,310.8,628.2,310.4z"/>
<g>
	<circle fill="#B7A784" cx="701.1" cy="330.2" r="35.4"/>
	<g>
		<circle fill="#FFFFFF" stroke="#000000" stroke-width="4.1044" stroke-miterlimit="10" cx="701.1" cy="336.8" r="32"/>
		<circle fill="#4AACE2" stroke="#428AB7" stroke-width="3" stroke-miterlimit="10" cx="701.1" cy="336.8" r="15.3"/>
		<circle cx="701.1" cy="336.8" r="8"/>
		<circle opacity="0.56" fill="#FFFFFF" cx="707.3" cy="328.7" r="5.2"/>
	</g>
	<path fill="#9B865C" d="M664.6,332.4c0,0-1.3-38.1,44.6-34.9C708.8,296.8,670.2,293.7,664.6,332.4z"/>
</g>
<path fill="#020304" d="M676.4,295.3c0,0,2.4,2.9,8.6,2.2c6.2-0.7,28.8-2.2,38.4-0.6c9.6,1.6,15.9,5.4,15.9,5.4
	s-10.1-10.5-29.7-11.1C690.2,290.6,682.8,291.2,676.4,295.3z"/>
<path fill="#827565" stroke="#000000" stroke-width="2.7362" stroke-miterlimit="10" d="M671.7,312.5c0.5-0.2,1-0.3,1.6-0.5
	C678.1,310.3,675.6,309.6,671.7,312.5z"/>
<path fill="#A14116" d="M623.6,433.6c0,0,24.1,3.5,30.7,2.9c6.5-0.5,30.1-5.4,30.9-5.5c0.8-0.1-19.8-23.8-27.1-26.3
	C650.7,402.2,622.2,424.2,623.6,433.6z"/>
<path fill="#020304" d="M626.9,433c0,0,9.4-7.5,23.1-4.2c1.5,0.8,3.6,4.1,3.6,4.1l-2.8-4.1c0,0,13.1-6.9,28.8,2.2
	c0.3,0.4,0.5,1,0.5,1l7-1l-25.2-32.9c0,0-29.3,6-29.8,5.9c-0.5-0.1-16.6,13.6-16.6,13.6l2.5,13.8L626.9,433z"/>
<g>
	<path fill="#56493A" stroke="#000000" stroke-width="4.1044" stroke-miterlimit="10" d="M566,399.5c-0.6-0.6-1.1-1-1.4-1
		C565.1,398.9,565.6,399.2,566,399.5z"/>
	<path fill="#56493A" stroke="#000000" stroke-width="4.1044" stroke-miterlimit="10" d="M689.7,380.7c-13.6-8.7-26.3-5.8-33.9-2.6
		c-7.5-3.3-20.3-6.1-33.9,2.6c-20.7,13.2-43.3,27.7-55.9,18.8c7,6.7,36.4,45.2,80.4,11.3c3.9-3.4,7-6.5,9.3-9.2
		c2.4,2.8,5.4,5.8,9.3,9.2c44,33.9,73.4-4.6,80.4-11.3C733,408.3,710.4,393.9,689.7,380.7z"/>
	<path fill="#56493A" stroke="#000000" stroke-width="4.1044" stroke-miterlimit="10" d="M745.6,399.5c0.5-0.3,0.9-0.6,1.4-1
		C746.7,398.5,746.3,398.9,745.6,399.5z"/>
</g>
<g>
	<g>
		<path fill="#56493A" stroke="#000000" stroke-width="4.1044" stroke-miterlimit="10" d="M604.9,214.5c-6.5-0.4-15.3-1.2-24.1-0.9
			c0-0.1,0-0.1,0-0.1s-39.8,1.6-43.9,2.9l0.2,1.8c0.3,4.2,0.3,12.1,0.3,12.1s6.3-1.9,10,13.6c0,2.5,2.1,16.2,2.5,18.4
			c1.2,6.9,6.7,21.2,34.7,21c28-0.2,48.2-9.4,48.6-35.5C633.4,221.6,622.4,215.5,604.9,214.5z"/>
		<path fill="#56493A" stroke="#000000" stroke-width="4.1044" stroke-miterlimit="10" d="M708,212.8c0,0,0,0.1,0,0.1
			c-8.8-0.3-17.6,0.5-24.1,0.9c-17.6,1-28.6,7.1-28.2,33.3c0.4,26.1,20.6,35.3,48.6,35.5c28,0.2,33.4-14.2,34.7-21
			c0.4-2.2,2.5-15.9,2.5-18.4c3.6-15.5,10-13.6,10-13.6s0-7.9,0.3-12.1l0.2-1.8C747.8,214.4,708,212.8,708,212.8z"/>
		<path fill="#56493A" stroke="#000000" stroke-width="4.1044" stroke-miterlimit="10" d="M665.3,218.3c-8.5,2.8-12.5,3.8-25.4,3.8
			c-6.6,0-11.1-1.3-13.9-2.6c5.7,6.9,7.5,23.2,9,24.9c0.6-8.8,2.3-11.6,9.6-12c10.8-0.6,10.4,13.9,11,8.2
			C656.4,227.7,661.5,221.2,665.3,218.3z"/>
	</g>
	<path fill="#56493A" d="M605.6,221.9c0,0,16.2,0,33.1,2c14.5,1.7,13.9,1.3,32.9-5.9c13.9,0.2-8.3,34.8-8.3,34.8s-3-11.8-7.6-16.5
		c-5.8-6.1-14.1-8-21.2-0.9c-4.9,9.7-3.9,17-6.9,18.7C624.5,255.9,605.6,221.9,605.6,221.9z"/>
</g>
<path fill="#D8D8D8" d="M585,314.7c0,0-15.9,42.7,7.7,52.9C583.9,366.1,554.9,342.6,585,314.7z"/>
<path fill="#D8D8D8" d="M681,314.2c0,0-11,37.9,11,50.3C685.7,365.6,655.8,342.1,681,314.2z"/>
<path fill="#FFFFFF" stroke="#0B0B0C" stroke-width="3" stroke-miterlimit="10" d="M686.1,999.7c0,4.8-3.9,8.6-8.6,8.6H105.1
	c-4.8,0-8.6-3.9-8.6-8.6V536.9c0-6.6,5.4-12,12-12h377.5l162.6-76.2l-52.4,74.9l77.9,1.3c6.6,0,12,5.4,12,12V999.7z"/>
<circle fill="#C08B8B" cx="149.1" cy="568.4" r="72"/>
<g>
	<circle fill="#F2E2E2" cx="173.5" cy="543.3" r="12.1"/>
	<path fill="#F2E2E2" d="M156.8,551.2c0,0-27.2,6-31.6,8.1c-2.4,1.1-5.5,6.5-2.2,15.2c1.4,2.8,3.1,5.1,3.1,5.1l1.7,8.7
		c-0.1,0-20.2,3.9-20.2,3.9c-1.3,0.2-3.8,1.3-2.9,5.9c1,5.1,4.8,4.5,17,2.1c7-1.4,16.5-4.1,16.5-4.1s0.6-3.4-0.2-11.5
		c-0.6-4.6-0.7-4.8-0.7-4.8l23.3-7.9c0,0,3.8,17.2,5.8,17.2c2.1,0,22.9-4.5,22.9-4.5s1.3-0.8,0.2-4.9c-1.1-3.5-3.7-2.5-5.5-2.1
		c-1.8,0.4-12.8,2.2-12.8,2.2s-2-18.1-5.6-24.9C163.1,550.1,156.8,551.2,156.8,551.2z"/>
</g>
</svg>
