<?xml version="1.0" encoding="utf-8"?>
<!-- Generator: Adobe Illustrator 17.1.0, SVG Export Plug-In . SVG Version: 6.00 Build 0)  -->
<!DOCTYPE svg PUBLIC "-//W3C//DTD SVG 1.1//EN" "http://www.w3.org/Graphics/SVG/1.1/DTD/svg11.dtd">
<svg version="1.1" id="Ebene_1" xmlns="http://www.w3.org/2000/svg" xmlns:xlink="http://www.w3.org/1999/xlink" x="0px" y="0px"
	 viewBox="0 0 987 290.9" enable-background="new 0 0 987 290.9" xml:space="preserve">
<g>
	<path fill="#006986" d="M119,129.7c-2.3,0-4.6,0.2-7.3,0.2L170,62.9h-22c0-0.2-34.4,45.5-47.6,63.5L114,62.2
		c-2.7-0.2-5.4-0.4-8.4-0.4c-35,0-73.6,26.6-73.6,54.5c0,15.1,8,20.3,22.4,20.3c-0.2-1.9-2.9-3.6-2.9-14.3
		c0-22.2,10.9-38.1,29.3-45.9L50.5,219h30.2l16.8-79c2.5-0.4,5-0.8,6.9-0.8c9.4,0,12.6,5.9,12.6,14.3c0,15.9-11.1,41.3-11.1,55.1
		c0,6.9,2.7,14,16.3,14c5,0,11.9-1,20.7-3.6c-5-1.9-8.2-7.5-8.2-13.8c0-13.2,10.3-35.8,10.3-53C145,139.4,139.4,129.7,119,129.7z"/>
	<path fill="#006986" d="M191.7,102.9c9.2,0,16.8-7.3,16.8-16.6s-7.5-16.8-16.8-16.8s-16.6,7.5-16.6,16.8S182.5,102.9,191.7,102.9z"
		/>
	<path fill="#006986" d="M549.3,114.2c-10.1,0-18,6.7-25.4,13l2.7-13h-30.2l-14.3,67.3c-10.5,11.9-20.5,21.2-37.1,21.2
		c-10.1,0-15.1-3.4-15.1-17.6c0-2.5,0.2-5.4,0.4-8.4c25.1-1.5,48.2-20.1,48.2-44.2c0-10.5-4.4-20.1-23.1-20.1
		c-43,0-56.6,50.5-56.6,74.6c0,0.2,0,0.4,0,0.6c-3.6,7.5-7.5,12.4-14.9,12.4c-6.5,0-8.2-3.6-8.2-7.8c0-2.3,0.6-4.6,1-6.7l2.3-10.5
		c0.6-2.7,0.8-5.4,0.8-8c0-13.4-7.5-24.5-23.1-24.5c-2.3,0-4.6,0.4-6.9,0.8l41.9-29.1h-20.7l-40.4,31.9l15.7-73.8l-31,4.2l-22.4,105
		h0c-10.5,11.9-20.5,21.2-37.1,21.2c-10.1,0-15.1-3.4-15.1-17.6c0-23.3,13.6-61.6,26.8-61.6c4,0,5.9,3.4,5.9,8.6
		c0,3.6-0.8,7.8-2.5,12.4c2.5,1.7,5,2.5,7.3,2.5c6.1,0,11.1-5,11.1-15.3c0-9.6-4.6-19.3-23.3-19.3c-42.5,0-56.4,50.3-56.4,74.6
		c0,0.4,0,0.7,0,1c-3.8,7.1-9.8,12-16.2,12c-5.9,0-8.6-1.9-8.6-7.8c0-1.9,0.2-4,0.8-6.7l15.1-71.3H171l-14.3,67.3
		c-1,5-1.7,9.6-1.7,13.6c0,17.6,9.8,25.1,22.4,25.1c8.7,0,22.9-2.7,34.4-19.4c4.3,13.6,15.5,19.4,30.7,19.4
		c20.9,0,36.2-11,47.5-24.6l-5,23.3h30.2l10.9-51.8c5.9-4.8,10.7-7.8,15.5-7.8c5.4,0,7.5,4,7.5,10.1c0,2.3-0.2,5-0.8,7.8l-1.7,8.2
		c-0.8,4-1.3,7.5-1.3,10.9c0,15.3,9.2,23.9,26.4,23.9c7.3,0,18.9-2.1,29.3-18.5c4.5,13,15.6,18.5,30.5,18.5
		c20.9,0,36.1-10.9,47.5-24.5l-4.9,23.3h30.2l16.8-79.6c5.2-4.8,9-8,15.3-8s0.4,13.8,12.2,13.8c10.3,0,15.1-8,15.1-15.3
		C563.7,122,558.7,114.2,549.3,114.2z M457.3,123.4c4,0,5.2,3.4,5.2,8.6c0,17.4-14.3,33.5-30.4,34.6
		C436.3,145.9,446.6,123.4,457.3,123.4z"/>
	<polygon fill="#006986" points="565,172.5 607.1,172.5 610.7,155.9 568.8,155.9 	"/>
	<path fill="#006986" d="M750.3,61.8c-24.5,0-51.8,28.3-72.9,61.8c-4.4-0.4-8-0.6-10.9-0.6c-24.7,0-42.8,11.5-42.8,25.8
		c0,8.2,5.9,12.2,13,12.2c6.5,0,11.7-3.1,11.7-8.2c0-2.9-1.7-6.5-2.7-6.5c2.7-7.1,11.5-10.1,24.5-10.9
		c-18.2,32.1-30.8,66.4-30.8,85.3c0,21.8,16.8,22.2,28.1,22.2c-1.3-1.9-2.9-5-2.9-11.7c0-21.8,11.5-61.6,27.2-95.8
		c9.2,0.8,17.4,2.7,28.1,7.5L703.7,219h30.2l32.9-154.2C761.8,62.7,755.1,61.8,750.3,61.8z M721.8,133.7c-8.2-3.4-17.2-5.7-25.6-7.3
		c11.7-23.5,25.1-43,37.7-49.7L721.8,133.7z"/>
	<path fill="#006986" d="M829.1,113.2c-10.5,0-18.4,3.8-24.5,9l3.4-15.7h-30.2l-35,164.9l31.6-7.5l10.9-51.1c2.3,4,7.3,7.5,17.8,7.5
		c40.7,0,51.6-45.7,51.6-74C854.6,121.3,843.3,113.2,829.1,113.2z M796.6,202c-4.8,0-7.1-2.5-8-4.8l12.4-58.7
		c4-6.7,9.9-10.3,14.5-10.3c3.8,0,10.5,1.3,10.5,17.4C825.9,165.3,818.6,202,796.6,202z"/>
	<path fill="#006986" d="M927.2,113.2c-10.5,0-18.4,3.8-24.5,9l3.4-15.7h-30.2l-35,164.9l31.6-7.5l10.9-51.1c2.3,4,7.3,7.5,17.8,7.5
		c40.7,0,51.6-45.7,51.6-74C952.7,121.3,941.4,113.2,927.2,113.2z M894.7,202c-4.8,0-7.1-2.5-8-4.8l12.4-58.7
		c4-6.7,9.9-10.3,14.5-10.3c3.8,0,10.5,1.3,10.5,17.4C924,165.3,916.7,202,894.7,202z"/>
</g>
<g>
	<path fill="#FFFFFF" stroke="#4892A3" stroke-width="2.3287" stroke-miterlimit="10" d="M114.3,125.5c-2.3,0-4.6,0.2-7.3,0.2
		l58.3-67.1h-22c0-0.2-34.4,45.5-47.6,63.5l13.6-64.1c-2.7-0.2-5.4-0.4-8.4-0.4c-35,0-73.6,26.6-73.6,54.5c0,15.1,8,20.3,22.4,20.3
		c-0.2-1.9-2.9-3.6-2.9-14.2c0-22.2,10.9-38.1,29.3-45.9L45.8,214.8H76l16.8-79c2.5-0.4,5-0.8,6.9-0.8c9.4,0,12.6,5.9,12.6,14.3
		c0,15.9-11.1,41.3-11.1,55.1c0,6.9,2.7,14,16.3,14c5,0,11.9-1,20.7-3.6c-5-1.9-8.2-7.5-8.2-13.8c0-13.2,10.3-35.8,10.3-53
		C140.3,135.2,134.6,125.5,114.3,125.5z"/>
	<path fill="#FFFFFF" stroke="#4892A3" stroke-width="2.3287" stroke-miterlimit="10" d="M187,98.7c9.2,0,16.8-7.3,16.8-16.6
		s-7.5-16.8-16.8-16.8c-9.2,0-16.6,7.5-16.6,16.8S177.8,98.7,187,98.7z"/>
	<path fill="#FFFFFF" stroke="#4892A3" stroke-width="2.3287" stroke-miterlimit="10" d="M544.6,110c-10.1,0-18,6.7-25.4,13l2.7-13
		h-30.2l-14.3,67.3c-10.5,11.9-20.5,21.2-37.1,21.2c-10.1,0-15.1-3.4-15.1-17.6c0-2.5,0.2-5.4,0.4-8.4c25.1-1.5,48.2-20.1,48.2-44.2
		c0-10.5-4.4-20.1-23.1-20.1c-43,0-56.6,50.5-56.6,74.6c0,0.2,0,0.4,0,0.6c-3.6,7.5-7.5,12.4-14.9,12.4c-6.5,0-8.2-3.6-8.2-7.8
		c0-2.3,0.6-4.6,1-6.7l2.3-10.5c0.6-2.7,0.8-5.4,0.8-8c0-13.4-7.5-24.5-23.1-24.5c-2.3,0-4.6,0.4-6.9,0.8l41.9-29.1h-20.7
		l-40.4,31.9l15.7-73.8l-31,4.2l-22.4,105h0c-10.5,11.9-20.5,21.2-37.1,21.2c-10.1,0-15.1-3.4-15.1-17.6c0-23.3,13.6-61.6,26.8-61.6
		c4,0,5.9,3.4,5.9,8.6c0,3.6-0.8,7.8-2.5,12.4c2.5,1.7,5,2.5,7.3,2.5c6.1,0,11.1-5,11.1-15.3c0-9.6-4.6-19.3-23.3-19.3
		c-42.5,0-56.4,50.3-56.4,74.6c0,0.4,0,0.7,0,1c-3.8,7.1-9.8,12-16.2,12c-5.9,0-8.6-1.9-8.6-7.8c0-1.9,0.2-4,0.8-6.7l15.1-71.3
		h-30.2L152,177.3c-1,5-1.7,9.6-1.7,13.6c0,17.6,9.8,25.1,22.4,25.1c8.7,0,22.9-2.7,34.4-19.4c4.3,13.6,15.5,19.4,30.7,19.4
		c20.9,0,36.2-11,47.5-24.6l-5,23.3h30.2l10.9-51.8c5.9-4.8,10.7-7.8,15.5-7.8c5.4,0,7.5,4,7.5,10.1c0,2.3-0.2,5-0.8,7.8l-1.7,8.2
		c-0.8,4-1.3,7.5-1.3,10.9c0,15.3,9.2,23.9,26.4,23.9c7.3,0,18.9-2.1,29.3-18.5c4.5,13,15.6,18.5,30.5,18.5
		c20.9,0,36.1-10.9,47.5-24.6l-4.9,23.3h30.2l16.8-79.6c5.2-4.8,9-8,15.3-8c6.3,0,0.4,13.8,12.2,13.8c10.3,0,15.1-8,15.1-15.3
		C559,117.8,554,110,544.6,110z M452.6,119.3c4,0,5.2,3.4,5.2,8.6c0,17.4-14.3,33.5-30.4,34.6C431.6,141.7,441.9,119.3,452.6,119.3z
		"/>
	<polygon fill="#FFFFFF" stroke="#4892A3" stroke-width="2.3287" stroke-miterlimit="10" points="560.3,168.3 602.4,168.3 
		606,151.7 564.1,151.7 	"/>
	<path fill="#FFFFFF" stroke="#4892A3" stroke-width="2.3287" stroke-miterlimit="10" d="M745.6,57.6c-24.5,0-51.8,28.3-72.9,61.8
		c-4.4-0.4-8-0.6-10.9-0.6c-24.7,0-42.8,11.5-42.8,25.8c0,8.2,5.9,12.2,13,12.2c6.5,0,11.7-3.1,11.7-8.2c0-2.9-1.7-6.5-2.7-6.5
		c2.7-7.1,11.5-10.1,24.5-10.9c-18.2,32.1-30.8,66.4-30.8,85.3c0,21.8,16.8,22.2,28.1,22.2c-1.3-1.9-2.9-5-2.9-11.7
		c0-21.8,11.5-61.6,27.2-95.8c9.2,0.8,17.4,2.7,28.1,7.5L699,214.8h30.2l32.9-154.2C757.1,58.5,750.4,57.6,745.6,57.6z M717,129.5
		c-8.2-3.4-17.2-5.7-25.6-7.3c11.7-23.5,25.1-43,37.7-49.7L717,129.5z"/>
	<path fill="#FFFFFF" stroke="#4892A3" stroke-width="2.3287" stroke-miterlimit="10" d="M824.4,109c-10.5,0-18.4,3.8-24.5,9
		l3.4-15.7H773l-35,164.9l31.6-7.5l10.9-51.1c2.3,4,7.3,7.5,17.8,7.5c40.7,0,51.6-45.7,51.6-74C849.9,117.2,838.6,109,824.4,109z
		 M791.9,197.8c-4.8,0-7.1-2.5-8-4.8l12.4-58.7c4-6.7,9.9-10.3,14.5-10.3c3.8,0,10.5,1.3,10.5,17.4
		C821.2,161.2,813.9,197.8,791.9,197.8z"/>
	<path fill="#FFFFFF" stroke="#4892A3" stroke-width="2.3287" stroke-miterlimit="10" d="M922.4,109c-10.5,0-18.4,3.8-24.5,9
		l3.4-15.7h-30.2l-35,164.9l31.6-7.5l10.9-51.1c2.3,4,7.3,7.5,17.8,7.5c40.7,0,51.6-45.7,51.6-74C948,117.2,936.7,109,922.4,109z
		 M890,197.8c-4.8,0-7.1-2.5-8-4.8l12.4-58.7c4-6.7,9.9-10.3,14.5-10.3c3.8,0,10.5,1.3,10.5,17.4C919.3,161.2,912,197.8,890,197.8z"
		/>
</g>
</svg>
