<?xml version="1.0" encoding="utf-8"?>
<!-- Generator: Adobe Illustrator 17.1.0, SVG Export Plug-In . SVG Version: 6.00 Build 0)  -->
<!DOCTYPE svg PUBLIC "-//W3C//DTD SVG 1.1//EN" "http://www.w3.org/Graphics/SVG/1.1/DTD/svg11.dtd">
<svg version="1.1" id="Ebene_1" xmlns="http://www.w3.org/2000/svg" xmlns:xlink="http://www.w3.org/1999/xlink" x="0px" y="0px"
	 viewBox="0 0 73.5 21" enable-background="new 0 0 73.5 21" xml:space="preserve">
<g>
	<path fill="#FFFFFF" d="M16.5,16.8c0,1.1-1.4,2.3-3,2.3c-0.8,0-1.1-0.3-1.6-1.4c-1.3-2.7-1.8-3.7-2.7-4c-0.4,1.5-0.6,3.2-0.7,3.8
		c-0.2,0.2-0.5,0.4-1,0.4c-1.1,0-1.9-1.2-1.9-2c0-0.5,0.1-1.3,1-3.9c0.6-1.7,1.3-3.7,2-6.1C6.9,6.2,5.4,7.7,4.7,9
		C4.6,9.1,4.4,9.1,4.3,9.1c-0.5,0-0.9-0.5-0.9-1.2c0-2,3.4-5.1,7.7-5.1c3.4,0,5.2,1.7,5.2,4c0,2-1.2,3.7-3.4,5.8
		c0.4,0.4,1.2,1.4,1.9,2.8c0.2,0.5,0.4,0.6,0.7,0.6c0.2,0,0.6-0.1,0.8-0.1C16.5,16.3,16.5,16.6,16.5,16.8z M13,8
		c0-1.1-0.6-1.9-2.3-2c0,1.3-0.4,3.3-1,5.9c0.2,0,0.4-0.1,0.7-0.1c0.4,0,0.8,0.1,1,0.1C12.7,10.2,13,9.2,13,8z"/>
	<path fill="#FFFFFF" d="M17.3,17.7c-1.1,0-2-0.9-2-2.8c0-3,2.5-6.1,4.5-6.1c0.3,0,0.4,0,0.5,0.1l0.1-1.2c0.2-0.2,0.4-0.3,0.7-0.3
		c1.4,0,2.1,0.9,2.1,1.6c0,0.3-0.1,0.8-0.2,1.3c-0.7,2.5-1,3.8-1,4.3c0,0.4,0.1,0.5,0.2,0.5c0.4,0,1.4-0.8,2.7-2.6
		c0.4,0,0.7,0.3,0.7,0.6c0,1.3-3.3,4.5-4.8,4.5c-0.9,0-1.4-0.4-1.4-1.6c0-0.2,0-0.5,0.1-0.8C18.9,17.2,18,17.7,17.3,17.7z
		 M20.2,10.2c-1,0.6-2,2.3-2,3.8c0,0.7,0.2,0.8,0.5,0.8c0.3,0,0.6-0.2,0.8-0.5L20.2,10.2z"/>
	<path fill="#FFFFFF" d="M24.7,12.1c0-1.2,1.8-3.3,3-3.3c0.9,0,1,0.5,1,1.3c0,0.5-0.3,1.4-0.7,2.2c-0.6,1.4-0.8,2-0.8,2.5
		c0,0.2,0.1,0.3,0.3,0.3c0.3,0,1.2-0.6,2.5-2.5c0.4,0,0.8,0.3,0.8,0.7c0,1.3-3.2,4.6-5,4.6c-1.2,0-1.6-0.5-1.6-1.6
		c0-0.9,0.2-1.7,0.7-2.9C24.7,13,24.7,12.5,24.7,12.1z M28.5,3.5c0.8,0,1.7,0.9,1.7,1.5c0,0.5-0.4,1.3-1.3,2.4
		c-0.8,0-1.3-0.6-1.3-1.7C27.5,4.1,27.8,3.5,28.5,3.5z"/>
	<path fill="#FFFFFF" d="M30.7,7.3C31,4.6,32.5,3,34.1,3c0.9,0,1.4,0.4,1.4,1.4c0,0.9-0.4,1.9-1.9,4.7c-0.5,1.9-1.5,5.4-1.5,5.9
		c0,0.2,0.1,0.3,0.3,0.3c0.6,0,1.8-1.1,2.8-2.8c0.4,0,0.8,0.3,0.8,0.7c0,1.5-3.2,4.7-5.3,4.7c-1.2,0-1.6-0.5-1.6-1.5
		c0-1.3,0.6-3.7,0.8-4.5C30.1,10.6,30.5,8.7,30.7,7.3z"/>
	<path fill="#FFFFFF" d="M48.3,4.3c0,0.7-0.4,1.6-1.8,2.7c-0.5,1.9-1.9,7.5-1.9,8c0,0.2,0.1,0.3,0.3,0.3c0.6,0,1.8-1.1,2.8-2.8
		c0.4,0,0.8,0.3,0.8,0.7c0,1.5-3.2,4.7-5.3,4.7c-1.2,0-1.6-0.5-1.6-1.5c0-1.3,0.6-3.7,0.8-4.5c0.3-1.4,0.6-3,0.9-4.5
		c0-0.1,0-0.3,0.1-0.4c-1-0.2-1.9-0.2-2.3-0.2c-0.7,0-1.2,0.5-1.2,1.5c1.2,0,1.8,0.2,1.8,0.8c0,0.8-0.8,1.9-1.6,1.9
		c-0.4,0-0.8-0.3-1.2-0.7c0.1,0.3,0.3,0.7,0.5,1c0.8,1.7,1.2,2.9,1.2,3.7c0,2.1-1.6,3.2-3.5,3.2c-1.6,0-3-1.1-3-3
		c0-1.2,0.3-3.1,1.3-3.1c0.7,0,1.3,0.9,1.3,1.4c0,0.4-0.2,0.7-0.5,1.1c0.2,0.9,0.8,1.5,1.3,1.5c0.2,0,0.4-0.1,0.4-0.5
		c0-1-1.2-3.8-1.2-5.1c0-0.8,0.4-1.6,1.5-2c0-0.2-0.1-0.4-0.1-0.6c0-2,1.2-3.4,3.4-3.4c0.7,0,1.2,0.1,2.5,0.7
		c0.5-1.3,1.3-2.2,2.4-2.2C47.2,2.8,48.3,3.5,48.3,4.3z"/>
	<path fill="#FFFFFF" d="M54.4,11.1c0,1-0.2,1.7-0.6,2.8c0.1,0.1,0.2,0.1,0.4,0.1c0.6,0,1.2-0.5,1.8-1.5c0.4,0,0.8,0.3,0.8,0.7
		c0,0.8-1.3,2.7-3,2.7c-0.4,0-0.6-0.1-0.8-0.2c-1,1.3-2,2-3.4,2c-1.4,0-2.5-0.9-2.5-2.9c0-3.3,2.2-6.4,4.3-6.4
		c0.5,0,1.2,0.2,1.2,0.9c0.2-0.2,0.4-0.3,0.7-0.3C54,9.1,54.4,10.2,54.4,11.1z M50.5,15.4c0.5,0,1-0.5,1.3-1.4
		c-0.2-0.6-0.2-1.2-0.2-1.7c0-0.7,0.1-1.7,0.4-2.3c-1.2,0.6-2.3,2.5-2.3,4.2C49.8,15.1,50.2,15.4,50.5,15.4z"/>
	<path fill="#FFFFFF" d="M57.8,17.8c-1.5,0-2.6-0.8-2.6-2.8c0-1,0.4-2.3,1.2-3.4c-0.5-0.2-0.6-0.7-0.6-1c0-1,1.3-2.1,2.9-2.1
		c0.8,0,1.5,0.3,1.5,1.1c0,0.1,0,0.2,0,0.2c-1.3,1.2-2.1,3-2.1,4.5c0,0.8,0.2,1.1,0.6,1.1c0.8,0,2.1-2.2,2.1-5
		c0-0.4-0.1-1.1-0.1-1.5c0.2-0.2,0.5-0.4,1-0.4c1.2,0,1.7,0.9,1.7,1.9C63.4,14.6,60.4,17.8,57.8,17.8z"/>
	<path fill="#FFFFFF" d="M62.3,14.5c0-3,2.5-6.1,4.4-6.1c1.4,0,2.1,0.7,2.1,2.1c0,1.7-1,3-3.7,3.6c0,0.9,0.2,1.4,1,1.4
		c1.4,0,3.1-1.2,4.3-2.9c0.5,0,0.8,0.3,0.8,0.7c0,1.5-3.3,4.7-5.9,4.7C63.2,17.8,62.3,16.6,62.3,14.5z M66.2,10.5
		c-0.3,0-0.8,0.7-1,2.1c1.1-0.2,1.4-0.8,1.4-1.4C66.6,10.7,66.5,10.5,66.2,10.5z"/>
</g>
</svg>
