<?xml version="1.0" encoding="utf-8"?>
<!-- Generator: Adobe Illustrator 17.1.0, SVG Export Plug-In . SVG Version: 6.00 Build 0)  -->
<!DOCTYPE svg PUBLIC "-//W3C//DTD SVG 1.1//EN" "http://www.w3.org/Graphics/SVG/1.1/DTD/svg11.dtd">
<svg version="1.1" id="Ebene_1" xmlns="http://www.w3.org/2000/svg" xmlns:xlink="http://www.w3.org/1999/xlink" x="0px" y="0px"
	 viewBox="0 0 650 200" enable-background="new 0 0 650 200" xml:space="preserve">
<path fill="#616D3C" d="M352.6,43.6V51h-30.7h-26.2v-7.4h-12.6v113.9h12.8v-7.4H322h30.5v7.4h12.8V43.6H352.6z M352.2,128.5h-55.5
	V63.8h55.5C352.2,63.8,352.2,128.5,352.2,128.5z"/>
<rect x="281.3" y="70.9" fill="#616D3C" width="1.8" height="19.1"/>
<rect x="365.2" y="61.3" fill="#616D3C" width="1.8" height="22.4"/>
<rect x="365.2" y="111.1" fill="#616D3C" width="1.8" height="22.4"/>
<rect x="365.2" y="91.4" fill="#616D3C" width="1.8" height="11.2"/>
<polygon fill="#616D3C" points="350.5,151.9 349.2,197.2 298.6,197.2 297.3,151.9 "/>
<polygon fill="#616D3C" points="297.3,49.5 298.6,4.2 349.2,4.2 350.5,49.5 "/>
</svg>
