<svg class='svg-icon icon-twitter' xmlns="http://www.w3.org/2000/svg" xmlns:xlink="http://www.w3.org/1999/xlink" version="1.1" id="Layer_1" x="0px" y="0px" viewBox="0 0 56.7 56.7" enable-background="new 0 0 56.7 56.7" xml:space="preserve">
<path class='svg-path' d="M52.8 15.1c-1.8 0.8-3.8 1.3-5.8 1.6c2.1-1.2 3.7-3.2 4.4-5.6c-2 1.2-4.1 2-6.4 2.5c-1.8-2-4.5-3.2-7.4-3.2 c-5.6 0-10.1 4.5-10.1 10.1c0 0.8 0.1 1.6 0.3 2.3C19.4 22.3 12 18.3 7 12.2c-0.9 1.5-1.4 3.2-1.4 5.1c0 3.5 1.8 6.6 4.5 8.4 c-1.7-0.1-3.2-0.5-4.6-1.3c0 0 0 0.1 0 0.1c0 4.9 3.5 9 8.1 9.9c-0.8 0.2-1.7 0.4-2.7 0.4c-0.7 0-1.3-0.1-1.9-0.2c1.3 4 5 6.9 9.4 7 C15.1 44.3 10.7 46 6 46c-0.8 0-1.6 0-2.4-0.1c4.5 2.9 9.8 4.5 15.5 4.5c18.6 0 28.8-15.4 28.8-28.8c0-0.4 0-0.9 0-1.3 C49.8 18.9 51.5 17.1 52.8 15.1z"/>
</svg>
