<svg class='svg-icon icon-googleplus' xmlns="http://www.w3.org/2000/svg" xmlns:xlink="http://www.w3.org/1999/xlink" version="1.1" id="Layer_1" x="0px" y="0px" viewBox="0 0 56.7 56.7" enable-background="new 0 0 56.7 56.7" xml:space="preserve">
<g>
	<path class='svg-path' d="M52.2 25.9h-7.5v-7.5c0-0.6-0.5-1-1-1h-2.1c-0.6 0-1 0.5-1 1v7.5H33c-0.6 0-1 0.5-1 1V29c0 0.6 0.5 1 1 1h7.5v7.5 c0 0.6 0.5 1 1 1h2.1c0.6 0 1-0.5 1-1v-7.5h7.5c0.6 0 1-0.5 1-1v-2.1C53.3 26.3 52.8 25.9 52.2 25.9z"/>
	<path class='svg-path' d="M27 32.4c-1.6-1.1-3-2.8-3-3.3c0-0.9 0.1-1.4 2.1-3c2.7-2.1 4.1-4.8 4.1-7.7c0-2.6-0.8-5-2.2-6.6h1.1 c0.2 0 0.4-0.1 0.6-0.2l3-2.1C33 9.3 33.2 8.8 33 8.4c-0.1-0.4-0.5-0.7-1-0.7H18.8c-1.4 0-2.9 0.3-4.4 0.8c-4.8 1.7-8.2 5.8-8.2 10 c0 6 4.6 10.5 10.8 10.6c-0.1 0.5-0.2 0.9-0.2 1.4c0 0.9 0.2 1.8 0.7 2.6c-0.1 0-0.1 0-0.2 0c-5.9 0-11.2 2.9-13.2 7.2 c-0.5 1.1-0.8 2.2-0.8 3.4c0 1.1 0.3 2.1 0.8 3.1c1.3 2.3 4 4 7.7 5c1.9 0.5 3.9 0.7 6.1 0.7c1.9 0 3.7-0.2 5.4-0.7 c5.2-1.5 8.6-5.4 8.6-9.8C32 37.6 30.7 35 27 32.4z M10.3 42.2c0-3.1 3.9-5.8 8.4-5.8h0.1c1 0 1.9 0.2 2.8 0.4 c0.3 0.2 0.6 0.4 0.9 0.6c2.1 1.4 3.5 2.4 3.8 3.9c0.1 0.4 0.1 0.8 0.1 1.1c0 3.9-2.9 5.8-8.6 5.8C13.7 48.2 10.3 45.6 10.3 42.2z M14.4 12.9c0.7-0.8 1.6-1.2 2.7-1.2l0.1 0c2.9 0.1 5.7 3.3 6.2 7.3c0.3 2.2-0.2 4.3-1.3 5.5c-0.7 0.8-1.6 1.2-2.7 1.2c0 0 0 0 0 0 h0c-2.9-0.1-5.7-3.5-6.2-7.4C12.8 16.1 13.3 14.1 14.4 12.9z"/>
</g>
</svg>
