<svg class='svg-icon icon-linkedin' xmlns="http://www.w3.org/2000/svg" xmlns:xlink="http://www.w3.org/1999/xlink" version="1.1" id="Layer_1" x="0px" y="0px" viewBox="0 0 56.7 56.7" enable-background="new 0 0 56.7 56.7" xml:space="preserve">
<g>
	<path class='svg-path' d="M30.1 27.1L30.1 27.1C30.1 27 30 27.1 30.1 27.1L30.1 27.1z"/>
	<path class='svg-path' d="M49.3 4.7H7.1c-2 0-3.7 1.6-3.7 3.6v42.6c0 2 1.6 3.6 3.7 3.6h42.1c2 0 3.7-1.6 3.7-3.6V8.2C52.9 6.3 51.3 4.7 49.3 4.7z M18.5 46.3H11V23.8h7.5V46.3z M14.7 20.8L14.7 20.8c-2.6 0-4.2-1.7-4.2-3.9c0-2.2 1.7-3.9 4.2-3.9c2.6 0 4.1 1.7 4.2 3.9 C19 19.1 17.3 20.8 14.7 20.8z M45.4 46.3h-7.5v-12c0-3-1.1-5.1-3.8-5.1c-2.1 0-3.3 1.4-3.8 2.7c-0.2 0.5-0.2 1.1-0.2 1.8v12.5 h-7.5c0 0 0.1-20.4 0-22.5h7.5V27c1-1.5 2.8-3.7 6.7-3.7c4.9 0 8.6 3.2 8.6 10.1L45.4 46.3L45.4 46.3z"/>
</g>
</svg>
